<svg width="129" height="28" viewBox="0 0 129 28" fill="none" xmlns="http://www.w3.org/2000/svg">
<g id="Layer_1" clip-path="url(#clip0_193_48648)">
<g id="Group">
<path id="Vector" d="M21.4307 9.33772L24.6797 9.34543C26.5102 9.34543 28.0006 7.85634 28.0006 6.0245V3.32874C27.9993 1.4969 26.5102 0.0078125 24.6784 0.0078125H21.9826C20.1521 0.0078125 18.6617 1.4969 18.6617 3.32874V6.57007C18.6617 8.09254 17.423 9.33259 15.8992 9.33259H11.5449C10.3241 9.33259 9.33053 10.3262 9.33053 11.547V15.9013C9.33053 17.4237 8.09176 18.6638 6.56801 18.6638H1.10716C0.496121 18.6638 -0.00195312 19.1606 -0.00195312 19.7729V26.8923C-0.00195312 27.5033 0.494838 28.0014 1.10716 28.0014H8.22654C8.83758 28.0014 9.33566 27.5046 9.33566 26.8923V21.4314C9.33566 19.909 10.5744 18.6689 12.0982 18.6689H15.9005C17.423 18.6689 18.663 19.9077 18.663 21.4314V28.0014H28.0006V18.6638H21.4307C19.9082 18.6638 18.6681 17.425 18.6681 15.9013V12.099C18.6681 10.5765 19.9069 9.33644 21.4307 9.33644V9.33772Z" fill="white"/>
<path id="Vector_2" d="M4.66881 9.33761C7.24732 9.33761 9.33761 7.24732 9.33761 4.66881C9.33761 2.0903 7.24732 0 4.66881 0C2.0903 0 0 2.0903 0 4.66881C0 7.24732 2.0903 9.33761 4.66881 9.33761Z" fill="white"/>
</g>
<g id="Group_2">
<path id="Vector_3" d="M67.5533 3.11938H65.0039V24.878H67.5533V3.11938Z" fill="white"/>
<path id="Vector_4" d="M128.024 9.33618H125.475V24.8792H128.024V9.33618Z" fill="white"/>
<path id="Vector_5" d="M78.3131 9.0564C73.8663 9.0564 70.2617 12.661 70.2617 17.1077C70.2617 21.5545 73.8663 25.1591 78.3131 25.1591C82.7598 25.1591 86.3644 21.5545 86.3644 17.1077C86.3644 12.661 82.7598 9.0564 78.3131 9.0564ZM78.3131 22.9537C75.0897 22.9537 72.4671 20.3311 72.4671 17.1077C72.4671 13.8844 75.0897 11.2618 78.3131 11.2618C81.5364 11.2618 84.159 13.8844 84.159 17.1077C84.159 20.3311 81.5364 22.9537 78.3131 22.9537Z" fill="white"/>
<path id="Vector_6" d="M126.988 6.2953C127.86 6.15364 128.453 5.33138 128.311 4.45872C128.17 3.58606 127.347 2.99347 126.475 3.13512C125.602 3.27677 125.009 4.09903 125.151 4.97169C125.293 5.84435 126.115 6.43695 126.988 6.2953Z" fill="white"/>
<path id="Vector_7" d="M60.4189 9.33631H60.4163C59.0928 9.34016 58.0209 10.4121 58.0209 11.7355C56.4805 10.018 54.2147 8.96532 51.7038 9.06288C47.537 9.22463 44.1467 12.6123 43.9811 16.7792C43.7988 21.3748 47.4702 25.1579 52.026 25.1579C54.329 25.1579 56.4047 24.19 57.872 22.6393V24.878H60.4214V13.7599V11.7368V9.3376L60.4189 9.33631ZM57.8707 17.1296C57.8579 20.3427 55.2404 22.9538 52.0248 22.9538C48.8091 22.9538 46.1788 20.3312 46.1788 17.1078C46.1788 13.8845 48.8014 11.2619 52.0248 11.2619C55.2481 11.2619 57.8579 13.8729 57.8707 17.086V17.1309V17.1296Z" fill="white"/>
<path id="Vector_8" d="M121.132 9.33631H121.129C119.806 9.34016 118.734 10.4121 118.734 11.7355C117.193 10.018 114.928 8.96532 112.417 9.06288C108.25 9.22463 104.86 12.6123 104.694 16.7792C104.512 21.3748 108.183 25.1579 112.739 25.1579C115.042 25.1579 117.118 24.19 118.585 22.6393V24.878H121.134V13.7599V11.7368V9.3376L121.132 9.33631ZM118.584 17.1296C118.571 20.3427 115.953 22.9538 112.738 22.9538C109.522 22.9538 106.892 20.3312 106.892 17.1078C106.892 13.8845 109.514 11.2619 112.738 11.2619C115.961 11.2619 118.571 13.8729 118.584 17.086V17.1309V17.1296Z" fill="white"/>
<path id="Vector_9" d="M96.8543 15.3017L102.707 9.33505H99.7786L94.3203 14.8999H92.3947C92.2291 14.8999 92.0943 14.7651 92.0943 14.5995V3.11938H89.5449V24.878H92.0943V17.4685C92.0943 17.303 92.2291 17.1682 92.3947 17.1682H95.0237L95.0302 17.1617L95.0263 17.1682L100.897 24.8768H103.825L96.8312 15.6919C96.7413 15.5738 96.7516 15.4069 96.8556 15.3004L96.8543 15.3017Z" fill="white"/>
</g>
</g>
<defs>
<clipPath id="clip0_193_48648">
<rect width="128.334" height="28" fill="white"/>
</clipPath>
</defs>
</svg>
