<?xml version="1.0" encoding="UTF-8"?>
<svg id="Layer_1" xmlns="http://www.w3.org/2000/svg" viewBox="0 0 803.54 141.8">
  <defs>
    <style>
      .cls-1 {
        fill: #062633;
      }
    </style>
  </defs>
  <g>
    <path class="cls-1" d="M94.6,52.22c4.14-1.95,7.7-4.96,10.32-8.7,2.59-3.87,4.28-8.27,4.95-12.87.82-4.93.54-9.23-.82-12.88-1.34-3.64-3.99-6.66-7.42-8.48-3.56-2.06-8.35-3.09-14.36-3.09h-21.03l-8.24,49.12h21.09c6.05,0,11.22-1.03,15.52-3.09Z"/>
    <path class="cls-1" d="M32.49,8.85C-2.41,20.72-11.38,65.91,16.34,90.2l3.94,3.45L34.52,8.16l-2.03.69Z"/>
    <path class="cls-1" d="M137.8,0c.87,1.52,1.63,3.12,2.26,4.77,2.92,7.48,3.6,16.11,2.02,25.89-1.46,9.38-5.14,18.28-10.72,25.97-5.49,7.48-12.79,13.47-21.21,17.4-8.69,4.16-18.73,6.24-30.13,6.24h-26.2l-6.25,37.28,14.09,12.35c27.72,24.29,71.34,9.46,78.52-26.69l11.73-59.07c3.46-17.41-2.79-33.47-14.09-44.13Z"/>
  </g>
  <g>
    <path class="cls-1" d="M191.14,26.16c0-.44.19-.63.63-.63h37.75c14.6,0,27.18,12.33,27.18,28s-12.58,27.93-27.18,27.93h-22.4c-.31,0-.5.19-.5.5v33.66c0,.44-.19.63-.63.63h-14.22c-.44,0-.63-.19-.63-.63V26.16ZM206.61,66.68c0,.44.19.63.63.63h21.01c6.92,0,13.15-6.23,13.15-13.78s-6.23-13.84-13.15-13.84h-21.14c-.31,0-.5.19-.5.57v26.42Z"/>
    <path class="cls-1" d="M265.94,26.16c0-.44.19-.63.63-.63h14.16c.44,0,.63.19.69.63v89.47c0,.44-.25.63-.69.63h-14.16c-.44,0-.63-.19-.63-.63V26.16Z"/>
    <path class="cls-1" d="M324.76,49.76c18.87,0,31.46,13.84,31.46,33.91-.19,2.58-.31,3.77-.63,5.29-.19.44-.38.63-.69.63h-44.8c-.44,0-.63.19-.69.63,0,7.24,6.29,13.15,15.35,13.15,5.73,0,10.26-1.32,12.52-5.79.19-.44.5-.63,1.01-.63h15.1c.57,0,.82.19.63.63-1.45,6.29-4.84,11.2-10.19,14.66-5.35,3.52-11.7,5.28-19.06,5.28-18.87,0-31.46-13.72-31.46-33.85s12.58-33.91,31.46-33.91ZM309.98,76.68h29.26c.31,0,.5-.19.5-.5,0-5.16-4.28-12.21-14.97-12.21s-15.35,7.11-15.35,12.21c0,.32.19.5.57.5Z"/>
    <path class="cls-1" d="M368.04,51.71c0-.44.19-.63.63-.63h12.27c.69,0,1.07.19,1.13.63l1.45,3.96c.19.5.88.82,1.38.13,2.39-3.08,9.82-6.04,15.35-6.04,20.32,0,27.18,14.47,27.18,30.7v35.17c0,.44-.19.63-.63.63h-14.16c-.44,0-.63-.19-.69-.63v-35.17c0-7.74-4.03-16.48-14.28-16.48s-14.16,7.42-14.16,15.16v36.49c0,.44-.25.63-.69.63h-14.16c-.44,0-.63-.19-.63-.63v-63.92Z"/>
    <path class="cls-1" d="M433.44,51.71c0-.44.19-.63.63-.63h10.57c.44,0,.63-.25.63-.69v-17.36c0-.44.19-.63.63-.63h14.22c.44,0,.63.19.63.63v17.36c0,.44.19.63.63.69h13.15c.44,0,.63.19.63.63v12.27c0,.44-.19.63-.63.63h-13.15c-.44,0-.63.19-.63.63v32.72c0,2.58,2.08,4.15,4.66,4.15h9.12c.44,0,.63.19.63.63v12.9c0,.44-.19.63-.63.63h-10.07c-13.59,0-19.19-5.28-19.19-18.18v-32.84c0-.44-.19-.63-.63-.63h-10.57c-.44,0-.63-.19-.63-.63v-12.27Z"/>
    <path class="cls-1" d="M483.6,51.71c-.19-.44.06-.63.63-.63h15.1c.31,0,.57.19.75.63l15.6,49.89c.31.69.94.69,1.26,0l15.6-49.89c.19-.44.44-.63.75-.63h14.97c.57,0,.82.19.63.63l-24.73,73.8c-3.77,11.01-9.88,16.29-20.89,16.29h-18.94c-.44,0-.63-.25-.63-.69v-12.08c0-.44.19-.63.63-.63h15.73c4.09,0,5.91-1.45,6.42-3.9.13-.57.19-1.07.19-1.64,0-.75-.13-1.57-.31-2.45-.31-1.45-.75-3.08-1.26-4.78l-21.52-63.92Z"/>
    <path class="cls-1" d="M596.81,24.28c27.12,0,40.83,19.44,40.83,46.62s-13.72,46.62-40.83,46.62-40.83-19.13-40.83-46.62,13.65-46.62,40.83-46.62ZM578.37,94.74c4.22,5.72,10.32,8.62,18.43,8.62s14.22-2.89,18.43-8.62c4.21-5.73,6.29-13.72,6.29-23.85s-2.08-18.12-6.29-23.85c-4.22-5.72-10.38-8.62-18.43-8.62s-14.22,2.89-18.43,8.62c-4.22,5.73-6.29,13.72-6.29,23.85s2.08,18.12,6.29,23.85Z"/>
    <path class="cls-1" d="M650.34,26.16c0-.44.19-.63.63-.63h19.19c.25,0,.5.19.82.63l35.3,67.82c.31.82,1.26.69,1.26,0V26.16c0-.44.25-.63.69-.63h14.16c.44,0,.63.19.63.63v89.47c0,.44-.19.63-.63.63h-19.19c-.44,0-.75-.19-.94-.63l-35.17-67.76c-.31-.82-1.26-.75-1.26,0v67.76c0,.44-.19.63-.63.63h-14.34c-.31,0-.5-.19-.5-.63V26.16Z"/>
    <path class="cls-1" d="M739.24,26.16c0-.44.19-.63.63-.63h63.04c.44,0,.63.19.63.63v12.9c0,.44-.19.63-.63.63h-47.56c-.44,0-.63.25-.63.69v22.15c0,.44.19.63.63.63h41.08c.44,0,.63.19.69.63v12.9c0,.44-.25.63-.69.69h-41.08c-.44,0-.63.19-.63.63v23.4c0,.44.19.63.63.69h47.56c.44,0,.63.19.63.63v12.9c0,.44-.19.63-.63.63h-63.04c-.44,0-.63-.19-.63-.63V26.16Z"/>
  </g>
</svg>