<?xml version="1.0" encoding="iso-8859-1"?>
<svg fill="#000000" height="800px" width="800px" version="1.1" id="Layer_1" xmlns="http://www.w3.org/2000/svg" xmlns:xlink="http://www.w3.org/1999/xlink" 
	 viewBox="0 0 512 512" xml:space="preserve">
<g>
	<g>
		<path d="M371.637,252.062H298.01v-73.627c0-15.865-12.908-28.773-28.773-28.773h-27.788c-15.864,0-28.772,12.908-28.772,28.773
			v73.627h-72.314c-15.865,0-28.773,12.908-28.773,28.773v27.787c0,15.865,12.908,28.773,28.773,28.773h72.314v72.314
			c0,15.865,12.908,28.773,28.773,28.773h27.788c15.865,0,28.773-12.908,28.773-28.773v-72.314h73.627
			c15.865,0,28.773-12.908,28.773-28.773v-27.787C400.41,264.969,387.503,252.062,371.637,252.062z M374.155,308.622h-0.001
			c0,1.388-1.129,2.517-2.517,2.517h-86.755c-7.249,0-13.128,5.879-13.128,13.128v85.442c0,1.388-1.129,2.517-2.517,2.517h-27.789
			c-1.388,0-2.517-1.129-2.517-2.517v-85.442c0-7.249-5.878-13.128-13.128-13.128h-85.442c-1.388,0-2.517-1.129-2.517-2.517v-27.787
			c0-1.388,1.129-2.517,2.517-2.517h85.444c7.251,0,13.128-5.879,13.128-13.128v-86.755c0-1.388,1.129-2.517,2.517-2.517h27.789
			c1.388,0,2.517,1.129,2.517,2.517v86.755c0,7.249,5.879,13.128,13.128,13.128h86.755c1.388,0,2.517,1.129,2.517,2.517V308.622z"/>
	</g>
</g>
<g>
	<g>
		<path d="M498.872,0H13.128C5.878,0,0,5.879,0,13.128v485.744C0,506.121,5.878,512,13.128,512h485.744
			c7.249,0,13.128-5.879,13.128-13.128V13.128C512,5.879,506.121,0,498.872,0z M350.523,26.256h53.826v52.513h-53.826V26.256z
			 M269.128,26.256h55.138v52.513h-55.138V26.256z M187.733,26.256h55.138v52.513h-55.138V26.256z M107.651,26.256h53.826v52.513
			h-53.826V26.256z M26.256,26.256h55.138v52.513H26.256V26.256z M485.744,485.744H26.256V105.026h459.487V485.744z M485.744,78.769
			h-55.138V26.256h55.138V78.769z"/>
	</g>
</g>
</svg>