<?xml version="1.0" encoding="utf-8"?>
<!-- Generator: Adobe Illustrator 28.0.0, SVG Export Plug-In . SVG Version: 6.00 Build 0)  -->
<svg version="1.1" id="Layer_1" xmlns="http://www.w3.org/2000/svg" xmlns:xlink="http://www.w3.org/1999/xlink" x="0px" y="0px"
	 viewBox="0 0 1000 218.1" style="enable-background:new 0 0 1000 218.1;" xml:space="preserve">
<g>
	<g>
		<path d="M166.9,72.7l25.3,0.1c14.3,0,25.9-11.6,25.9-25.9v-21c0-14.3-11.6-25.9-25.9-25.9h-21c-14.3,0-25.9,11.6-25.9,25.9v25.2
			c0,11.9-9.7,21.5-21.5,21.5v0H89.9c-9.5,0-17.3,7.7-17.3,17.3v33.9c0,11.9-9.7,21.5-21.5,21.5v0H8.6c-4.8,0-8.6,3.9-8.6,8.6v55.5
			c0,4.8,3.9,8.6,8.6,8.6h55.5c4.8,0,8.6-3.9,8.6-8.6v-42.5c0-11.9,9.7-21.5,21.5-21.5v0l29.6,0v0c11.9,0,21.5,9.7,21.5,21.5v51.2
			h72.7v-72.7h-51.2c-11.9,0-21.5-9.7-21.5-21.5V94.3C145.4,82.4,155.1,72.7,166.9,72.7z"/>
		<circle cx="36.4" cy="36.4" r="36.4"/>
	</g>
	<g>
		<rect x="506.4" y="24.3" width="19.9" height="169.5"/>
		<rect x="977.4" y="72.7" width="19.9" height="121.1"/>
		<path d="M610.1,70.5c-34.6,0-62.7,28.1-62.7,62.7c0,34.6,28.1,62.7,62.7,62.7s62.7-28.1,62.7-62.7
			C672.8,98.6,644.7,70.5,610.1,70.5z M610.1,178.8c-25.1,0-45.5-20.4-45.5-45.5c0-25.1,20.4-45.5,45.5-45.5s45.5,20.4,45.5,45.5
			C655.6,158.4,635.2,178.8,610.1,178.8z"/>
		<ellipse transform="matrix(0.9871 -0.1602 0.1602 0.9871 6.8587 158.6154)" cx="987.3" cy="36.8" rx="12.5" ry="12.5"/>
		<path d="M470.7,72.7L470.7,72.7L470.7,72.7c-10.3,0-18.7,8.4-18.7,18.7l0,0c-12-13.4-29.7-21.6-49.2-20.8
			c-32.5,1.3-58.9,27.7-60.2,60.1c-1.4,35.8,27.2,65.3,62.7,65.3c17.9,0,34.1-7.5,45.5-19.6v17.4h19.9v-86.6h0V91.4h0L470.7,72.7
			C470.7,72.7,470.7,72.7,470.7,72.7L470.7,72.7z M450.8,133.4c-0.1,25-20.5,45.4-45.5,45.4c-25.1,0-45.5-20.4-45.5-45.5
			s20.4-45.5,45.5-45.5c25.1,0,45.4,20.3,45.5,45.4V133.4z"/>
		<path d="M943.6,72.7L943.6,72.7L943.6,72.7c-10.3,0-18.7,8.4-18.7,18.7l0,0c-12-13.4-29.7-21.6-49.2-20.8
			c-32.5,1.3-58.9,27.7-60.2,60.1c-1.4,35.8,27.2,65.3,62.7,65.3c17.9,0,34.1-7.5,45.5-19.6v17.4h19.9v-86.6h0V91.4h0L943.6,72.7
			C943.6,72.7,943.6,72.7,943.6,72.7L943.6,72.7z M923.8,133.4c-0.1,25-20.5,45.4-45.5,45.4c-25.1,0-45.5-20.4-45.5-45.5
			s20.4-45.5,45.5-45.5c25.1,0,45.4,20.3,45.5,45.4V133.4z"/>
		<path d="M754.5,119.2l45.6-46.5h-22.8l-42.5,43.3h-15c-1.3,0-2.3-1-2.3-2.3V24.3h-19.9v169.5h19.9v-57.7c0-1.3,1-2.3,2.3-2.3h15.3
			h5.1l0.1-0.1l0,0.1l45.7,60.1h22.8l-54.5-71.5C753.6,121.3,753.7,120,754.5,119.2z"/>
	</g>
</g>
</svg>
