<?xml version="1.0" encoding="UTF-8"?>
<!-- Generator: Adobe Illustrator 28.1.0, SVG Export Plug-In . SVG Version: 6.00 Build 0)  -->
<svg version="1.1" id="Ebene_1" xmlns="http://www.w3.org/2000/svg" xmlns:xlink="http://www.w3.org/1999/xlink" x="0px" y="0px" viewBox="0 0 240 52" style="enable-background:new 0 0 240 52;" xml:space="preserve">
<style type="text/css">
	.st0{fill:#CC1E45;}
	.st1{fill:#FFFFFF;}
	.st2{fill:#231F20;}
	.st3{fill:none;stroke:#CC1E45;stroke-width:0.35;stroke-linecap:round;stroke-linejoin:round;}
	.st4{fill:none;stroke:#CC1E45;stroke-width:0.35;stroke-linejoin:round;}
</style>
<g>
	<rect x="100.2" y="32.7" class="st0" width="106" height="14.1"/>
	<path class="st1" d="M107.1,39.6h-2.2V36h-1.6v8.4h1.6v-3.6h2.2v3.6h1.6V36h-1.6V39.6z"/>
	<path class="st1" d="M114.1,41c0,1-0.6,1.9-1.4,1.9c-0.8,0-1.4-0.8-1.4-1.9v-5h-1.6v5c0,1.9,1.2,3.4,2.7,3.4c1.5,0,2.7-1.5,2.7-3.4   v-5h-0.9C114.1,36,114.1,41,114.1,41z"/>
	<path class="st1" d="M116,37.1h1.6v7.3h1.6v-7.3h1.6V36H116L116,37.1L116,37.1z"/>
	<path class="st1" d="M128.3,39.9L128.3,39.9l-1-0.9l0,0.3c0,0.7-0.2,1.5-0.5,2.2l-0.9-1.5c0.7-0.4,1.1-1.2,1.1-2   c0-1.2-0.8-1.9-2-1.9c-0.9,0-1.7,1-1.7,2.1c0,0.4,0.1,0.9,0.4,1.3l0.3,0.5c-0.8,0.5-1.3,1.3-1.3,2.2c0,1.3,0.8,2.3,1.8,2.3   c0.6,0,1.3-0.2,1.8-0.6l0.4,0.6h1.9l-1.1-1.9C127.8,41.8,128.2,40.8,128.3,39.9 M124.7,37.7c0-0.4,0.3-0.8,0.6-0.8   c0.3,0,0.6,0.4,0.6,0.8c0,0.6-0.2,1.1-0.5,1.3l-0.5-0.9C124.7,38,124.7,37.9,124.7,37.7 M125.1,43.2c-0.6,0-1.1-0.7-1.1-1.4   c0-0.5,0.2-0.8,0.4-1l1.3,2.2C125.5,43.1,125.3,43.2,125.1,43.2"/>
	<path class="st1" d="M134.2,41.9l-2.3-5.9h-1.2v8.4h0.9v-4.7l1.9,4.7h0.8l1.8-4.7v4.7h1.6V36h-1.2L134.2,41.9L134.2,41.9z"/>
	<path class="st1" d="M141.9,36c-1.8,0-3.3,1.9-3.3,4.2s1.5,4.2,3.3,4.2c1.8,0,3.3-1.9,3.3-4.2C145.2,37.9,143.8,36,141.9,36    M144,41.1c0,0.5-0.1,1-0.4,1.3c-0.7,0.9-1.8,0.5-2.8-0.7c-0.6-0.7-0.9-1.7-0.9-2.4c0-0.5,0.1-0.9,0.4-1.3c0.3-0.3,0.6-0.5,1-0.5   c0.6,0,1.3,0.4,1.8,1.2C143.7,39.5,144,40.4,144,41.1"/>
	<path class="st1" d="M148.4,36h-2.2v8.4h2.2c1.8,0,3.3-1.9,3.3-4.2C151.7,37.9,150.2,36,148.4,36 M148.4,43.2h-0.6v-6.1h0.6   c1.1,0,1.6,1.5,1.6,3.1C150,41.6,149.7,43.3,148.4,43.2"/>
	<path class="st1" d="M152.6,44.4h3.8v-1.1h-2.2v-2.5h2.2v-1.1h-2.2v-2.5h2.2V36h-3.8V44.4L152.6,44.4z"/>
	<rect x="158.8" y="40.5" class="st1" width="3.1" height="1.8"/>
	<path class="st1" d="M166.2,38.9c-0.2-0.2-0.4-0.5-0.4-0.9c0-0.5,0.3-0.9,0.7-0.9c0.6,0,1,0.5,1.1,0.8l0.2,0.3l0.4-1.3l-0.1-0.1   c-0.5-0.5-1.2-0.8-2-0.8c-1.2,0-1.9,1.2-1.9,2.4c0,0.8,0.3,1.6,0.9,2l1.5,1.1c0.2,0.2,0.3,0.5,0.3,0.8c0,0.6-0.3,1-0.7,1   c-0.6,0-1.1-0.3-1.4-1l-0.2-0.3l-0.5,1.4l0.1,0.1c0.6,0.6,1.4,0.9,2.3,0.9c1,0,1.9-1.1,1.9-2.4c0-0.8-0.3-1.6-0.9-2L166.2,38.9   L166.2,38.9z"/>
	<path class="st1" d="M169.4,44.4h3.8v-1.1h-2.2v-2.5h2.2v-1.1h-2.2v-2.5h2.2V36h-3.8V44.4L169.4,44.4z"/>
	<rect x="174.3" y="36" class="st1" width="1.6" height="8.4"/>
	<path class="st1" d="M176.8,37.1h1.6v7.3h1.6v-7.3h1.6V36h-4.7L176.8,37.1L176.8,37.1z"/>
	<path class="st1" d="M184.4,38.3l1.1-0.5v6.5h1.6v-8.5l-2.6,1.2V38.3L184.4,38.3z"/>
	<path class="st1" d="M192.3,38.2c0-1.3-0.8-2.2-2-2.2s-2,0.9-2,2.2c0,0.7,0.2,1.3,0.6,1.7c-0.5,0.5-0.9,1.2-0.9,2.1   c0,1.4,0.9,2.5,2.2,2.5s2.2-1,2.2-2.5c0-0.8-0.3-1.6-0.8-2.1C192.1,39.4,192.3,38.8,192.3,38.2 M190.3,40.4c0.4,0,0.6,0.6,0.6,1.5   s-0.3,1.5-0.6,1.5s-0.6-0.6-0.6-1.5C189.7,41,190,40.4,190.3,40.4 M190.3,39.5c-0.3,0-0.4-0.4-0.4-1.3c0-0.8,0.2-1.2,0.4-1.2   s0.4,0.4,0.4,1.2C190.8,39,190.6,39.5,190.3,39.5"/>
	<path class="st1" d="M195.8,38.8c-0.1,0-0.3,0-0.4,0.1c0.1-0.9,0.4-1.9,1.1-1.9c0.2,0,0.4,0.1,0.6,0.3l0.4,0.4l-0.3-1.4l-0.1,0   c-0.1-0.1-0.4-0.1-0.6-0.1c-1.7,0-2.8,1.9-2.8,5c0,2.1,0.8,3.4,2.2,3.4c1.2,0,2.2-1.2,2.2-2.8C198,40.1,197,38.8,195.8,38.8    M195.8,43.4c-0.4,0-0.6-0.7-0.6-1.8c0-1.1,0.2-1.8,0.6-1.8c0.6,0,0.6,1.1,0.6,1.8C196.4,42.3,196.4,43.4,195.8,43.4"/>
	<path class="st1" d="M201.3,38.9l1.5-2.9H199v1.9h1.8l-1.4,2.7h1.1c0.6,0,1,0.6,1,1.3c0,0.7-0.4,1.5-1,1.5c-0.4,0-0.8-0.4-1-0.9   l-0.1-0.3l-0.6,1.2l0.1,0.1c0.5,0.5,1.2,0.8,1.9,0.8c1.2,0,2.2-1.2,2.2-2.8C202.9,40.4,202.2,39.3,201.3,38.9"/>
	<path class="st2" d="M228.8,21.1c3-0.8,5-2.6,5-4.8c0-2.9-3.8-5.2-8.6-5.2h-11.4v17.4h5.8V12.8h2.8c3.2,0,5.7,1.6,5.7,3.5   c0,1.7-2,3.1-4.7,3.4v2.6l5.8,6.1h6.6L228.8,21.1L228.8,21.1z"/>
	<path class="st2" d="M87.4,19.6c2.2-0.8,3.7-2.3,3.7-3.9c0-2.5-3.4-4.6-7.5-4.6H71.8v17.4H85c4.1,0,7.5-2.1,7.5-4.6   C92.6,21.9,90.4,20.2,87.4,19.6 M81.8,26.7h-4.3V12.8h2.8c2.7,0,5,1.4,5,3.1c0,1.5-1.8,2.7-4,3v1.8h0.5c2.7,0,5,1.4,5,3   S84.6,26.7,81.8,26.7"/>
	<rect x="153.6" y="11.1" class="st2" width="5.7" height="17.4"/>
	<path class="st2" d="M164.8,11.1v2.2h7.1v15.3h5.7V13.2h7.2v-2.2C184.8,11.1,164.8,11.1,164.8,11.1z"/>
	<path class="st2" d="M190.4,11.1v17.4h15.7v-2.2h-10V13.2h10v-2.1l0,0l0,0L190.4,11.1L190.4,11.1z"/>
	<path class="st2" d="M129.2,11.1v17.4h15.7v-2.2h-10V13.2h10v-2.1l0,0l0,0L129.2,11.1L129.2,11.1z"/>
	<path class="st2" d="M115.2,21.1c3-0.8,5-2.6,5-4.8c0-2.9-3.8-5.2-8.5-5.2h-11.4v17.4h5.8V12.8h2.8c3.2,0,5.7,1.6,5.7,3.5   c0,1.7-2,3.1-4.7,3.4v2.6l5.8,6.1h6.6C122.2,28.5,115.2,21.1,115.2,21.1z"/>
	<rect x="199.9" y="18.7" class="st0" width="6.2" height="2.2"/>
	<rect x="138.7" y="18.7" class="st0" width="6.2" height="2.2"/>
	<g>
		<path class="st3" d="M27.4,19.5h5"/>
		<path class="st3" d="M27.4,51.1L6.1,48.7"/>
		<path class="st3" d="M6.1,43.1V28.4"/>
		<path class="st3" d="M27.4,19.5h5"/>
		<path class="st3" d="M27.4,43h5"/>
		<path class="st3" d="M27.4,43L6.1,43.1"/>
		<path class="st3" d="M32.4,43l21.3,0.2"/>
		<path class="st3" d="M53.7,28.4v14.8"/>
		<path class="st3" d="M29.8,44.1v5.7"/>
		<path class="st3" d="M32.6,49.8v-4.2l0.9-1.1h1.9l0.6,0.7v4.4"/>
		<path class="st3" d="M32.4,51.1l21.1-2.4"/>
		<path class="st3" d="M38.6,49.2v-3.9l0.6-0.9H41l0.4,0.6v3.9"/>
		<path class="st3" d="M43.1,48.9v-3.5l0.6-0.9h1.5l0.4,0.6v3.5"/>
		<path class="st3" d="M47.2,48.3v-3.1l0.4-0.7h1.5l0.4,0.6v3.1"/>
		<path class="st3" d="M50.7,47.9v-2.8l0.6-0.7h1.3l0.2,0.4v3"/>
		<path class="st3" d="M27.8,49.8v-4.2L27,44.4H25l-0.6,0.7v4.4"/>
		<path class="st3" d="M23.3,49.4v-4.1l-0.9-0.9h-1.7L20.3,45v4.2"/>
		<path class="st3" d="M19.2,49v-3.7l-0.6-0.9h-1.7L16.4,45v3.7"/>
		<path class="st3" d="M12.5,48.3v-3.1l-0.4-0.7h-1.5L10.4,45v3.1"/>
		<path class="st3" d="M9.7,47.9v-2.8l-0.6-0.7H7.8l-0.2,0.4v3"/>
		<path class="st3" d="M15.8,48.7v-3.5l-0.4-0.7h-1.7L13.4,45v3.3"/>
		<path class="st3" d="M27.4,51.1h5"/>
		<rect x="28.7" y="22.5" class="st3" width="2.2" height="3"/>
		<rect x="28.7" y="32.8" class="st3" width="2.2" height="3.9"/>
		<rect x="28.7" y="27.5" class="st3" width="2.2" height="3.9"/>
		<rect x="28.7" y="38.9" class="st3" width="2.2" height="3.5"/>
		<rect x="29.3" y="38.3" class="st3" width="1.1" height="0.6"/>
		<path class="st3" d="M27.4,20.6h5"/>
		<path class="st3" d="M32.4,20.6l21.5,7"/>
		<path class="st3" d="M28,21.5h3.7"/>
		<path class="st3" d="M31.7,21.5l22.2,6.8"/>
		<path class="st4" d="M15.1,26.3L14,26.5v2.4l1.1-0.2V26.3z"/>
		<path class="st4" d="M12.3,27.1l-1.1,0.4v2.2l1.1-0.2V27.1L12.3,27.1z"/>
		<path class="st4" d="M11,27.5L10,27.8V30l1.1-0.2V27.5L11,27.5z"/>
		<path class="st4" d="M9.1,28L8,28.4v2.2l1.1-0.4V28z"/>
		<path class="st4" d="M7.8,28.4l-1.1,0.4V31l1.1-0.4C7.8,30.6,7.8,28.4,7.8,28.4z"/>
		<path class="st4" d="M26.3,27.6L24.6,28v3.5l1.7-0.4V27.6z"/>
		<path class="st4" d="M21.6,28.7l-1.5,0.4v3.1l1.5-0.2V28.7L21.6,28.7z"/>
		<path class="st4" d="M19.6,29.3l-1.5,0.2v3.1l1.5-0.2C19.6,32.4,19.6,29.3,19.6,29.3z"/>
		<path class="st4" d="M16.4,30l-1.1,0.2v3l1.1-0.2V30z"/>
		<path class="st4" d="M15.1,30.4L14,30.6v2.8l1.1-0.2V30.4z"/>
		<path class="st4" d="M12.3,31l-1.1,0.4v2.6l1.1-0.2V31L12.3,31z"/>
		<path class="st4" d="M11,31.3L10,31.7v2.4l1.1-0.2C11,33.9,11,31.3,11,31.3z"/>
		<path class="st4" d="M9.1,31.9L8,32.1v2.4l1.1-0.2V31.9z"/>
		<path class="st4" d="M7.8,32.2l-1.1,0.2v2.2l1.1-0.2C7.8,34.5,7.8,32.2,7.8,32.2z"/>
		<path class="st4" d="M33.4,33.2l1.5,0.4v3.3h-1.5V33.2z"/>
		<path class="st4" d="M38,33.9l1.5,0.2v3.3L38,37.2C38,37.2,38,33.9,38,33.9z"/>
		<path class="st4" d="M40.1,34.3l1.3,0.2v3h-1.3V34.3L40.1,34.3z"/>
		<path class="st4" d="M43.3,34.8h1.1v3l-1.1-0.2C43.3,37.6,43.3,34.8,43.3,34.8z"/>
		<path class="st4" d="M44.6,35l1.1,0.2v2.6h-1.1V35z"/>
		<path class="st4" d="M47.4,35.4l1.1,0.2v2.6L47.4,38V35.4z"/>
		<path class="st4" d="M48.7,35.6l1.1,0.2v2.4h-1.1V35.6L48.7,35.6z"/>
		<path class="st4" d="M50.7,35.9l1.1,0.2v2.2h-1.1V35.9z"/>
		<path class="st4" d="M52,36.1l1.1,0.2v2.2L52,38.3V36.1z"/>
		<path class="st4" d="M26.3,33.2l-1.7,0.4v3.3h1.7V33.2z"/>
		<path class="st4" d="M21.6,33.9l-1.5,0.2v3.3h1.5C21.6,37.4,21.6,33.9,21.6,33.9z"/>
		<path class="st4" d="M19.6,34.3l-1.5,0.2v3h1.5L19.6,34.3L19.6,34.3z"/>
		<path class="st4" d="M16.4,34.8h-1.1v3l1.1-0.2C16.4,37.6,16.4,34.8,16.4,34.8z"/>
		<path class="st4" d="M15.1,35L14,35.2v2.6h1.1V35z"/>
		<path class="st4" d="M12.3,35.4l-1.1,0.2v2.6l1.1-0.2V35.4z"/>
		<path class="st4" d="M11,35.6L10,35.8v2.4H11V35.6L11,35.6z"/>
		<path class="st4" d="M9.1,35.9L8,36.1v2.2h1.1V35.9z"/>
		<path class="st4" d="M7.8,36.1l-1.1,0.2v2.2l1.1-0.2V36.1z"/>
		<path class="st4" d="M33.4,38.9l1.5,0.2v3.1l-1.5,0.2V38.9z"/>
		<rect x="38" y="39.3" class="st4" width="1.5" height="3"/>
		<rect x="40.1" y="39.4" class="st4" width="1.3" height="2.8"/>
		<rect x="43.3" y="39.6" class="st4" width="1.1" height="2.6"/>
		<path class="st4" d="M44.6,39.6l1.1,0.2v2.4h-1.1V39.6L44.6,39.6z"/>
		<rect x="47.4" y="40" class="st4" width="1.1" height="2.2"/>
		<path class="st4" d="M48.7,40l1.1,0.2v2h-1.1V40z"/>
		<rect x="50.7" y="40.2" class="st4" width="1.1" height="1.8"/>
		<path class="st4" d="M52,40.2l1.1,0.2V42H52V40.2z"/>
		<path class="st4" d="M26.3,38.9l-1.7,0.2v3.1l1.7,0.2V38.9z"/>
		<rect x="20.1" y="39.3" class="st4" width="1.5" height="3"/>
		<rect x="18.1" y="39.4" class="st4" width="1.5" height="2.8"/>
		<rect x="15.3" y="39.6" class="st4" width="1.1" height="2.6"/>
		<path class="st4" d="M15.1,39.6L14,39.8v2.4h1.1V39.6L15.1,39.6z"/>
		<rect x="11.2" y="40" class="st4" width="1.1" height="2.2"/>
		<path class="st4" d="M11,40L10,40.2v2H11C11,42.2,11,40,11,40z"/>
		<rect x="8" y="40.2" class="st4" width="1.1" height="1.8"/>
		<path class="st4" d="M7.8,40.2l-1.1,0.2V42h1.1V40.2z"/>
		<path class="st3" d="M6.3,48.5H4.1"/>
		<path class="st3" d="M53,26.7v-2.2l-1.3-1.3l-1.3,1.1v1.5"/>
		<path class="st3" d="M49.2,25v-2.2l-1.5-1.3l-1.3,1.3v1.5"/>
		<path class="st3" d="M44.9,23.8v-2.4l-1.5-1.3l-1.5,1.3v1.5"/>
		<path class="st3" d="M40.8,22.3v-2.2L39,18.6l-1.5,1.5v1.3"/>
		<path class="st3" d="M36.2,20.8v-2.2l-1.7-1.5l-1.7,1.5v1.1"/>
		<path class="st3" d="M32.4,19.5l0.4,0.2"/>
		<path class="st3" d="M32.8,19.7l21.1,7.2"/>
		<path class="st3" d="M50.5,24.3l-1.3,0.4"/>
		<path class="st3" d="M51.8,23.2l-2.6,0.9"/>
		<path class="st3" d="M46.4,22.8l-1.5,0.6"/>
		<path class="st3" d="M47.7,21.5L44.9,23"/>
		<path class="st3" d="M41.8,21.4l-1.1,0.6"/>
		<path class="st3" d="M43.3,20.1l-2.6,1.5"/>
		<path class="st3" d="M39,18.6l-2.8,1.8"/>
		<path class="st3" d="M37.5,20.1l-1.3,0.7"/>
		<path class="st3" d="M32.8,18.6l-0.4,0.9"/>
		<path class="st3" d="M53.9,27.6v-0.7"/>
		<path class="st3" d="M53.9,28.4v-0.7"/>
		<path class="st3" d="M27.2,20.6l-21.3,7"/>
		<path class="st3" d="M28,21.5L5.9,28.4"/>
		<path class="st4" d="M26.3,23l-1.7,0.4v2.8l1.7-0.6V23z"/>
		<path class="st4" d="M21.6,24.3l-1.5,0.4v2.6l1.5-0.4V24.3z"/>
		<path class="st4" d="M19.6,24.9l-1.5,0.6v2.4l1.5-0.4L19.6,24.9L19.6,24.9z"/>
		<path class="st4" d="M16.4,26l-1.1,0.2v2.4l1.1-0.2V26z"/>
		<path class="st3" d="M6.7,26.7v-2.2L8,23.2l1.3,1.1v1.5"/>
		<path class="st3" d="M10.6,25v-2.2l1.3-1.3l1.3,1.3v1.5"/>
		<path class="st3" d="M14.9,23.8v-2.4l1.5-1.3l1.3,1.3v1.5"/>
		<path class="st3" d="M19,22.3v-2.2l1.5-1.5l1.5,1.5v1.3"/>
		<path class="st3" d="M23.5,20.8v-2.2l1.7-1.5l1.5,1.5v1.1"/>
		<path class="st3" d="M27.4,19.5l-0.6,0.2"/>
		<path class="st3" d="M26.8,19.7L5.9,26.9"/>
		<path class="st3" d="M9.3,24.3l1.3,0.4"/>
		<path class="st3" d="M8,23.2l2.6,0.9"/>
		<path class="st3" d="M13.2,22.8l1.7,0.6"/>
		<path class="st3" d="M11.9,21.5l3,1.5"/>
		<path class="st3" d="M17.7,21.4l1.3,0.6"/>
		<path class="st3" d="M16.4,20.1l2.6,1.5"/>
		<path class="st3" d="M20.5,18.6l3,1.8"/>
		<path class="st3" d="M22,20.1l1.5,0.7"/>
		<path class="st3" d="M26.8,18.6l0.6,0.9"/>
		<path class="st3" d="M5.9,27.6v-0.7"/>
		<path class="st3" d="M5.9,28.4v-0.7"/>
		<path class="st3" d="M6.3,43.1v5.5"/>
		<path class="st3" d="M53.5,43.1v5.5"/>
		<path class="st3" d="M13.2,38v1.1"/>
		<path class="st3" d="M13.2,39.1l6.9-0.4"/>
		<path class="st3" d="M20.1,38.7v-1.3"/>
		<path class="st3" d="M20.1,37.4L13.2,38"/>
		<path class="st3" d="M20.1,37.4H22"/>
		<path class="st3" d="M20.1,38.7h0.6"/>
		<path class="st4" d="M44.6,26.3l1.1,0.2v2.4l-1.1-0.2V26.3z"/>
		<path class="st4" d="M47.4,27.1l1.1,0.4v2.2l-1.1-0.2V27.1L47.4,27.1z"/>
		<path class="st4" d="M48.7,27.5l1.1,0.4V30l-1.1-0.2V27.5L48.7,27.5z"/>
		<path class="st4" d="M50.7,28l1.1,0.4v2.2l-1.1-0.4V28z"/>
		<path class="st4" d="M52,28.4l1.1,0.4V31L52,30.6C52,30.6,52,28.4,52,28.4z"/>
		<path class="st4" d="M33.4,27.6l1.5,0.4v3.5l-1.5-0.4V27.6z"/>
		<path class="st4" d="M38,28.7l1.5,0.4v3.1L38,32V28.7L38,28.7z"/>
		<path class="st4" d="M40.1,29.3l1.3,0.2v3.1l-1.3-0.2V29.3z"/>
		<path class="st4" d="M43.3,30l1.1,0.2v3L43.3,33V30z"/>
		<path class="st4" d="M44.6,30.4l1.1,0.2v2.8l-1.1-0.2V30.4z"/>
		<path class="st4" d="M47.4,31l1.1,0.4v2.6l-1.1-0.2V31L47.4,31z"/>
		<path class="st4" d="M48.7,31.3l1.1,0.4v2.4l-1.1-0.2V31.3z"/>
		<path class="st4" d="M50.7,31.9l1.1,0.2v2.4l-1.1-0.2V31.9z"/>
		<path class="st4" d="M52,32.2l1.1,0.2v2.2L52,34.5C52,34.5,52,32.2,52,32.2z"/>
		<path class="st4" d="M33.4,23l1.5,0.4v2.8l-1.5-0.6V23z"/>
		<path class="st4" d="M38,24.3l1.5,0.4v2.6L38,26.9V24.3z"/>
		<path class="st4" d="M40.1,24.9l1.3,0.6v2.4l-1.3-0.4V24.9L40.1,24.9z"/>
		<path class="st4" d="M43.3,26l1.1,0.2v2.4l-1.1-0.2V26z"/>
		<path class="st3" d="M64.2,48V17.9"/>
		<path class="st3" d="M58.9,48.3V16.9"/>
		<path class="st3" d="M54.8,48.1V17.7"/>
		<path class="st3" d="M53.7,48.1l4.2,0.4"/>
		<path class="st3" d="M57.9,48.5l8.8-0.6"/>
		<path class="st3" d="M60.1,47.5v-4"/>
		<path class="st3" d="M60.1,43.5h2.2"/>
		<path class="st3" d="M62.3,43.5v3.6"/>
		<rect x="60.8" y="42.8" class="st3" width="0.9" height="0.7"/>
		<rect x="55.8" y="40.2" class="st3" width="1.3" height="1.7"/>
		<rect x="55.8" y="43.1" class="st3" width="1.3" height="2.2"/>
		<rect x="60.6" y="35" class="st3" width="1.3" height="2.2"/>
		<path class="st3" d="M58.9,37.6h5.4"/>
		<path class="st3" d="M58.9,37.6h-4.1"/>
		<path class="st3" d="M58.9,22.6l5.4,0.4"/>
		<path class="st3" d="M58.9,22.6L54.8,23"/>
		<path class="st3" d="M58.9,27.6l5.4,0.2"/>
		<path class="st3" d="M58.9,27.6l-4.1,0.2"/>
		<path class="st3" d="M58.9,32.8l5.4,0.2"/>
		<path class="st3" d="M58.9,32.8h-4.1"/>
		<rect x="60.6" y="29.8" class="st3" width="1.3" height="2.2"/>
		<rect x="60.6" y="24.9" class="st3" width="1.3" height="2.4"/>
		<rect x="60.6" y="19.9" class="st3" width="1.3" height="2.4"/>
		<path class="st3" d="M58.9,16.9l5.4,0.9"/>
		<path class="st3" d="M58.9,16.9l-4.1,0.7"/>
		<path class="st3" d="M59.1,16.9V6.6"/>
		<path class="st3" d="M62.3,17.5V6.6"/>
		<path class="st3" d="M63.6,17.3V7.7"/>
		<path class="st3" d="M55.4,17.1V7.7"/>
		<path class="st3" d="M64.2,17.9l-0.6-0.7"/>
		<path class="st3" d="M63.6,17.1l-1.3,0.4"/>
		<path class="st3" d="M58,17.1l0.4-0.6"/>
		<path class="st3" d="M58.4,16.6l1.5,0.6"/>
		<path class="st3" d="M58.4,16.6v-10"/>
		<path class="st3" d="M62.9,17.3V6.8"/>
		<path class="st3" d="M58,48.3V17.1"/>
		<path class="st3" d="M63.4,17.9V48"/>
		<path class="st3" d="M54.8,17.7l0.6-0.6"/>
		<path class="st3" d="M55.4,17.1l0.6,0.4"/>
		<path class="st3" d="M58.4,6.6h0.6"/>
		<path class="st3" d="M62.3,6.6L63,6.8"/>
		<path class="st3" d="M62.9,6.8l0.6,0.9"/>
		<path class="st3" d="M62.3,6.6h-3.2"/>
		<path class="st3" d="M58.4,6.6l-3,1.1"/>
		<path class="st3" d="M59.2,0.9c-4.2,1.5-5.4,3.7-3.7,6.8"/>
		<path class="st3" d="M59.2,0.9c-0.8,1.2-1,3.1-0.7,5.6"/>
		<path class="st3" d="M59.2,0.9c3.4,0.3,4.6,2.3,3.7,5.8"/>
		<path class="st3" d="M59.2,0.9c4.1,0.4,5.6,2.6,4.4,6.5"/>
		<path class="st4" d="M61.7,14.5c0-0.6-0.4-1.1-0.9-1.1c-0.5,0-0.9,0.5-0.9,1.1c0,0.6,0.4,1.1,0.9,1.1    C61.3,15.6,61.7,15.1,61.7,14.5"/>
		<path class="st3" d="M59.1,11.8h3.2"/>
		<path class="st3" d="M58.4,11.8l-3,0.7"/>
		<rect x="60" y="8.4" class="st3" width="1.3" height="2.8"/>
		<path class="st3" d="M55.4,8.6l3-1.1"/>
		<path class="st3" d="M59.1,7.5h3.2"/>
		<path class="st3" d="M62.9,7.7l0.6,0.6"/>
		<rect x="55.8" y="35" class="st3" width="1.3" height="2.2"/>
		<rect x="55.8" y="29.8" class="st3" width="1.3" height="2.2"/>
		<rect x="55.8" y="25.2" class="st4" width="1.3" height="2.2"/>
		<path class="st4" d="M55.8,20.1h1.3v2.2l-1.3,0.2C55.8,22.5,55.8,20.1,55.8,20.1z"/>
		<path class="st3" d="M57.3,9.2v2"/>
		<path class="st3" d="M57.3,13v3"/>
		<path class="st3" d="M54.8,23.9l-1.9,0.4"/>
		<path class="st3" d="M55.4,17.1v-3.7"/>
		<path class="st3" d="M51.8,23.2v-8.7"/>
		<path class="st3" d="M54.5,23.4h0.2"/>
		<path class="st3" d="M54.5,23.4v-10"/>
		<path class="st3" d="M54.5,13.4h0.9"/>
		<path class="st3" d="M55.4,13.4L55.4,13.4"/>
		<path class="st3" d="M54.5,13.4l-2.8,1.1"/>
		<path class="st3" d="M55.5,7.8c-4.2,1.5-5.4,3.7-3.7,6.8"/>
		<path class="st3" d="M55.5,7.8c-0.8,1.2-1,3.1-0.7,5.6"/>
		<path class="st3" d="M54.5,18.6l-2.8,0.7"/>
		<path class="st3" d="M51.8,15.5l2.8-1.1"/>
		<path class="st3" d="M55.4,14.3L55.4,14.3"/>
		<path class="st3" d="M53.7,16v2"/>
		<path class="st3" d="M53.7,19.9v3"/>
	</g>
</g>
</svg>