<?xml version="1.0" encoding="UTF-8"?>
<!-- Generator: Adobe Illustrator 27.4.1, SVG Export Plug-In . SVG Version: 6.00 Build 0)  -->
<svg version="1.1" id="Livello_1" xmlns="http://www.w3.org/2000/svg" xmlns:xlink="http://www.w3.org/1999/xlink" x="0px" y="0px" viewBox="0 0 183 78" style="enable-background:new 0 0 183 78;" xml:space="preserve">
<g id="Resolution">
	<g id="HOMEPAGE-MENU-V2-1680" transform="translate(-26.000000, -8.000000)">
		<g id="borsalino_black_web" transform="translate(26.000000, 8.000000)">
			<path id="Path" d="M117.5,18c-0.8,0-1.5,0.7-1.5,1.5s0.7,1.5,1.5,1.5s1.5-0.7,1.5-1.5S118.4,18,117.5,18"/>
			<g id="Group">
				<path id="Shape" d="M177.3,10.3c-7.3,0-11.9,9.7-18.5,10.4c-2.6,0.2-3.9-0.6-4.4-1.3c0.1-0.5,0.2-1.1,0.2-1.6      c0-0.9,0-1.9-0.6-2.7c-0.6-0.8-1.6-1-2.6-0.8c-2.8,0.8-5.1,3-6.9,5.2c0,0,0,0-0.1,0.1c-1.5,1.8-2.8,4-3.1,6.4      c-1,1.3-2.3,2.9-2.8,3.8c-0.5,0.8-1.3,1.7-1.9,2.4c-0.4,0.5-1.8,2.1-2.5,1c-0.3-0.5,0.1-1.3,0.4-1.8c1-1.7,1.6-2.9,2.6-4.8      c0.9-1.5,2.7-5,2.3-6.7c-0.4-1.6-2.2-2.3-3.7-1.6c-0.6,0.2-1.5,0.9-1.9,1.3c-1.2,1.1-2.2,2.3-3.1,3.6c-0.6,0.9-2.2,3-2.3,3.2      c0.1-0.2,0.1-0.3,0.2-0.5c0.1-0.2,0.9-2.2,0.8-3.2c-0.1-0.9-0.8-1.7-1.6-1.9c-0.9-0.2-1.7,0.2-2.1,0.6c-0.4,0.4-0.9,0.9-1.3,1.4      c-1.4,1.7-2.7,3.6-4,5.5c-0.6,1-1.3,1.9-1.9,2.9c-1,1.4-1.9,2.7-2.9,4c-0.1,0.1-0.1,0.1-0.2,0.2l0,0c-0.1,0.1-0.2,0.2-0.3,0.4      c-0.9,1.2-1.8,2.4-2.8,3.5c-0.3,0.3-0.5,0.6-1,0.9c-0.4,0.2-0.9,0-1-0.6c-0.1-0.4,0.1-1.2,0.3-2.1c0.4-1.3,0.5-1.6,1.2-2.9      c0.6-1.3,1.2-2.4,1.8-3.7c0.9-1.7,3.3-6.5,3.3-6.5l-4.1,1.1c0,0-1.6,2.9-2.3,3.9c-0.4,0.6-2.4,3.6-3.7,5.3l0,0c0,0,0,0,0,0.1      c-0.2,0.4-0.5,0.8-0.6,1c-1,1.4-2.1,2.8-3.1,4.2l0,0c-0.3,0.4-0.6,0.9-1.1,1.3c-0.4,0.5-0.9,1-1.4,1.4c-0.4,0.4-0.9,0.5-1.3,0.5      s-0.9-0.2-1.1-0.9c-0.1-0.4,0-0.8,0-1.2c0.1-0.9,0.4-1.7,0.8-2.6c0.5-1.3,4.7-10.7,4.7-10.8c0.3-0.8,1.5-1.7,2.2-2.3      c4.9-4.1,9.5-8.6,13-14.2c1-1.6,1.8-3.2,2.6-5c0.5-1.5,1.1-3.2,0.5-4.8c-0.9-2.6-4-1.1-5.5,0.2c-3,2.6-5.3,6-7.3,9.5      c-0.8,1.3-3.9,6.9-4.6,8.4c-1.2,2.3-4.1,8-4.2,8.2c-0.9,1.6-2.7,4.6-3.6,6.2c-0.3,0.5-2.4,3.8-3.9,5.9c-0.2,0.2-0.3,0.5-0.5,0.8      c-0.8,1.2-1.6,2.3-2.4,3.5c-0.4,0.5-0.9,1.1-1.2,1.5c-0.1,0.1-0.4,0.4-0.6,0.5c-0.3,0.2-0.8,0-0.9-0.3c-0.1-0.3,0.1-1.1,1-3.2      c0.5-1.4,6.2-12.1,6.2-12.1l-4.1,1.1l-1.2,2.3c0,0,0-0.1-0.1-0.3c-0.2-0.3-0.3-0.5-0.6-0.8c-0.6-0.5-1.5-0.5-2.3-0.4      c-1.1,0.2-2.7,1-4,1.9c-1.9,1.5-3.8,3.8-4.7,5.6c-0.3,0.5-0.6,1.2-0.9,1.8c-0.9,1.2-2.4,3-2.5,3.2c-0.4,0.5-1,1.1-1,1.1      c0.1-0.1,0.1-0.4,0.1-0.5c0.2-1.2,0.1-2.4-0.1-3.5c-0.2-1-0.5-1.9-1-2.9c-0.3-0.6-0.6-1.3-1-1.9c-0.2-0.5-0.2-1,0.1-1.5      c0.3-0.4,0.6-0.9,0.8-1.2c0.3-0.5,0.5-1.2-0.1-1.7c-1.1-0.8-2.5,0.6-2.6,1.7c-0.1,0.5,0.1,1.1,0.2,1.5c-1,1.6-1.9,3.1-2.9,4.8      c-0.9,1.4-1.7,2.8-2.6,4.1c-0.8,1.2-1.5,2.4-2.3,3.6c-0.5,0.8-1.1,1.4-1.6,2.2c-0.4,0.6-0.9,1.2-1.3,1.7c0,0.1-0.1,0.1-0.1,0.1      s0,0-0.1,0.1c-0.3,0.3-0.6,0.8-1.1,1.2c-0.5,0.5-1,1-1.6,1.4c-0.3,0.2-0.6,0.3-1,0.3c-0.5,0-0.9-0.4-0.5-1.1      c0.4-1,4.6-8.5,5.4-10.3c0.6-1.5,0.5-3.3-1.2-4c-1.2-0.4-2.2-0.6-3.6-1c-0.2,0,0-0.2,0-0.2c0.1,0,0.2-0.1,0.3-0.2      c0.5-0.4,0.8-1,0.6-1.6c-0.1-0.8-0.6-1.2-1.3-1.4c-0.6-0.1-1.3,0.1-1.7,0.6c-0.5,0.6-0.5,1.5-0.3,2.2c0.2,0.5,0.5,1,1,1.3      c0.2,0.1,0.2,0.2,0.1,0.4c-0.3,0.5-2.9,5.1-4.3,7.2c0-0.3,0.1-0.6,0.1-1c0-0.9,0-1.9-0.6-2.7c-0.6-0.8-1.8-1-2.7-0.8      c-2.8,0.8-5.6,3.8-6.8,5.2c-1.4,1.7-2.7,4-3.1,6.4l-2.6,4.3l0.8,0.2l1.6-2.7c0,0.1,0,0.1,0,0.2c0.1,1.4,0.5,3,1.8,3.6      c1.5,0.8,2.9,0,4.3-1.1c1.3-1,2.4-2.3,3.3-3.5c0.5-0.6,1-1.4,1.4-2.1c0.2-0.3,0.4-0.8,0.6-1.1c0.3-0.5,1-2.1,1.2-2.5      c0.1-0.2,0.1-0.2,0.1-0.4c0.9-0.5,1.3-1.5,1.8-2.4c0.6-1.1,3.6-5.9,3.7-6.2c0.1-0.2,0.5-0.9,0.9-0.8c1.1,0.4,1.9,1.2,1.2,2.6      c-0.1,0.3-4.1,7.7-4.6,9.4c-0.2,0.9-0.4,1.8-0.1,2.6c0.3,0.9,1.3,1.4,2.2,1.5c0.9,0.1,1.6-0.2,2.4-0.8c0.9-0.5,1.5-1.2,2.2-1.9      c0.8-0.9,1.4-1.6,2.2-2.6l0,0c0.1-0.2,0.2-0.3,0.3-0.5c0.2-0.2,2.2-3.1,2.7-3.9c1-1.4,1.9-2.9,2.9-4.3c0.6-1,1.3-1.9,1.8-2.9      c0.3-0.4,0.5-1,0.9-1.4c0.1-0.1,0.1-0.2,0.2-0.4c0,0,0.1,0.2,0.1,0.3c0.4,1.9,0.5,3.8,0.3,5.8c-0.1,1-0.3,2.2-0.8,3.1      c-0.9,1.8-1.7,3.6-3.5,5c-1,0.8-1.5,0.9-1.9,0.9c-0.3,0-0.4-0.2-0.4-0.3l0,0c0.8-0.1,1.4-0.9,1.4-1.6c0-1-0.9-1.7-1.7-1.6      c-1,0.1-1.7,1.1-1.7,2.1c0.1,1.6,1.4,2.4,2.8,2.4c2.5,0,5-1.5,6.5-3.1c0.8-0.9,1.5-1.9,1.9-2.9c0-0.1,0.1-0.1,0.1-0.1      c0.1-0.1,1.7-1.7,2.7-2.9c-0.1,0.5-0.2,1-0.2,1.4c-0.1,2.6,0.6,3.3,1.6,3.9c1.1,0.5,2.2,0.1,3-0.4c1.3-0.8,2.3-1.6,3.2-2.8      c0.4-0.5,0.9-1.2,1.3-1.8c0.6-1,0.8-1.1,1-1.5c0,0-0.3,1.5,0.1,2.8c0.5,1.5,2.1,1.6,2.8,1.1c0.6-0.4,1.2-1,1.6-1.5      c0.4-0.6,0.9-1.2,1.3-1.7l0,0c0.4-0.5,0.9-1.2,1.2-1.7c1.2-1.7,2.4-3.6,3.6-5.3c0.4-0.6,0.9-1.3,1.3-2.1      c0.2-0.2,0.3-0.5,0.5-0.8c0.1,0.1,0.1,0.2,0,0.2c-0.1,0.3-0.3,0.6-0.4,1.1c-0.4,1-0.8,2.1-1,3.1c-0.2,0.8-0.3,1.6-0.3,2.4      c0,1,0.1,1.7,0.8,2.6c0.5,0.5,1.4,1,2.2,1c1-0.1,1.7-0.4,2.4-1.1c0.6-0.6,1.3-1.3,1.8-1.9c0.6-0.8,1.2-1.5,1.7-2.3l0,0      c0.1-0.1,0.1-0.1,0.2-0.2c0.5-0.6,5-7.3,5.3-7.7c-0.1,0.1-0.2,0.3-0.2,0.4c-0.1,0.3-0.3,0.6-0.4,1c-0.3,0.8-0.6,1.5-1.1,2.4      c-0.4,1-0.8,2.1-0.9,2.8c-0.1,0.9-0.2,1.7,0.1,2.5c0.2,0.5,0.9,1.1,1.4,1.3c0.6,0.2,1.3,0.1,1.9-0.2c0.9-0.4,1.5-1,2.2-1.7      c0.9-1.1,1.7-2.2,2.6-3.2c0.2-0.3,0.5-0.6,0.8-1.1c0.8-1,1.4-2.1,2.2-3c1-1.4,1.8-2.8,2.8-4.2c0.8-1.1,1.4-2.1,2.2-3      c0.5-0.6,1.1-1.4,1.6-2.1c0.2-0.3,0.4-0.5,0.8-0.6c0.3-0.1,0.6,0,0.8,0.3c0.1,0.4-0.1,1-0.2,1.3c-0.6,2.2-7.3,14.9-7.3,14.9      l4.1-1.1c0,0,2.7-5.3,2.9-5.7c1-1.9,2.4-4.3,3.5-5.9c0.6-1,1.3-1.9,2.2-3c2.3-2.8,3.5-3.2,4-3.5c0.4-0.1,1,0.2,1,0.6      c0,0.6-1.1,2.2-1.3,2.7c-1.2,1.9-1.6,2.8-2.6,4.8c-0.4,1-0.8,2.1-1.1,3.1c-0.3,1.7,0,5.1,2.7,4.3c1-0.2,1.6-1.1,2.3-1.7      c0.9-0.9,1.6-1.8,2.3-2.9c0.1-0.2,0.9-1.3,1.5-2.2c0,0.1,0,0.2,0,0.3c0.1,1.4,0.5,3,1.8,3.6c1.5,0.8,2.9,0,4.3-1.1      c1.3-1,2.4-2.3,3.3-3.5c0.5-0.6,1-1.4,1.4-2.1c0.2-0.3,0.4-0.8,0.6-1.1c0.2-0.4,0.9-1.8,1.1-2.4c0.9,0.4,2.4,0.8,4.7,0.4      C165.5,21.8,170,12,176.6,12c3.5,0,5.2,2.7,5.2,5.1c-0.3,10-13.5,16.7-34.9,22.7C106.8,50.9,6.5,76.2,5.6,76.5l16,1.5      c0.9-0.2,86.4-24.4,126.5-36c13.5-3.9,34-11.9,34.7-24.4C183.7,13.1,180.9,10.3,177.3,10.3 M108.4,17.9c1.1-2.1,2.1-4.1,3.1-6.2      c0.5-1.1,1.2-2.2,1.8-3.2c0.6-1,1.2-1.9,1.8-2.9c0.8-1.1,1.6-2.2,2.6-3.1c0.2-0.2,0.5-0.5,0.9-0.8c0.4-0.4,1-0.6,1.5-0.9      c0.5-0.1,1.1,0.1,1.3,0.6c0.2,0.4,0.2,1,0.1,1.4c-0.2,2.4-1.7,4.9-3,6.9c-1.6,2.5-3.6,4.9-5.4,7.1c-2.4,2.8-4.2,4.6-6.9,7      c-0.1,0.1-0.4,0.5-0.6,0.5C105.7,24,107.5,19.7,108.4,17.9 M46.5,52.3c-0.9,1.4-1.8,2.7-3,3.9c-0.6,0.8-1.4,1.4-2.2,2.1      c-0.3,0.2-0.9,0.5-1.3,0.5c-0.1,0-0.1,0-0.2,0c-0.3,0-0.6-0.1-0.8-0.3c-0.1-0.1-0.2-0.4-0.2-0.8c0.1-0.6,0.2-1.2,0.4-1.7l0,0      c0-0.1,0-0.1,0.1-0.2c0.5-1.5,1.3-3.1,2.3-4.9v-0.1c0.5-0.9,1-1.7,1.5-2.5c0.6-0.9,1.8-2.6,3.2-3.8c0.3-0.2,0.9-0.8,1.4-0.8      c0.1,0,0.1,0,0.2,0s0.1,0,0.2,0.1l0.1,0.1c0.2,0.2,0.3,0.4,0.4,0.8v0.1v0.1c0,0.1,0,0.3,0,0.4c-0.8,0.3-1.5,1.1-1.5,1.9      c0,0.8,0.2,1.4,0.9,1.7C47.7,50.1,47.2,51.2,46.5,52.3 M84.4,43.1c-0.8,1-1.4,1.9-2.3,2.9c-0.6,0.6-1.3,1.4-2.2,1.9      c-0.3,0.2-0.6,0.3-1,0.4c-0.4,0.1-0.8-0.1-1-0.4c-0.1-0.1-0.1-0.4-0.1-0.6c0.1-0.6,0.3-1.3,0.4-1.7l0,0c0-0.1,0-0.1,0.1-0.2      c0.5-1.6,1.4-3.2,2.5-5.1v-0.1c0.5-0.9,1.1-1.7,1.7-2.6c0.6-1,1.9-2.7,3.5-4c0.3-0.3,1-0.8,1.6-0.8c0.1,0,0.1,0,0.2,0      s0.1,0,0.2,0.1l0.1,0.1c0.2,0.1,0.3,0.3,0.4,0.6c0,0.1,0,0.1,0.1,0.2c0,0.1,0,0.1,0,0.2c0.1,0.8-0.1,1.5-0.3,2.3      c-0.4,1.2-1.1,2.4-1.7,3.5C85.9,40.8,85.3,42,84.4,43.1 M151.3,24.2c-0.9,1.4-1.8,2.7-3,3.9c-0.6,0.8-1.4,1.4-2.2,1.9      c-0.3,0.2-0.9,0.4-1.3,0.5l0,0c-0.1,0-0.1,0-0.2,0c-0.3,0-0.6-0.1-0.8-0.3c-0.1-0.1-0.2-0.4-0.2-0.8c0.1-0.6,0.2-1.3,0.4-1.7      l0,0c0-0.1,0-0.1,0.1-0.2c0.5-1.5,1.3-3.1,2.3-4.9v-0.1c0.5-0.9,1-1.7,1.5-2.5c0.6-0.9,1.8-2.6,3.2-3.8c0.3-0.2,0.9-0.8,1.4-0.8      c0.1,0,0.1,0,0.2,0s0.1,0,0.2,0.1c0,0,0.1,0,0.1,0.1c0.2,0.2,0.3,0.4,0.4,0.8v0.1v0.1v0.1c-0.9,0.3-1.4,1.2-1.4,2.2      c0,0.6,0.3,1.3,0.8,1.7l0.1,0.1C152.6,22,152,23.1,151.3,24.2"/>
				<path id="Shape_00000142145481372521490580000001960242398976667272_" d="M13,65.9c1.9-1.5,3.7-3.3,5.3-5.3      c0.6-0.9,1.3-1.7,1.8-2.6l0.1-0.1l0,0c0,0,0.2-0.4,0.8-1.2c0,0,0,0,0-0.1c1.2-1.8,3.3-5.8,5.8-11.7c4.1-1.5,4.9,1.4,5,3.9      c0.1,2.2-0.2,3.9-1.3,6.9C29.3,59.1,26,63,23.7,63c-1.4,0-1.7-1.3-1.3-2.9c0.3-1.5,1-2.6,1.6-3.7c1.3-2.1,2.7-4,4.4-6l-0.8-0.2      c-1.6,1.7-2.5,3-4.3,5.7c-0.3,0.4-5,8,0.9,8c2.4,0,6.9-2.1,9.6-9c1.2-3,1.5-5.7,0.8-7.8c-0.6-1.6-1.9-3.6-4.9-3.8      c3.3-1,7.4-2.9,9.7-7.8c1.2-2.6,1-5.2,0.1-6.9c-0.5-1.1-1.2-1.9-2.3-2.6c0.4-0.5,0.8-0.9,1-1.1c0.4-0.4,0.8-0.9,1.2-1.3      c0.1-0.1,0.3-0.3,0.4-0.4l-1-0.2c-0.3,0.3-1.8,1.8-2.6,2.6c-0.4-0.2-1-0.3-1.6-0.5c-3.5-0.8-9.2-0.6-17.5,3.7      C7,34.1,2.8,43.5,2.1,45.4c-1.4,3.3-3.7,12.5,6.4,7.6c9.6-4.6,13.7-14.7,13.7-20.6l-0.8,0.2c0,1.3-0.2,9.4-8.3,16.1      c-1.8,1.5-13.6,9.6-8.8-3.8C6,39.8,9.3,34,17.6,29.7c9.1-4.8,14.7-4.1,16.8-3.5c0.3,0.1,0.6,0.2,1,0.4c-1.1,1.2-2.1,2.5-3.1,3.7      c-0.4,0.5-0.9,1-1.2,1.5c-0.6,0.9-1.2,1.7-1.7,2.6c-0.5,0.8-1,1.5-1.5,2.3c-0.6,1.1-1.3,2.2-1.8,3.2c-0.9,1.5-1.6,3-2.4,4.5      c-1.2,2.4-2.3,4.9-3.5,7.3c-0.3,0.6-0.6,1.3-1,1.9c-0.8,1.5-1.5,3-2.4,4.4c-0.9,1.4-1.7,2.7-2.8,4c-0.5,0.6-1.2,1.4-1.8,1.9      c-0.3,0.3-0.6,0.6-1,0.9c-1.1,0.9-2.2,1.6-3.3,2.3c-0.2,0.1-0.4,0.2-0.6,0.3c-1,0.4-2.4,0.8-3.2,0.8c-0.8,0-1.3-0.2-1.7-0.4      c-0.3-0.2-0.5-0.6-0.5-1.1c0-0.3,0.2-0.5,0.4-0.6c0.6-0.3,1.3-0.4,1.9-0.6c0.5-0.2,1.1-0.4,1.5-1c0-0.1,0.1-0.1,0.1-0.2      c0.1-0.1,0.1-0.3,0.1-0.5c0-0.8-0.5-1.4-1.5-1.5c-0.5,0-1.1,0-1.7,0.1c-0.8,0.2-1.3,0.5-1.8,1.1c-0.4,0.5-0.6,1-0.8,1.7      c-0.1,0.9,0.1,1.3,0.2,1.7c0.2,0.9,1,2.4,4,2.4c1.2,0,2.5-0.2,3.9-0.9C10.1,68.1,11.3,67.3,13,65.9 M37.4,30.9      c0,1.6,0,3.1-1.3,5.8c-1.4,2.8-5.4,5.4-8.6,6.8c0-0.1,0.1-0.2,0.1-0.3c3.7-9.5,7-13.9,8.5-15.7l0,0l0,0      C36.8,28.4,37.4,29.6,37.4,30.9"/>
			</g>
		</g>
	</g>
</g>
</svg>