<svg id="Ebene_1" data-name="Ebene 1" xmlns="http://www.w3.org/2000/svg" viewBox="0 0 774.79 149.2"><defs><style>.cls-1{fill:#070606;}.cls-2{fill:#8b755b;}</style></defs><title>Mayser_est_1800_Logo</title><polygon class="cls-1" points="286.29 125.97 286.29 148.62 300.72 148.62 300.72 146.57 288.6 146.57 288.6 137.84 299.57 137.84 299.57 135.79 288.6 135.79 288.6 128.01 300.34 128.01 300.34 125.97 286.29 125.97"/><path class="cls-1" d="M327.28,129.61a5.46,5.46,0,0,0-1.89-1.64,5.68,5.68,0,0,0-2.78-.63,6.06,6.06,0,0,0-1.7.26,5,5,0,0,0-1.56.78,4.08,4.08,0,0,0-1.14,1.33,3.88,3.88,0,0,0-.43,1.89,3.56,3.56,0,0,0,.41,1.79,4.06,4.06,0,0,0,1.1,1.2,6.28,6.28,0,0,0,1.57.81c.58.22,1.19.43,1.83.65.79.25,1.58.53,2.38.83a8.09,8.09,0,0,1,2.15,1.17,5.56,5.56,0,0,1,1.57,1.82,5.81,5.81,0,0,1,.6,2.8,6.24,6.24,0,0,1-.64,2.93,6.08,6.08,0,0,1-1.68,2,7,7,0,0,1-2.36,1.18,9.5,9.5,0,0,1-2.68.39,10.09,10.09,0,0,1-2-.21,9.16,9.16,0,0,1-2-.63,7.63,7.63,0,0,1-1.72-1.05,7.55,7.55,0,0,1-1.41-1.47l2-1.48a6,6,0,0,0,2.07,2,5.85,5.85,0,0,0,3.12.81,6.12,6.12,0,0,0,1.76-.27,5,5,0,0,0,1.61-.83,4.54,4.54,0,0,0,1.19-1.38,3.77,3.77,0,0,0,.46-1.9,3.8,3.8,0,0,0-.46-2,4.08,4.08,0,0,0-1.24-1.31,7.24,7.24,0,0,0-1.76-.88c-.66-.24-1.35-.47-2.08-.7s-1.48-.51-2.2-.8a7.55,7.55,0,0,1-2-1.17,5.46,5.46,0,0,1-1.39-1.78,5.77,5.77,0,0,1-.53-2.59,5.71,5.71,0,0,1,.66-2.82,6,6,0,0,1,1.71-2,7.33,7.33,0,0,1,2.34-1.12,9.64,9.64,0,0,1,2.53-.35,8.64,8.64,0,0,1,3.93.82,6.72,6.72,0,0,1,2.47,1.93Z" transform="translate(0 0)"/><polygon class="cls-1" points="352.12 148.62 349.81 148.62 349.81 128.01 342.23 128.01 342.23 125.97 359.7 125.97 359.7 128.01 352.12 128.01 352.12 148.62"/><path class="cls-1" d="M363.48,147.08a1.73,1.73,0,0,1-.48,1.2,1.74,1.74,0,0,1-2.5,0,1.73,1.73,0,0,1,0-2.39,1.74,1.74,0,0,1,2.5,0,1.72,1.72,0,0,1,.48,1.19" transform="translate(0 0)"/><polygon class="cls-1" points="398.16 148.62 395.86 148.62 395.86 128.81 391.76 132.3 390.35 130.7 396.12 125.97 398.16 125.97 398.16 148.62"/><path class="cls-1" d="M425.84,136.62a5.85,5.85,0,0,1,3.07,2.14,6.23,6.23,0,0,1,1.22,3.91,6.08,6.08,0,0,1-.59,2.7,6.29,6.29,0,0,1-1.59,2,7,7,0,0,1-2.32,1.31,8.37,8.37,0,0,1-5.53,0,7,7,0,0,1-2.32-1.31,6.43,6.43,0,0,1-1.59-2,6.08,6.08,0,0,1-.59-2.7,6.89,6.89,0,0,1,.32-2.13,6.22,6.22,0,0,1,.9-1.76,5.92,5.92,0,0,1,1.36-1.33,6.16,6.16,0,0,1,1.71-.83v-.06a4.28,4.28,0,0,1-1.39-.76,4.83,4.83,0,0,1-1.07-1.18,6.08,6.08,0,0,1-.71-1.5,5.65,5.65,0,0,1-.25-1.68,6,6,0,0,1,.51-2.5,5.54,5.54,0,0,1,1.39-1.9,6.32,6.32,0,0,1,2-1.22,7.22,7.22,0,0,1,4.91,0,6.2,6.2,0,0,1,2.05,1.22,5.54,5.54,0,0,1,1.39,1.9,5.83,5.83,0,0,1,.52,2.5,5.66,5.66,0,0,1-.26,1.68,6.05,6.05,0,0,1-.7,1.5,4.87,4.87,0,0,1-1.08,1.18,4.28,4.28,0,0,1-1.39.76Zm-7.93,5.79a5,5,0,0,0,.35,1.92,4.26,4.26,0,0,0,1,1.54,4.77,4.77,0,0,0,1.56,1,5.78,5.78,0,0,0,4.07,0,4.82,4.82,0,0,0,1.57-1,4.37,4.37,0,0,0,1-1.54,5,5,0,0,0,.36-1.92,4.81,4.81,0,0,0-.36-1.88,4.36,4.36,0,0,0-2.57-2.5,6.09,6.09,0,0,0-4.07,0,4.43,4.43,0,0,0-1.56,1,4.31,4.31,0,0,0-1,1.51,4.81,4.81,0,0,0-.35,1.88m.8-10.85a3.92,3.92,0,0,0,1.21,2.92,4.51,4.51,0,0,0,1.33.85,4.5,4.5,0,0,0,3.23,0,4.38,4.38,0,0,0,1.33-.85,3.88,3.88,0,0,0,1.22-2.92,4.52,4.52,0,0,0-.32-1.68,4,4,0,0,0-2.2-2.22,4.39,4.39,0,0,0-3.29,0,4.25,4.25,0,0,0-1.31.88,4,4,0,0,0-.88,1.34,4.33,4.33,0,0,0-.32,1.68" transform="translate(0 0)"/><path class="cls-1" d="M451.65,125.39a5.86,5.86,0,0,1,3.53,1,7.6,7.6,0,0,1,2.28,2.72,12.89,12.89,0,0,1,1.23,3.82,25.21,25.21,0,0,1,.37,4.35,24.93,24.93,0,0,1-.37,4.34,12.92,12.92,0,0,1-1.23,3.81,7.45,7.45,0,0,1-2.28,2.7,6.62,6.62,0,0,1-7.09,0,7.35,7.35,0,0,1-2.28-2.7,12.91,12.91,0,0,1-1.22-3.81,27,27,0,0,1-.35-4.34,27.35,27.35,0,0,1,.35-4.35,12.88,12.88,0,0,1,1.22-3.82,7.5,7.5,0,0,1,2.28-2.72,5.89,5.89,0,0,1,3.56-1m0,2a3.5,3.5,0,0,0-2.5.93,6.49,6.49,0,0,0-1.58,2.37,13.23,13.23,0,0,0-.8,3.21,27.64,27.64,0,0,0-.22,3.47,27.14,27.14,0,0,0,.22,3.46,12.87,12.87,0,0,0,.8,3.18,6.36,6.36,0,0,0,1.58,2.34,3.85,3.85,0,0,0,5,0,6.23,6.23,0,0,0,1.57-2.34,12.87,12.87,0,0,0,.82-3.18,25.48,25.48,0,0,0,.24-3.46,26,26,0,0,0-.24-3.47,13.23,13.23,0,0,0-.82-3.21,6.35,6.35,0,0,0-1.57-2.37,3.48,3.48,0,0,0-2.47-.93" transform="translate(0 0)"/><path class="cls-1" d="M481.09,125.39a5.86,5.86,0,0,1,3.53,1,7.6,7.6,0,0,1,2.28,2.72,13.18,13.18,0,0,1,1.23,3.82,26.24,26.24,0,0,1,.37,4.35,25.94,25.94,0,0,1-.37,4.34,13.21,13.21,0,0,1-1.23,3.81,7.45,7.45,0,0,1-2.28,2.7,6.62,6.62,0,0,1-7.09,0,7.35,7.35,0,0,1-2.28-2.7,12.91,12.91,0,0,1-1.22-3.81,27,27,0,0,1-.35-4.34A27.35,27.35,0,0,1,474,133a12.88,12.88,0,0,1,1.22-3.82,7.5,7.5,0,0,1,2.28-2.72,5.89,5.89,0,0,1,3.56-1m0,2a3.54,3.54,0,0,0-2.51.93,6.59,6.59,0,0,0-1.57,2.37,13.23,13.23,0,0,0-.8,3.21,27.64,27.64,0,0,0-.22,3.47,27.14,27.14,0,0,0,.22,3.46A12.87,12.87,0,0,0,477,144a6.47,6.47,0,0,0,1.57,2.34,3.57,3.57,0,0,0,2.51.91,3.51,3.51,0,0,0,2.47-.91,6.35,6.35,0,0,0,1.57-2.34,12.87,12.87,0,0,0,.82-3.18,25.48,25.48,0,0,0,.24-3.46,26,26,0,0,0-.24-3.47,13.23,13.23,0,0,0-.82-3.21,6.47,6.47,0,0,0-1.57-2.37,3.48,3.48,0,0,0-2.47-.93" transform="translate(0 0)"/><path class="cls-2" d="M371.72,0H393.2L335.78,53.46V90h-17V53.46L261,0H282.7l44.51,41.18ZM485.44,35.43H432.49c-7.67,0-11.25-3-11.25-8.32v-5.5c0-5.37,3.58-8.31,11.25-8.31h76.22V0H432.49C412,0,404.23,8.82,404.23,21.74V27c0,12.92,7.8,21.75,28.26,21.75h52.95c7.67,0,11.25,2.94,11.25,8.31V68.42c0,5.38-3.58,8.32-11.25,8.32H407.17V90h78.27c20.46,0,28.26-8.83,28.26-21.74V57.17c0-12.92-7.8-21.74-28.26-21.74M752.53,49.62,773.76,90H755.6L734.5,49.88H687.05V90H670V0h76.48C767,0,774.79,8.82,774.79,21.74v6.4c0,11.64-6.27,20-22.26,21.48m5.25-28c0-5.37-3.58-8.31-11.26-8.31H687.05V36.58h59.47c7.68,0,11.26-2.94,11.26-8.31ZM210.26,0,150.41,90h18.93l47.19-72.52L263,90h19.19L222.67,0ZM547.63,90h92.59V76.74H564.64V49.11h71.75V35.81H564.64V13.3h75.58V0H547.63ZM69.32,73.54,15.86,0H0V90H15.73V27.11L61.65,90H75.59L121.37,27V90H137.1V0H122.52Z" transform="translate(0 0)"/></svg>