<svg version="1.2" xmlns="http://www.w3.org/2000/svg" viewBox="0 0 601 106" width="601" height="106">
	<title>stetson-logo-vector-svg</title>
	<style>
		.s0 { fill: #3f1e20 } 
		.s1 { fill: #ffffff } 
	</style>
	<path id="Layer" fill-rule="evenodd" class="s0" d="m388.5 52.6c0-28.9 22.5-52.4 52.6-52.4 26.8 0 49.9 22.8 49.9 52.4 0 28.9-23.2 52.4-52.6 52.4-25.1-0.1-49.9-21.7-49.9-52.4zm19.6-0.2c0 24.8 13.7 42.3 30.9 42.3 19.7 0 32.6-18.9 32.6-42.3 0-23.9-13-42.3-30.9-42.3-19.8 0-32.6 19-32.6 42.3zm-184.6 32.1l1.9 0.3-3 17.3h-63.8l-0.3-1.9c5.1-1.4 9.9-5 9.9-11.2v-73c0-6.2-4.8-9.8-9.9-11.1l0.3-1.9h50.3c2 0 9.6-0.2 11.6-0.6l0.5 0.6-2.9 17-1.9 0.3c-1-4.3-4.1-7-11.4-7l-19.7-0.1v26.4h11.6c8.2 0 11.7-2.7 12.5-5.6l1.9 0.3v22l-1.9 0.3c-0.9-3.3-3-6.8-12.5-6.8h-11.6v41.5l22.2 0.2c7.6 0 12.2-2.2 16.2-7zm-158.5-10.6c0 15.4-12.5 30.7-34.7 30.7-10.4 0-21.7-3.9-29.8-9.1l3.2-18.6 1.9-0.4c5 12.1 13.8 18.1 24.1 18.1 11.1 0 18.7-7.6 18.7-16 0-6.7-3.9-12.6-17.1-20.5-14.7-8.8-27.1-16.2-27.1-30.7 0-18 15.7-27.3 31.5-27.3 12.2 0 21.7 7.9 21.7 7.9l-2.2 16.2-1.9 0.3c-1.9-7.3-7.4-15.2-17.8-15.2-9.6 0-16 5.4-16 13.2 0 8.6 9.2 13.7 21.6 19.9 19.8 9.9 23.8 21.5 23.9 31.5zm317.1 0c0 15.4-12.5 30.7-34.7 30.7-10.4 0-21.7-3.9-29.8-9.1l3.2-18.6 1.9-0.4c5 12.1 13.8 18.1 24.1 18.1 11.1 0 18.7-7.6 18.7-16 0-6.7-3.9-12.6-17.1-20.5-14.7-8.8-27.1-16.2-27.1-30.7 0-18 15.7-27.3 31.5-27.3 12.2 0 21.7 7.9 21.7 7.9l-2.2 16.2-1.9 0.3c-1.9-7.3-7.4-15.2-17.8-15.2-9.6 0-16 5.4-16 13.2 0 8.6 9.2 13.7 21.6 19.9 19.8 9.9 23.8 21.5 23.9 31.5zm-66-71l-2.9 16.9-1.9 0.3c-1-4.3-4.3-7-11.6-7h-17.7v75.8c0 6.2 4.8 9.8 9.9 11.1l-0.3 1.9h-36l-0.3-1.9c5.1-1.3 9.9-4.9 9.9-11.1v-75.8h-21.2c-5.9 0-10.2 2.9-12.2 7l-1.9-0.3 2.9-16.9 0.5-0.6c2 0.4 9.5 0.6 11.6 0.6h59.2c2 0 9.6-0.2 11.6-0.6zm272.7 1.9c-4 1-7.2 4.3-7.2 9.5v90.5h-3.1l-65.9-80.2-0.3 0.3c0 0 0.8 1.2 0.8 3.8v60.2c0 6.2 4.8 9.9 9.9 11.2l-0.4 1.9h-29.3l-0.3-1.9c5.1-1.3 9.9-4.9 9.9-11.2v-73c0-6.2-4.8-9.9-9.9-11.2l0.3-1.9h11.2c2.1 0 9.6-0.2 11.6-0.6l55.7 68.2 0.3-0.3c0 0-0.8-1.2-0.8-3.8v-50.3c0-6.2-4.8-9.9-9.9-11.2l0.4-1.9h26.6zm-437.4-1.9l-2.9 16.9-1.9 0.3c-1-4.3-4.3-7-11.6-7h-17.7v75.8c0 6.2 4.8 9.8 9.9 11.1l-0.3 1.9h-36l-0.3-1.9c5.1-1.3 9.9-4.9 9.9-11.1v-75.8h-21.2c-5.9 0-10.2 2.9-12.2 7l-1.9-0.3 2.9-16.9 0.5-0.6c2 0.4 9.5 0.6 11.6 0.6h59.2c2 0 9.6-0.2 11.6-0.6z"/>
	<path id="Layer" class="s0" d="m593.1 105.3c4 0 7.3-2.8 7.3-7.3 0-4.5-3.3-7.3-7.3-7.3-4 0-7.3 2.8-7.3 7.3 0 4.5 3.3 7.3 7.3 7.3z"/>
	<path id="Layer" class="s1" d="m599.4 98c0-4-2.9-6.4-6.3-6.4-3.4 0-6.3 2.4-6.3 6.4 0 3.9 2.9 6.4 6.3 6.4 3.4 0 6.3-2.4 6.3-6.4z"/>
	<path id="Layer" class="s0" d="m596.4 101.9l-2-3.5c1.1-0.4 1.7-1.2 1.7-2.2 0-1.5-1-2.3-2.8-2.3h-2.8v8h1.3v-3.4h1.3l1.8 3.4z"/>
	<path id="Layer" class="s1" d="m591.8 97.5h1.5q1.5 0 1.5-1.2 0-1.2-1.5-1.2h-1.5z"/>
</svg>