<?xml version="1.0" encoding="UTF-8" standalone="no"?>
<!DOCTYPE svg PUBLIC "-//W3C//DTD SVG 1.1//EN" "http://www.w3.org/Graphics/SVG/1.1/DTD/svg11.dtd">
<svg width="100%" height="100%" viewBox="0 0 80 80" version="1.1" xmlns="http://www.w3.org/2000/svg" xmlns:xlink="http://www.w3.org/1999/xlink" xml:space="preserve" xmlns:serif="http://www.serif.com/" style="fill-rule:evenodd;clip-rule:evenodd;stroke-linejoin:round;stroke-miterlimit:2;">
    <g transform="matrix(1,0,0,1,-2562.57,-298.667)">
        <g transform="matrix(3.30103,0,0,3.30103,2562.57,298.682)">
            <path d="M15.462,12.398C15.462,13.452 14.149,15.162 12.034,16.859C11.993,16.892 11.931,16.891 11.89,16.859C9.775,15.161 8.462,13.451 8.462,12.397C8.462,11.584 9.023,10.921 9.712,10.921C10.282,10.921 10.962,11.108 10.962,11.998C10.962,12.551 11.41,12.998 11.962,12.998C12.514,12.998 12.962,12.551 12.962,11.998C12.962,11.107 13.642,10.921 14.212,10.921C14.901,10.921 15.462,11.583 15.462,12.397L15.462,12.398ZM24,9.723L24,18.999C24,21.756 21.757,23.999 19,23.999L5,23.999C2.243,23.999 0,21.756 0,18.999L0,9.723C0,8.058 0.824,6.509 2.204,5.578L9.203,0.855C10.902,-0.291 13.098,-0.291 14.797,0.855L20,4.366L20,1.999C20,1.446 20.447,0.999 21,0.999C21.553,0.999 22,1.446 22,1.999L22,5.734C23.252,6.675 24,8.144 24,9.723ZM17.462,12.398C17.462,10.482 16.004,8.922 14.212,8.922C13.306,8.922 12.528,9.206 11.962,9.697C11.395,9.206 10.618,8.922 9.712,8.922C7.92,8.922 6.462,10.482 6.462,12.398C6.462,14.603 8.733,16.889 10.639,18.419C11.022,18.727 11.492,18.88 11.962,18.88C12.432,18.88 12.902,18.727 13.286,18.418C15.191,16.889 17.463,14.603 17.463,12.397L17.462,12.398Z" style="fill-rule:nonzero;"/>
        </g>
    </g>
</svg>
