<?xml version="1.0" encoding="UTF-8" standalone="no"?>
<!DOCTYPE svg PUBLIC "-//W3C//DTD SVG 1.1//EN" "http://www.w3.org/Graphics/SVG/1.1/DTD/svg11.dtd">
<svg width="100%" height="100%" viewBox="0 0 71 85" version="1.1" xmlns="http://www.w3.org/2000/svg" xmlns:xlink="http://www.w3.org/1999/xlink" xml:space="preserve" xmlns:serif="http://www.serif.com/" style="fill-rule:evenodd;clip-rule:evenodd;stroke-linejoin:round;stroke-miterlimit:2;">
    <g transform="matrix(1,0,0,1,-2565.29,-798.457)">
        <g transform="matrix(1,0,0,1,30,15)">
            <path d="M2579.16,807.189C2594.2,812.453 2605.32,830.379 2605.32,842.248C2605.32,856.29 2589.76,867.673 2570.55,867.673C2551.35,867.673 2535.79,856.29 2535.79,842.248C2535.79,830.379 2546.91,812.453 2561.95,807.189L2554.74,807.189C2551.7,807.189 2549.21,806.364 2549.21,805.355C2549.21,804.347 2551.7,803.522 2554.74,803.522L2586.37,803.522C2589.41,803.522 2591.9,804.347 2591.9,805.355C2591.9,806.364 2589.41,807.189 2586.37,807.189L2579.16,807.189ZM2573.6,860.474L2573.63,852.585C2578.08,852.428 2581.68,851.456 2584.43,849.668C2587.19,847.881 2588.57,845.65 2588.57,842.977C2588.57,840.304 2587.29,838.126 2584.74,836.442C2582.18,834.758 2578.47,833.647 2573.6,833.109L2573.6,821.888C2575.49,821.957 2577.39,822.196 2579.29,822.604C2581.2,823.012 2583.15,823.589 2585.16,824.335L2585.16,819.831C2583.18,819.379 2581.22,819.024 2579.31,818.763C2577.39,818.503 2575.5,818.329 2573.63,818.243L2573.6,812.124L2570.05,812.124L2570.05,818.243C2565.53,818.486 2562.03,819.419 2559.53,821.041C2557.03,822.664 2555.79,824.838 2555.79,827.564C2555.79,830.167 2556.98,832.259 2559.37,833.838C2561.76,835.418 2565.32,836.477 2570.05,837.015L2570.05,848.939C2567.71,848.905 2565.34,848.601 2562.94,848.028C2560.53,847.455 2558.15,846.631 2555.79,845.555L2555.79,850.241C2558.11,850.953 2560.45,851.508 2562.83,851.908C2565.21,852.307 2567.6,852.55 2570.01,852.637L2570.05,860.474L2573.6,860.474ZM2573.6,837.536C2576.48,837.865 2578.59,838.477 2579.91,839.371C2581.24,840.265 2581.9,841.519 2581.9,843.133C2581.9,844.869 2581.16,846.24 2579.7,847.247C2578.23,848.254 2576.2,848.783 2573.6,848.835L2573.6,837.536ZM2570.05,832.589C2567.4,832.294 2565.43,831.712 2564.14,830.844C2562.85,829.976 2562.21,828.796 2562.21,827.303C2562.21,825.672 2562.9,824.37 2564.28,823.398C2565.67,822.426 2567.59,821.905 2570.05,821.836L2570.05,832.589ZM2588.14,798.018L2552.98,798.018L2549.54,787.489C2548.84,785.347 2551.68,783.464 2554.7,784.072L2566.24,786.389C2569.15,786.972 2572.28,786.968 2575.18,786.377L2586.39,784.093C2589.42,783.477 2592.27,785.364 2591.57,787.51L2588.14,798.018Z" style="fill:rgb(35,31,32);stroke:rgb(35,31,32);stroke-width:1px;"/>
        </g>
    </g>
</svg>
