<?xml version="1.0" encoding="UTF-8" standalone="no"?>
<!DOCTYPE svg PUBLIC "-//W3C//DTD SVG 1.1//EN" "http://www.w3.org/Graphics/SVG/1.1/DTD/svg11.dtd">
<svg width="100%" height="100%" viewBox="0 0 90 87" version="1.1" xmlns="http://www.w3.org/2000/svg" xmlns:xlink="http://www.w3.org/1999/xlink" xml:space="preserve" xmlns:serif="http://www.serif.com/" style="fill-rule:evenodd;clip-rule:evenodd;stroke-linejoin:round;stroke-miterlimit:2;">
    <g transform="matrix(1,0,0,1,-2557.83,-461.883)">
        <g transform="matrix(1,0,0,1,2557.83,461.882)">
            <g transform="matrix(4.16667,0,0,4.16667,64.6875,15.7083)">
                <path d="M0,2.932L0.026,0.12L2.358,0L4.69,0.816L4.467,2.932L0,2.932Z" style="fill:rgb(35,31,32);fill-rule:nonzero;"/>
            </g>
            <g transform="matrix(4.16667,0,0,4.16667,85.4504,44.3788)">
                <path d="M0,-1.362C0,-2.946 -0.547,-3.842 -2.008,-4.085L-2.008,-4.659L-3.469,-4.659L-3.469,-4.085C-4.929,-3.842 -5.516,-2.946 -5.516,-1.362L-6.433,3.039L-5.44,3.297L-4.477,-1.554C-4.477,-2.783 -2.862,-2.127 -2.862,-2.127C-1.661,-2.129 -1.07,-2.808 -1.07,-1.554L-0.102,3.297L0.898,3.039L0,-1.362Z" style="fill:rgb(35,31,32);fill-rule:nonzero;"/>
            </g>
            <g transform="matrix(4.16667,0,0,4.16667,74.6404,85.0962)">
                <path d="M0,-6.353L1.163,-6.385L0.807,-0.974C0.807,-0.974 1.464,-0.193 1.024,-0.109C0.286,0.032 0.048,-0.937 0.048,-0.937C0.048,-0.937 0.091,-4.385 0,-6.353" style="fill:rgb(35,31,32);fill-rule:nonzero;"/>
            </g>
            <g transform="matrix(-0.335643,-4.15313,-4.15313,0.335643,74.8272,84.8883)">
                <path d="M0.765,-0.663C0.765,-0.663 -0.253,-1.877 -0.434,-0.971C-0.576,-0.262 -0.05,0.545 0.765,0.467C0.765,0.467 -0.108,-0.486 -0.017,-0.741C0.073,-0.995 0.765,-0.663 0.765,-0.663" style="fill:rgb(35,31,32);fill-rule:nonzero;"/>
            </g>
            <g transform="matrix(4.16667,0,0,4.16667,72.8737,85.0962)">
                <path d="M0,-6.353L-1.163,-6.385L-0.807,-0.974C-0.807,-0.974 -1.464,-0.193 -1.024,-0.109C-0.286,0.032 -0.049,-0.937 -0.049,-0.937C-0.049,-0.937 -0.091,-4.385 0,-6.353" style="fill:rgb(35,31,32);fill-rule:nonzero;"/>
            </g>
            <g transform="matrix(-0.335643,4.15313,4.15313,0.335643,70.3893,84.8912)">
                <path d="M-0.766,-0.662C-0.766,-0.662 0.252,-1.876 0.434,-0.97C0.575,-0.261 0.049,0.544 -0.766,0.467C-0.766,0.467 0.108,-0.485 0.017,-0.741C-0.074,-0.995 -0.766,-0.662 -0.766,-0.662" style="fill:rgb(35,31,32);fill-rule:nonzero;"/>
            </g>
            <g transform="matrix(4.16667,0,0,4.16667,85.9346,41.9633)">
                <path d="M0,8.408C-0.193,6.96 -0.882,0 -2.843,0C-4.805,0 -5.494,6.96 -5.687,8.408L0,8.408Z" style="fill:rgb(35,31,32);fill-rule:nonzero;"/>
            </g>
            <g transform="matrix(0,-4.16667,-4.16667,0,73.8333,3.94208)">
                <path d="M-2.518,-2.518C-3.995,-2.518 -5.194,-1.213 -5.194,-0.001C-5.194,1.212 -3.995,2.518 -2.518,2.518C-1.04,2.518 0.158,1.39 0.158,-0.001C0.158,-1.391 -1.04,-2.518 -2.518,-2.518" style="fill:rgb(35,31,32);fill-rule:nonzero;"/>
            </g>
            <g transform="matrix(4.16667,0,0,4.16667,60.8729,56.5608)">
                <path d="M0,0.705C-0.047,0.917 -0.237,1.046 -0.424,0.993C-0.611,0.939 -0.725,0.724 -0.678,0.512L-0.564,0C-0.517,-0.212 -0.327,-0.341 -0.14,-0.288C0.047,-0.234 0.161,-0.019 0.113,0.193L0,0.705Z" style="fill:rgb(35,31,32);fill-rule:nonzero;"/>
            </g>
            <g transform="matrix(4.16667,0,0,4.16667,86.8763,56.5608)">
                <path d="M0,0.705C0.047,0.917 0.237,1.046 0.424,0.993C0.611,0.939 0.725,0.724 0.678,0.512L0.564,0C0.517,-0.212 0.327,-0.341 0.14,-0.288C-0.047,-0.234 -0.161,-0.019 -0.113,0.193L0,0.705Z" style="fill:rgb(35,31,32);fill-rule:nonzero;"/>
            </g>
            <g transform="matrix(4.16667,0,0,4.16667,84.8279,42.6096)">
                <path d="M0,-2.153C-0.269,-3.277 -1.444,-3.528 -1.444,-3.528L-2.629,-1.85L-3.814,-3.528C-3.814,-3.528 -4.988,-3.277 -5.258,-2.153C-5.44,-1.39 -5.545,-0.402 -5.545,-0.402L-4.326,-0.353L-4.323,0.923L-2.629,1.375L-0.935,0.923L-0.931,-0.353L0.288,-0.391C0.288,-0.391 0.183,-1.39 0,-2.153" style="fill:rgb(35,31,32);fill-rule:nonzero;"/>
            </g>
            <g transform="matrix(4.16667,0,0,4.16667,82.7463,0.42375)">
                <path d="M0,6.773C0,6.773 0.087,4.716 -0.058,3.234C-0.136,2.442 -0.611,1.782 -0.611,1.782C-0.611,1.782 -1.171,2.326 -2.791,2.538C-3.426,2.621 -4.158,2.667 -4.158,2.667C-4.158,2.667 -4.216,6.339 -4.115,6.773L-4.57,6.773C-5.441,3.131 -4.463,0.084 -2.577,0.032C-1.442,0 -0.989,0.511 -0.989,0.511C-0.989,0.511 -0.145,0.269 0.378,1.782C0.901,3.294 0.465,6.773 0.465,6.773L0,6.773Z" style="fill:rgb(35,31,32);fill-rule:nonzero;"/>
            </g>
            <g transform="matrix(4.16667,0,0,4.16667,55.7833,45.6417)">
                <path d="M0,-1.392C0,-2.937 -0.513,-3.811 -1.972,-4.048L-1.972,-4.545L-3.431,-4.545L-3.431,-4.048C-4.793,-3.811 -5.399,-2.937 -5.399,-1.392L-6.279,2.902L-5.303,3.153L-4.36,-1.579C-4.36,-2.778 -3.902,-2.663 -2.781,-2.656L-2.783,-2.641C-1.61,-2.643 -1.033,-2.803 -1.033,-1.579L-0.088,3.153L0.882,2.902L0,-1.392Z" style="fill:rgb(35,31,32);fill-rule:nonzero;"/>
            </g>
            <g transform="matrix(4.16667,0,0,4.16667,45.3063,85.1333)">
                <path d="M0,-6.199L1.13,-6.23L0.784,-0.951C0.784,-0.951 1.422,-0.189 0.996,-0.107C0.278,0.031 0.047,-0.914 0.047,-0.914C0.047,-0.914 0.089,-4.279 0,-6.199" style="fill:rgb(35,31,32);fill-rule:nonzero;"/>
            </g>
            <g transform="matrix(-0.341209,-4.15267,-4.15267,0.341209,46.5485,84.953)">
                <path d="M0.736,-0.64C0.736,-0.64 -0.244,-1.791 -0.418,-0.929C-0.555,-0.255 -0.048,0.509 0.736,0.435C0.736,0.435 -0.105,-0.47 -0.017,-0.712C0.07,-0.954 0.736,-0.64 0.736,-0.64" style="fill:rgb(35,31,32);fill-rule:nonzero;"/>
            </g>
            <g transform="matrix(4.16667,0,0,4.16667,43.5579,85.1333)">
                <path d="M0,-6.199L-1.13,-6.23L-0.784,-0.951C-0.784,-0.951 -1.422,-0.189 -0.996,-0.107C-0.278,0.031 -0.047,-0.914 -0.047,-0.914C-0.047,-0.914 -0.089,-4.279 0,-6.199" style="fill:rgb(35,31,32);fill-rule:nonzero;"/>
            </g>
            <g transform="matrix(-0.341843,4.15262,4.15262,0.341843,41.9865,84.9537)">
                <path d="M-0.736,-0.639C-0.736,-0.639 0.245,-1.79 0.418,-0.929C0.554,-0.254 0.049,0.509 -0.736,0.433C-0.736,0.433 0.105,-0.47 0.018,-0.712C-0.07,-0.954 -0.736,-0.639 -0.736,-0.639" style="fill:rgb(35,31,32);fill-rule:nonzero;"/>
            </g>
            <g transform="matrix(0,-4.16667,-4.16667,0,57.5067,45.7508)">
                <path d="M-5.928,0.28C-5.928,0.28 -6.791,0.362 -6.791,3.104C-6.791,5.845 -5.928,5.928 -5.928,5.928C-5.928,5.928 1.143,4.896 1.143,3.104C1.143,1.312 -5.928,0.28 -5.928,0.28" style="fill:rgb(35,31,32);fill-rule:nonzero;"/>
            </g>
            <g transform="matrix(0,-4.16667,-4.16667,0,44.5046,5.89917)">
                <path d="M-2.456,-2.456C-3.898,-2.456 -5.066,-1.183 -5.066,0C-5.066,1.183 -3.898,2.456 -2.456,2.456C-1.014,2.456 0.155,1.356 0.155,0C0.155,-1.357 -1.014,-2.456 -2.456,-2.456" style="fill:rgb(35,31,32);fill-rule:nonzero;"/>
            </g>
            <g transform="matrix(4.16667,0,0,4.16667,31.8371,57.2792)">
                <path d="M0,0.686C-0.046,0.892 -0.23,1.017 -0.411,0.966C-0.593,0.914 -0.703,0.705 -0.657,0.498L-0.547,0C-0.501,-0.206 -0.317,-0.331 -0.136,-0.279C0.045,-0.227 0.156,-0.018 0.11,0.188L0,0.686Z" style="fill:rgb(35,31,32);fill-rule:nonzero;"/>
            </g>
            <g transform="matrix(4.16667,0,0,4.16667,57.2488,57.2792)">
                <path d="M0,0.686C0.046,0.892 0.23,1.017 0.411,0.966C0.593,0.914 0.702,0.705 0.657,0.498L0.547,0C0.501,-0.206 0.317,-0.331 0.136,-0.279C-0.046,-0.227 -0.156,-0.018 -0.11,0.188L0,0.686Z" style="fill:rgb(35,31,32);fill-rule:nonzero;"/>
            </g>
            <g transform="matrix(4.16667,0,0,4.16667,55.2308,43.3946)">
                <path d="M0,-2.094C-0.263,-3.195 -1.409,-3.483 -1.409,-3.483L-3.721,-3.483C-3.721,-3.483 -4.867,-3.195 -5.13,-2.094C-5.308,-1.346 -5.411,-0.358 -5.411,-0.358L-4.221,-0.307L-4.218,1.389L-0.912,1.389L-0.909,-0.296L0.28,-0.351C0.28,-0.351 0.178,-1.346 0,-2.094" style="fill:rgb(35,31,32);fill-rule:nonzero;"/>
            </g>
            <g transform="matrix(4.16667,0,0,4.16667,39.2283,17.9188)">
                <path d="M0,-1.763C0,-1.763 0.163,-1.097 1.002,-1.141C1.842,-1.186 2.271,-1.85 2.54,-1.451C2.809,-1.052 2.625,-0.1 3.224,0.112C3.822,0.324 3.182,1.083 3.182,1.083C3.182,1.083 3.684,1.301 4.191,0.857C4.191,0.857 3.869,0.617 3.961,0.004C4.053,-0.608 4.262,-1.408 3.674,-1.852C3.086,-2.296 2.855,-2.918 1.75,-3.051C0.645,-3.184 -0.138,-2.385 -0.138,-2.385C-0.138,-2.385 -0.599,-2.474 -0.967,-2.029C-1.336,-1.585 -1.56,-0.633 -1.379,0.112C-1.197,0.857 -1.642,1.079 -1.642,1.079C-1.642,1.079 -0.808,1.421 -0.427,1.206C-0.427,1.206 -1.128,0.147 -0.863,-0.164C-0.599,-0.475 -0.092,-1.363 0,-1.763" style="fill:rgb(35,31,32);fill-rule:nonzero;"/>
            </g>
            <g transform="matrix(4.16667,0,0,4.16667,41.0417,31.0929)">
                <path d="M0,-0.522C0,-0.522 0.236,0 0.837,0C1.437,0 1.62,-0.498 1.62,-0.498" style="fill:rgb(35,31,32);fill-rule:nonzero;"/>
            </g>
            <g transform="matrix(0,-4.16667,-4.16667,0,15.2563,0.68625)">
                <path d="M-2.615,-2.615C-4.15,-2.615 -5.393,-1.26 -5.393,0C-5.393,1.259 -4.15,2.615 -2.615,2.615C-1.08,2.615 0.164,1.445 0.164,0C0.164,-1.444 -1.08,-2.615 -2.615,-2.615" style="fill:rgb(35,31,32);fill-rule:nonzero;"/>
            </g>
            <g transform="matrix(4.16667,0,0,4.16667,0,-37.6467)">
                <rect x="2.966" y="14.609" width="1.473" height="0.591" style="fill:rgb(35,31,32);"/>
            </g>
            <g transform="matrix(4.16667,0,0,4.16667,15.2425,62.8479)">
                <path d="M0,-8.883L-0.026,-8.883C-2.005,-8.883 -3.04,-7.842 -3.04,-5.788L-3.627,-1.114L-3.627,-0.501C-3.627,-0.225 -3.404,0 -3.137,0C-2.87,0 -2.648,-0.225 -2.648,-0.501L-2.648,-0.753L-2.501,-0.753L-2.185,-3.532L-2.053,-5.949C-2.053,-7.329 -1.351,-7.396 -0.022,-7.396L-0.004,-7.339C1.325,-7.339 2.027,-7.339 2.027,-5.96L2.475,-0.753L2.737,-0.753L2.737,-0.501C2.737,-0.225 2.96,0 3.227,0C3.494,0 3.716,-0.225 3.716,-0.501L3.716,-0.724L3.661,-1.084L2.955,-5.776C2.955,-7.83 1.979,-8.883 0,-8.883" style="fill:rgb(35,31,32);fill-rule:nonzero;"/>
            </g>
            <g transform="matrix(4.16667,0,0,4.16667,7.79292,83.5538)">
                <path d="M0,-8.005L-0.059,0L1.07,0C1.07,0 1.36,-6.133 1.746,-6.133C2.132,-6.133 2.426,0 2.426,0L3.529,0L3.547,-8.005L0,-8.005Z" style="fill:rgb(35,31,32);fill-rule:nonzero;"/>
            </g>
            <g transform="matrix(4.16667,0,0,4.16667,15.2338,55.04)">
                <path d="M0,-6.454C-0.584,-6.454 -0.788,-6.928 -0.81,-6.924C-2.014,-6.726 -2.752,-5.963 -2.977,-4.751C-3.025,-4.489 -3.656,0.474 -3.656,0.474L-2.402,0.474L-1.877,-3.647L-1.861,-0.356L1.813,-0.304L1.905,-3.55L2.415,0.474L3.624,0.474C3.624,0.474 2.961,-4.776 2.852,-5.134C2.558,-6.095 1.875,-6.743 0.833,-6.928C0.833,-6.928 0.583,-6.454 0,-6.454" style="fill:rgb(35,31,32);fill-rule:nonzero;"/>
            </g>
            <g transform="matrix(4.16667,0,0,4.16667,6.92667,86.5492)">
                <path d="M0,-0.463C0,-0.463 -0.395,-0.338 -0.639,-0.3C-0.884,-0.262 -1.009,-0.01 -0.569,-0.001C-0.129,0.008 1.105,-0.008 1.105,-0.008L1.075,-0.471L0,-0.463Z" style="fill:rgb(35,31,32);fill-rule:nonzero;"/>
            </g>
            <g transform="matrix(-0.317066,4.15459,4.15459,0.317066,8.22677,82.0126)">
                <path d="M1.007,-1.106C1.086,-1.051 1.143,-0.947 1.137,-0.78C1.12,-0.322 1.007,0.931 1.007,0.931L0.852,0.919L1.007,-1.106Z" style="fill:rgb(35,31,32);fill-rule:nonzero;"/>
            </g>
            <g transform="matrix(4.16667,0,0,4.16667,22.9608,86.5)">
                <path d="M0,-0.463C0,-0.463 0.513,-0.335 0.759,-0.297C1.005,-0.26 1.054,-0.018 0.611,-0.009C0.168,0 -1.026,-0.001 -1.026,-0.001L-1.026,-0.463L0,-0.463Z" style="fill:rgb(35,31,32);fill-rule:nonzero;"/>
            </g>
            <g transform="matrix(-0.319884,-4.15437,-4.15437,0.319884,22.3049,82.0505)">
                <path d="M-0.998,-1.097C-1.077,-1.042 -1.134,-0.938 -1.128,-0.771C-1.111,-0.314 -0.998,0.922 -0.998,0.922L-0.843,0.91L-0.998,-1.097Z" style="fill:rgb(35,31,32);fill-rule:nonzero;"/>
            </g>
            <g transform="matrix(-4.13282,-0.530023,-0.530023,4.13282,3.17432,15.3857)">
                <path d="M-0.727,-3.087C-0.727,-3.087 0.592,-1.74 -0.405,0.02L-0.727,-0.022C-0.727,-0.022 -0.291,-0.902 -0.485,-1.305C-0.678,-1.707 -1.445,-1.855 -0.727,-3.087" style="fill:rgb(35,31,32);fill-rule:nonzero;"/>
            </g>
            <g transform="matrix(-4.13282,0.530023,0.530023,4.13282,27.0223,15.3857)">
                <path d="M0.727,-3.087C0.727,-3.087 -0.592,-1.74 0.405,0.02L0.727,-0.022C0.727,-0.022 0.291,-0.902 0.485,-1.305C0.678,-1.707 1.445,-1.855 0.727,-3.087" style="fill:rgb(35,31,32);fill-rule:nonzero;"/>
            </g>
            <g transform="matrix(1.20897,-3.98742,-3.98742,-1.20897,12.7972,15.8089)">
                <path d="M-0.48,-0.7C-0.163,-0.647 -0.204,-0.165 -0.451,0.047C-0.697,0.26 -0.707,0.486 -0.48,0.64C-0.48,0.64 -0.728,0.755 -0.95,0.449C-1.212,0.088 -0.932,-0.775 -0.48,-0.7" style="fill:rgb(35,31,32);fill-rule:nonzero;"/>
            </g>
            <g transform="matrix(1.20897,3.98742,3.98742,-1.20897,17.8203,15.8089)">
                <path d="M0.48,-0.7C0.163,-0.647 0.204,-0.165 0.451,0.047C0.697,0.261 0.707,0.486 0.48,0.64C0.48,0.64 0.728,0.755 0.95,0.449C1.212,0.088 0.932,-0.775 0.48,-0.7" style="fill:rgb(35,31,32);fill-rule:nonzero;"/>
            </g>
        </g>
    </g>
</svg>
