<?xml version="1.0" encoding="UTF-8" standalone="no"?>
<!DOCTYPE svg PUBLIC "-//W3C//DTD SVG 1.1//EN" "http://www.w3.org/Graphics/SVG/1.1/DTD/svg11.dtd">
<svg width="100%" height="100%" viewBox="0 0 105 81" version="1.1" xmlns="http://www.w3.org/2000/svg" xmlns:xlink="http://www.w3.org/1999/xlink" xml:space="preserve" xmlns:serif="http://www.serif.com/" style="fill-rule:evenodd;clip-rule:evenodd;stroke-linejoin:round;stroke-miterlimit:2;">
    <g transform="matrix(1,0,0,1,-2548.21,-962.396)">
        <g>
            <g transform="matrix(3.28426,0,0,3.28426,2650.35,982.743)">
                <path d="M0,6.197C-0.002,6.194 0.42,6.452 0,6.197ZM0,6.197C2.923,7.976 -4.831,10.825 -5.855,11.148C-8.771,12.067 -11.962,12.418 -15.162,12.424C-19.137,12.432 -23.125,11.841 -26.612,10.348C-28.064,9.726 -29.869,8.892 -30.812,7.647C-31.384,6.892 -30.372,6.086 -29.592,5.934C-28.445,5.715 -27.111,6.217 -26.056,6.594C-25.902,4.371 -25.86,2.148 -25.758,-0.075C-25.688,-1.596 -25.319,-3.154 -23.946,-4.142C-23.508,-4.457 -23.107,-4.814 -22.626,-5.079C-20.522,-6.235 -17.49,-6.067 -15.15,-6.067C-12.809,-6.067 -9.777,-6.235 -7.673,-5.079C-7.192,-4.814 -6.79,-4.457 -6.352,-4.142C-4.978,-3.153 -4.61,-1.596 -4.54,-0.075C-4.437,2.148 -4.396,4.371 -4.243,6.594C-3.588,6.36 -2.914,6.157 -2.228,6.014C-1.745,5.914 -0.329,5.672 0,6.197ZM-8.528,5.564C-8.528,4.48 -8.718,3.657 -9.097,3.094C-9.477,2.532 -10.037,2.251 -10.778,2.251C-11.54,2.251 -12.104,2.519 -12.47,3.057C-12.836,3.595 -13.019,4.43 -13.019,5.564C-13.019,6.651 -12.831,7.473 -12.455,8.029C-12.078,8.586 -11.519,8.864 -10.778,8.864C-10.014,8.864 -9.447,8.595 -9.08,8.056C-8.712,7.517 -8.528,6.686 -8.528,5.564ZM-11.67,5.564C-11.67,4.776 -11.601,4.21 -11.464,3.866C-11.326,3.521 -11.098,3.349 -10.778,3.349C-10.465,3.349 -10.237,3.521 -10.095,3.866C-9.953,4.21 -9.882,4.776 -9.882,5.564C-9.882,6.343 -9.952,6.906 -10.093,7.252C-10.233,7.597 -10.462,7.77 -10.778,7.77C-11.1,7.77 -11.33,7.599 -11.466,7.258C-11.602,6.917 -11.67,6.352 -11.67,5.564ZM-18.165,6.047C-18.165,6.642 -18.069,7.151 -17.878,7.572C-17.686,7.994 -17.413,8.315 -17.06,8.535C-16.707,8.755 -16.293,8.864 -15.819,8.864C-15.133,8.864 -14.597,8.664 -14.21,8.265C-13.824,7.865 -13.63,7.322 -13.63,6.636C-13.63,6.001 -13.793,5.503 -14.118,5.142C-14.443,4.782 -14.893,4.602 -15.467,4.602C-16.106,4.602 -16.57,4.851 -16.86,5.349L-16.917,5.349C-16.891,4.842 -16.805,4.451 -16.658,4.175C-16.512,3.9 -16.291,3.692 -15.997,3.551C-15.702,3.411 -15.322,3.34 -14.856,3.34C-14.601,3.34 -14.344,3.37 -14.083,3.428L-14.083,2.343C-14.291,2.299 -14.578,2.277 -14.944,2.277C-16.016,2.277 -16.821,2.588 -17.359,3.209C-17.897,3.83 -18.165,4.776 -18.165,6.047ZM-15.845,7.779C-16.126,7.779 -16.358,7.659 -16.542,7.419C-16.725,7.178 -16.816,6.884 -16.816,6.535C-16.816,6.298 -16.719,6.09 -16.524,5.911C-16.329,5.733 -16.094,5.643 -15.819,5.643C-15.526,5.643 -15.307,5.733 -15.162,5.913C-15.017,6.094 -14.944,6.34 -14.944,6.654C-14.944,7.014 -15.022,7.292 -15.177,7.487C-15.332,7.682 -15.555,7.779 -15.845,7.779ZM-19.901,8.776L-19.901,2.352L-21.017,2.352L-23.087,4L-22.432,4.817L-21.694,4.224C-21.606,4.153 -21.45,4.005 -21.224,3.78L-21.246,4.448L-21.259,5.059L-21.259,8.776L-19.901,8.776Z" style="fill:rgb(29,26,24);stroke:rgb(35,31,32);stroke-width:0.24px;"/>
            </g>
            <g transform="matrix(0.788223,0,0,0.788223,2555.11,1020.39)">
                <g transform="matrix(29.1667,0,0,29.1667,102.495,22.1598)">
                </g>
                <text x="14.81px" y="22.16px" style="font-family:'OpenSans-Bold', 'Open Sans', sans-serif;font-weight:700;font-size:29.167px;fill:rgb(35,31,32);">JAHRE</text>
            </g>
        </g>
    </g>
</svg>
