<svg data-name="logo Bg" xmlns="http://www.w3.org/2000/svg" viewBox="0 0 196 27.7183"><g fill="#d40511"><path d="M0 22.1h26.506l-1.448 1.971H0V22.1zM0 18.445h29.199l-1.451 1.967H0v-1.967zM0 25.759h23.815l-1.442 1.957H0v-1.957zM196 24.071h-26.402l1.447-1.969H196v1.969zM196 27.716l-29.087.002 1.441-1.959H196v1.957zM173.735 18.445H196v1.969l-23.713.001 1.448-1.97zM25.673 27.716l12.578-17.09h15.608c1.725 0 1.702.656.86 1.798-.857 1.16-2.314 3.155-3.186 4.333-.442.598-1.243 1.688 1.41 1.688h20.91c-1.74 2.382-7.38 9.27-17.509 9.27ZM97.706 18.443l-6.82 9.273H72.893s6.817-9.271 6.823-9.271l17.99-.002ZM123.724 18.445l-6.824 9.27H98.914s6.818-9.27 6.824-9.27ZM129.575 18.445s-1.314 1.797-1.953 2.66c-2.26 3.053-.263 6.61 7.111 6.61h28.885l6.823-9.271Z"></path><path d="m34.468 0-6.262 8.508h34.13c1.724 0 1.702.655.859 1.797-.857 1.16-2.29 3.177-3.162 4.354-.443.597-1.243 1.687 1.409 1.687h13.956s2.25-3.062 4.136-5.62C82.099 7.243 79.756 0 70.585 0ZM125.269 16.346H81.262L93.296 0h17.986l-6.896 9.372h8.028L119.315 0h17.984l-12.03 16.346zM162.208 0l-12.031 16.346h-19.06S143.154 0 143.16 0Z"></path></g></svg>