<svg id="Logo" xmlns="http://www.w3.org/2000/svg" width="243" height="92" viewBox="0 0 243 92">
  <g id="Gruppe_2410" data-name="Gruppe 2410">
    <path id="Pfad_1658" data-name="Pfad 1658" d="M209.435,41.748c0-.047-.038-.1-.038-.16.057.028.115.038.162.066-.028.047-.086.066-.124.094m31.335-9.7a11.146,11.146,0,0,0-12.046-2.674c-.909.338-1.779.713-2.65,1.116a2.581,2.581,0,0,0,.067-.319c0,.019.077-.357.077-.357a9.856,9.856,0,0,0-.449-6.257c-2.488-5.957-6.373-6.679-10.143-6.886H215.6c-3.97-.206-8.783,2.9-10.123,6.511a11.235,11.235,0,0,0-.824,4.137,9.7,9.7,0,0,0,2.019,5.788,6.713,6.713,0,0,0-.986,3.293v.093c-.106-.066-.2-.1-.306-.169a6.721,6.721,0,0,0-6.822-5.094,33.709,33.709,0,0,0-18.639,7.111,7.54,7.54,0,0,0-.823-1.932,7.45,7.45,0,0,0-7.195-3.621,11.227,11.227,0,0,0-2.344.525A6.974,6.974,0,0,0,167.03,32.2c-4.708-1.013-8.5.46-11.54,1.641-2.449.948-4.583,1.754-7.281,1.529a26.352,26.352,0,0,1-3.971-.919,19.922,19.922,0,0,0-6.554-1.116,5.894,5.894,0,0,0-1,.131,8.568,8.568,0,0,0-6.459-1.407c-.8.122-1.616.309-2.43.506a1.048,1.048,0,0,0,.22-.366l1.741-2.693c2.5-3.809,5.282-8.077,5.282-14.175,0-.628-.029-1.323-.086-2.008a8.6,8.6,0,0,0-3.109-6.1A8.308,8.308,0,0,0,125.744,5.6c-6.431.76-12.391,4.249-17.577,9.062a8.491,8.491,0,0,0-4.1-3.527C91.155,5.556,78.2,21.476,71.521,33.54c-.182-.179-.335-.366-.517-.526a9.854,9.854,0,0,0-5.654-2.27A51.874,51.874,0,0,0,78.937,15.491a11.529,11.529,0,0,0,1.522-5.629,9.436,9.436,0,0,0-.938-4.175A9.832,9.832,0,0,0,68.211.293a14.7,14.7,0,0,0-7.282,4.522c0,.009-5.253,6.088-5.253,6.088-1.148,1.341-2.287,2.655-3.483,3.977a6.117,6.117,0,0,0-.363-1.191,6.266,6.266,0,0,0-4.536-3.621l-.478-.085-.536.009c-6.076.056-10.611,2.974-14.629,5.554a50.974,50.974,0,0,1-4.784,2.861l-1.512.779-2.5,1.285-2.459,1.2C15.137,24.253,9.7,26.9,5.368,31.955a12.31,12.31,0,0,0-3.224,7.983,9.467,9.467,0,0,0,1.77,5.6,8.947,8.947,0,0,0,3.635,2.889A31.292,31.292,0,0,0,.737,58.512,10.859,10.859,0,0,0,0,62.386a9.51,9.51,0,0,0,5.779,8.931,12.318,12.318,0,0,0,12.457-1.791,41.016,41.016,0,0,0,5.454-5.441,16.959,16.959,0,0,0,2.344,8.33,12.336,12.336,0,0,0,9.492,5.759A14.149,14.149,0,0,0,47.3,74.356,6.4,6.4,0,0,0,49.362,70a5.741,5.741,0,0,0-.22-1.435,22.563,22.563,0,0,0,7.568,1.866c4.851.432,8.85-1.754,12.075-3.508.22-.132.44-.273.66-.385a14.005,14.005,0,0,0,6.937,3.237c5.042.816,10.237-.779,14.486-3.086a13.322,13.322,0,0,0,6.65,4.071,14.645,14.645,0,0,0,12.161-2.7c.44-.338.851-.694,1.244-1.061a12.97,12.97,0,0,0,5.454,3.556,15.557,15.557,0,0,0,13.06-1.4,34.5,34.5,0,0,0,8.353-6.792,9.776,9.776,0,0,0,1.512,1.98c-5.205,2.777-10.324,6.595-13.232,11.848a12.033,12.033,0,0,0-1.5,5.844,10.293,10.293,0,0,0,1.388,5.272,8.276,8.276,0,0,0,7.08,4.109c12.955.309,20.8-7.711,25.135-13.443a18.4,18.4,0,0,0-.526,4.343v.563a9.337,9.337,0,0,0,7.4,8.706c8.315,1.867,14.2-3.1,17.376-5.788,4.1-3.414,7.176-7.513,10.123-11.482l3.5-4.55c.909-1.126,3.349-2.721,5.845-4.222a13.844,13.844,0,0,0,1.655,2.42,11.754,11.754,0,0,0,5.483,3.752,18.757,18.757,0,0,0,16.361-2.383,24,24,0,0,0,9.357-12.721,19.813,19.813,0,0,0,.823-6.126c0-.7-.019-1.407-.029-2.064-.019-.638-.019-1.238-.019-1.811,0-.487.019-.947.029-1.388a8.067,8.067,0,0,0,6.679-4.456A7.648,7.648,0,0,0,243,37.452a7.858,7.858,0,0,0-2.23-5.4" transform="translate(0 0.001)" fill="#fff"/>
    <path id="Pfad_1659" data-name="Pfad 1659" d="M55.939,44.088a5.923,5.923,0,0,1,.622,5.019c-2.2,8.086-8.879,16.576-4.086,24.84,2.478,4.231,9.961,4.231,13.023.995,2.315-2.421-2.23.609-3.033-3.574-1.655-8.631,6.946-17.758,2.565-27.8,11.424-7.6,24.245-13.884,31.364-26.5a5.725,5.725,0,0,0,.45-5.16,4.694,4.694,0,0,0-5.435-2.664,9.319,9.319,0,0,0-4.622,2.946c-8.7,9.728-16.868,20.892-29,28.678Z" transform="translate(-21.962 -4.036)" fill="#d9000d"/>
    <path id="Pfad_1660" data-name="Pfad 1660" d="M37.365,51.248c-6.037,8.321-9.693,19.174-18.495,26.36a7.121,7.121,0,0,1-7.176,1.022c-2.488-1.022-3.109-4.052-2.2-6.285C14.507,59.822,30.026,55.413,33.93,42.476c.066-.309-.421-.685-1.082-.479-7.061,2.177-8.544,11.811-15.825,13.94A4.5,4.5,0,0,1,12.048,54.6c-1.742-2.439-.46-5.488,1.2-7.4,4.268-4.982,10.114-7.345,15.893-10.254,1.272-.628,2.784-1.426,4.048-2.073C39.25,31.792,43.67,27.073,50.272,27a1.38,1.38,0,0,1,.717,1.942c-4.2,6.557-7.855,12.167-11.73,18.781a29.78,29.78,0,0,0-1.894,3.527" transform="translate(-3.934 -11.975)" fill="#d9000d"/>
    <path id="Pfad_1661" data-name="Pfad 1661" d="M375.2,39.017c2.889.169,4.315.431,5.655,3.753.641,1.51.373,2.355.077,3.809-.537,2.852-7.023,9.352-10.037,7.5-.6-.4.631-1.877,1.282-2.955a1.8,1.8,0,0,0-.086-2.129c-2.957-2.6-2.651-4.766-1.895-6.764a6.342,6.342,0,0,1,5-3.208" transform="translate(-159.885 -17.306)" fill="#d9000d"/>
    <path id="Pfad_1662" data-name="Pfad 1662" d="M298.639,105.374c2.947-2.167,5.071-5.442,6.507-7.739.382-.62-.584.093-2.077.506-1.817.506-9.156,5.385-8.218,8.227a3.494,3.494,0,0,0,.775.5,6.046,6.046,0,0,0,3.014-1.491M342.6,85.627c3.721-2.683,5.7-9.1,4.353-13.715-2.622.975-7.253,4.8-10.343,7.73-3.693,3.508-.574.76,1.321,1.276,1.751.5,4.21,2.936,3.014,4.184-.441.46.861,1.1,1.655.525M322.894,63.15c1.78-.093,2.354,3.021.794,3.65-5.243,2.176-14.725,4.7-15.021,12.664-.057.591,1.244,2.083,3.119,1.295,5.665-2.439,7.119-9.071,12.008-12.861,2.765-2.11,5.578.948,4.535,3.706a51.569,51.569,0,0,1-5.339,9.775c-1,1.538,1.072.61,1.54.328,10.726-6.445,18.246-16.342,30.091-20.713a5.869,5.869,0,0,1,6.45,1.388,2.791,2.791,0,0,1,.535,3.161c-.851,1.848-3.119,1.473-5.023,1.811a2.564,2.564,0,0,0-1.636,1.689c-1.291,4.23.268,8.724-1.071,12.9a18.941,18.941,0,0,1-7.416,10.15,13.436,13.436,0,0,1-11.787,1.689,6.769,6.769,0,0,1-3.129-2.186c-5.329-6.229,3.254-9.982-1.6-7.242-3.98,2.242-11.376,6.051-13.9,9.155-4.372,5.469-7.817,11.041-12.955,15.338-3.712,3.171-7.587,5.873-12.869,4.681a4.311,4.311,0,0,1-3.358-3.921C286.468,96.922,303.892,93.957,311,88.01c-.718-.338-4.162,2.2-7.128,2.064-1.474-.057-3.761-.31-4.927-2.111a8.675,8.675,0,0,1,0-9.249c4.621-8.405,13.72-15.047,23.948-15.563" transform="translate(-124.061 -26.87)" fill="#d9000d"/>
    <path id="Pfad_1663" data-name="Pfad 1663" d="M92.242,57.294c1.273-1.717,2.5-3.705,2.574-5.6.028-1.107-.039-1.294-1.177-1.219-1.761.15-7.157,6.322-6.574,9.953.105.6,2.211-.234,2.42-.375a14.462,14.462,0,0,0,2.756-2.758m28.781-13.649c2.813-3.706,5.071-6.651,6.19-9.316a1.1,1.1,0,0,0-1.091-.994c-3.617.122-8.783,6.839-11.549,11.886-.976,1.763-2.727,6.266-2.449,7.3.871.638,6.477-5.675,8.9-8.874m23.8-.985c3.828-5.075,8.631-12.289,6.516-12.533-2.411-.066-11.319,9.381-14.486,18.818-.21.535-.42,1.8-.21,1.707,1.531-.544,5.846-4.888,8.18-7.992M95.667,44.376a4.778,4.778,0,0,1,5.99,5.075c-.651,7.11-4.334,11.369-11.185,16.388-.65.516.115.994.584,1,4.726.075,10.783-5.085,11.271-6.5.813-2.232,1.521-5.994,2.21-7.879.65-1.773,1.636-3.8,2.42-5.441,5.425-10.854,17.471-27.083,27.336-22.814,2.22.957,2.411,2.749,1.626,5.713-3.693,13.7-15.366,24.831-23.518,30.835-5.329,3.958,6.9,3.433,10.181.844.88-.694,2.8-1.566,3.062-2.907,2.459-12.871,16.515-37.674,33-39.606,1.674-.2,3.234.61,3.492,3.18.641,6.689-3.024,10.46-6.239,15.826-5.722,9.475-13.1,15.188-20.217,22.392-1.3,1.342-.966,4.756,2.822,5.169,1.617.169,3.158-.713,4.421-.816-.135,5.966-6.134,10.826-11.874,9.465-2.7-.638-5.272-3.076-5.205-5.282.115-3.34-.536-1.51-.947-1.145-5.626,4.775-16.916,9.09-21.758,1.014-3.722.854-8.449,5.441-13.644,4.963-3.444-.329-6.86-1.145-8.707-3.574-.67-.891-3.042,1.069-4.631.244-2.162-1.135-1.531-2.326-.574-3.367,1.053-1.192,4.1-1.248,4.287-3.443.832-8.809,6.87-17.176,15.8-19.334" transform="translate(-32.307 -8.453)" fill="#d9000d"/>
    <path id="Pfad_1664" data-name="Pfad 1664" d="M227.673,108.188c2.029-1.4,8.248-7.814,6.593-7.636-1.8.169-8.181,3.771-10.171,6.6-.661.929-.278,1.8.7,1.961a4.649,4.649,0,0,0,2.88-.929M253.057,69c-2.927.46-11.4,6.492-14.275,11.126a3.768,3.768,0,0,0-.516,3.433,2.236,2.236,0,0,0,2.947,1.079c6.085-2.157,7.167-9.08,10.86-13.555.517-1.332,6.439-5.957,8.362-2.711C262.7,72.25,255.067,81.64,251.192,88c-.316.506-.364,1.238.392.938,1.933-.713,3.942-2.871,4.995-3.658,2.774,1.351-4.057,10.976-12.027,13.011-2.259.563-8.391,17.889-25.6,17.5-3.559-.075-4.219-4.719-2.545-7.758,4.449-8.077,16.265-12.486,21.969-14.175a9.836,9.836,0,0,0,2.382-2.7c.278-.891-.181-.535-.469-.422-3.923,1.736-7.55,2.533-10.506.431-6.018-4.231-.115-13.068,4.87-16.688-3.052.3-5.463.188-7.568-1.06-.6-.385-1.5,1.566-1.684,3.03-.852,7.665-6.526,14.09-12.831,17.814a10.328,10.328,0,0,1-8.783.91,7.961,7.961,0,0,1-5.329-6.725c-1.082-10.658,7.693-20.254,18.39-21.952a3.379,3.379,0,0,1,3.961,2.289l-.421.4c-4.995,1.623-8.659,6.585-10.286,10.225-.795,1.764-2.268,6.82,1.665,6.051,6.114-1.182,9.175-9.644,8.123-13.771l.086-1.323a38.866,38.866,0,0,1,3.741-2.561h.106c2.2-.15,6.574,1.764,9.711,2.026,7.884.694,11.874-4.616,18.217-3.255a3.732,3.732,0,0,1,1.4.882c.546.376.67,1.557.44,1.492-.048,0-.383.037-.527.056" transform="translate(-85.789 -29.431)" fill="#d9000d"/>
    <path id="Pfad_1665" data-name="Pfad 1665" d="M55.939,44.088a5.923,5.923,0,0,1,.622,5.019c-2.2,8.086-8.879,16.576-4.086,24.84,2.478,4.231,9.961,4.231,13.023.995,2.315-2.421-2.23.609-3.033-3.574-1.655-8.631,6.946-17.758,2.565-27.8,11.424-7.6,24.245-13.884,31.364-26.5a5.725,5.725,0,0,0,.45-5.16,4.694,4.694,0,0,0-5.435-2.664,9.319,9.319,0,0,0-4.622,2.946c-8.7,9.728-16.868,20.892-29,28.678Z" transform="translate(-21.962 -4.036)" fill="#f60b45"/>
    <path id="Pfad_1666" data-name="Pfad 1666" d="M37.365,51.248c-6.037,8.321-9.693,19.174-18.495,26.36a7.121,7.121,0,0,1-7.176,1.022c-2.488-1.022-3.109-4.052-2.2-6.285C14.507,59.822,30.026,55.413,33.93,42.476c.066-.309-.421-.685-1.082-.479-7.061,2.177-8.544,11.811-15.825,13.94A4.5,4.5,0,0,1,12.048,54.6c-1.742-2.439-.46-5.488,1.2-7.4,4.268-4.982,10.114-7.345,15.893-10.254,1.272-.628,2.784-1.426,4.048-2.073C39.25,31.792,43.67,27.073,50.272,27a1.38,1.38,0,0,1,.717,1.942c-4.2,6.557-7.855,12.167-11.73,18.781a29.78,29.78,0,0,0-1.894,3.527" transform="translate(-3.934 -11.975)" fill="#f60b45"/>
    <path id="Pfad_1667" data-name="Pfad 1667" d="M375.2,39.017c2.889.169,4.315.431,5.655,3.753.641,1.51.373,2.355.077,3.809-.537,2.852-7.023,9.352-10.037,7.5-.6-.4.631-1.877,1.282-2.955a1.8,1.8,0,0,0-.086-2.129c-2.957-2.6-2.651-4.766-1.895-6.764a6.342,6.342,0,0,1,5-3.208" transform="translate(-159.885 -17.306)" fill="#f60b45"/>
    <path id="Pfad_1668" data-name="Pfad 1668" d="M298.639,105.374c2.947-2.167,5.071-5.442,6.507-7.739.382-.62-.584.093-2.077.506-1.817.506-9.156,5.385-8.218,8.227a3.494,3.494,0,0,0,.775.5,6.046,6.046,0,0,0,3.014-1.491M342.6,85.627c3.721-2.683,5.7-9.1,4.353-13.715-2.622.975-7.253,4.8-10.343,7.73-3.693,3.508-.574.76,1.321,1.276,1.751.5,4.21,2.936,3.014,4.184-.441.46.861,1.1,1.655.525M322.894,63.15c1.78-.093,2.354,3.021.794,3.65-5.243,2.176-14.725,4.7-15.021,12.664-.057.591,1.244,2.083,3.119,1.295,5.665-2.439,7.119-9.071,12.008-12.861,2.765-2.11,5.578.948,4.535,3.706a51.569,51.569,0,0,1-5.339,9.775c-1,1.538,1.072.61,1.54.328,10.726-6.445,18.246-16.342,30.091-20.713a5.869,5.869,0,0,1,6.45,1.388,2.791,2.791,0,0,1,.535,3.161c-.851,1.848-3.119,1.473-5.023,1.811a2.564,2.564,0,0,0-1.636,1.689c-1.291,4.23.268,8.724-1.071,12.9a18.941,18.941,0,0,1-7.416,10.15,13.436,13.436,0,0,1-11.787,1.689,6.769,6.769,0,0,1-3.129-2.186c-5.329-6.229,3.254-9.982-1.6-7.242-3.98,2.242-11.376,6.051-13.9,9.155-4.372,5.469-7.817,11.041-12.955,15.338-3.712,3.171-7.587,5.873-12.869,4.681a4.311,4.311,0,0,1-3.358-3.921C286.468,96.922,303.892,93.957,311,88.01c-.718-.338-4.162,2.2-7.128,2.064-1.474-.057-3.761-.31-4.927-2.111a8.675,8.675,0,0,1,0-9.249c4.621-8.405,13.72-15.047,23.948-15.563" transform="translate(-124.061 -26.87)" fill="#f60b45"/>
    <path id="Pfad_1669" data-name="Pfad 1669" d="M92.242,57.294c1.273-1.717,2.5-3.705,2.574-5.6.028-1.107-.039-1.294-1.177-1.219-1.761.15-7.157,6.322-6.574,9.953.105.6,2.211-.234,2.42-.375a14.462,14.462,0,0,0,2.756-2.758m28.781-13.649c2.813-3.706,5.071-6.651,6.19-9.316a1.1,1.1,0,0,0-1.091-.994c-3.617.122-8.783,6.839-11.549,11.886-.976,1.763-2.727,6.266-2.449,7.3.871.638,6.477-5.675,8.9-8.874m23.8-.985c3.828-5.075,8.631-12.289,6.516-12.533-2.411-.066-11.319,9.381-14.486,18.818-.21.535-.42,1.8-.21,1.707,1.531-.544,5.846-4.888,8.18-7.992M95.667,44.376a4.778,4.778,0,0,1,5.99,5.075c-.651,7.11-4.334,11.369-11.185,16.388-.65.516.115.994.584,1,4.726.075,10.783-5.085,11.271-6.5.813-2.232,1.521-5.994,2.21-7.879.65-1.773,1.636-3.8,2.42-5.441,5.425-10.854,17.471-27.083,27.336-22.814,2.22.957,2.411,2.749,1.626,5.713-3.693,13.7-15.366,24.831-23.518,30.835-5.329,3.958,6.9,3.433,10.181.844.88-.694,2.8-1.566,3.062-2.907,2.459-12.871,16.515-37.674,33-39.606,1.674-.2,3.234.61,3.492,3.18.641,6.689-3.024,10.46-6.239,15.826-5.722,9.475-13.1,15.188-20.217,22.392-1.3,1.342-.966,4.756,2.822,5.169,1.617.169,3.158-.713,4.421-.816-.135,5.966-6.134,10.826-11.874,9.465-2.7-.638-5.272-3.076-5.205-5.282.115-3.34-.536-1.51-.947-1.145-5.626,4.775-16.916,9.09-21.758,1.014-3.722.854-8.449,5.441-13.644,4.963-3.444-.329-6.86-1.145-8.707-3.574-.67-.891-3.042,1.069-4.631.244-2.162-1.135-1.531-2.326-.574-3.367,1.053-1.192,4.1-1.248,4.287-3.443.832-8.809,6.87-17.176,15.8-19.334" transform="translate(-32.307 -8.453)" fill="#f60b45"/>
    <path id="Pfad_1670" data-name="Pfad 1670" d="M227.673,108.188c2.029-1.4,8.248-7.814,6.593-7.636-1.8.169-8.181,3.771-10.171,6.6-.661.929-.278,1.8.7,1.961a4.649,4.649,0,0,0,2.88-.929M253.057,69c-2.927.46-11.4,6.492-14.275,11.126a3.768,3.768,0,0,0-.516,3.433,2.236,2.236,0,0,0,2.947,1.079c6.085-2.157,7.167-9.08,10.86-13.555.517-1.332,6.439-5.957,8.362-2.711C262.7,72.25,255.067,81.64,251.192,88c-.316.506-.364,1.238.392.938,1.933-.713,3.942-2.871,4.995-3.658,2.774,1.351-4.057,10.976-12.027,13.011-2.259.563-8.391,17.889-25.6,17.5-3.559-.075-4.219-4.719-2.545-7.758,4.449-8.077,16.265-12.486,21.969-14.175a9.836,9.836,0,0,0,2.382-2.7c.278-.891-.181-.535-.469-.422-3.923,1.736-7.55,2.533-10.506.431-6.018-4.231-.115-13.068,4.87-16.688-3.052.3-5.463.188-7.568-1.06-.6-.385-1.5,1.566-1.684,3.03-.852,7.665-6.526,14.09-12.831,17.814a10.328,10.328,0,0,1-8.783.91,7.961,7.961,0,0,1-5.329-6.725c-1.082-10.658,7.693-20.254,18.39-21.952a3.379,3.379,0,0,1,3.961,2.289l-.421.4c-4.995,1.623-8.659,6.585-10.286,10.225-.795,1.764-2.268,6.82,1.665,6.051,6.114-1.182,9.175-9.644,8.123-13.771l.086-1.323a38.866,38.866,0,0,1,3.741-2.561h.106c2.2-.15,6.574,1.764,9.711,2.026,7.884.694,11.874-4.616,18.217-3.255a3.732,3.732,0,0,1,1.4.882c.546.376.67,1.557.44,1.492-.048,0-.383.037-.527.056" transform="translate(-85.789 -29.431)" fill="#f60b45"/>
    <path id="Pfad_1671" data-name="Pfad 1671" d="M412.77,112.875a5.226,5.226,0,1,0-5.253,5.085,4.987,4.987,0,0,0,5.253-5.085m-6.1-.516v-1.332l.843.028c.459,0,1.052.019,1.052.6,0,.6-.306.7-.832.7Zm0,.947h.555l1.291,2.3h1.416l-1.416-2.4a1.28,1.28,0,0,0,1.34-1.407c0-1.276-.852-1.7-2.287-1.7h-2.1V115.6h1.2Zm4.574-.431a3.732,3.732,0,0,1-3.731,3.912v-.019a3.666,3.666,0,0,1-3.7-3.912,3.722,3.722,0,1,1,7.435.018" transform="translate(-173.999 -47.805)" fill="#f60b45"/>
    <g id="K--Logo" transform="translate(0 0.001)">
      <rect id="Rechteck_4016" data-name="Rechteck 4016" width="242.231" height="91.999" fill="none"/>
    </g>
  </g>
</svg>
