<svg width="166" height="31" viewBox="0 0 166 31" fill="none" xmlns="http://www.w3.org/2000/svg">
<path d="M19.4607 11.698C20.3123 11.2969 21.0446 10.6777 21.5836 9.90833C22.1164 9.11223 22.464 8.2071 22.6019 7.26083C22.7705 6.24668 22.7129 5.36212 22.4332 4.61128C22.1575 3.86249 21.6124 3.24124 20.9068 2.86685C20.1745 2.44308 19.1891 2.2312 17.9528 2.2312H13.6267L11.9316 12.3357H16.2701C17.5146 12.3357 18.5782 12.1238 19.4627 11.7001L19.4607 11.698Z" fill="white"/>
<path d="M6.68388 2.77622C-0.495429 5.218 -2.34065 14.5141 3.36165 19.5108L4.17215 20.2205L7.10147 2.63428L6.68388 2.77622Z" fill="white"/>
<path d="M28.3474 0.955811C28.5264 1.26849 28.6827 1.59763 28.8123 1.93705C29.413 3.47577 29.5529 5.25105 29.2279 7.2629C28.9275 9.19247 28.1705 11.0233 27.0226 12.6052C25.8933 14.1439 24.3916 15.3761 22.6595 16.1846C20.8719 17.0403 18.8066 17.4682 16.4614 17.4682H11.0718L9.78613 25.1371L12.6846 27.6776C18.3869 32.6744 27.36 29.6237 28.837 22.1872L31.25 10.0359C31.9618 6.45446 30.6761 3.15074 28.3515 0.957868L28.3474 0.955811Z" fill="white"/>
<path d="M39.3198 6.33736C39.3198 6.24685 39.3589 6.20776 39.4494 6.20776H47.215C50.2184 6.20776 52.8062 8.74418 52.8062 11.9677C52.8062 15.1912 50.2184 17.7132 47.215 17.7132H42.6071C42.5433 17.7132 42.5042 17.7523 42.5042 17.816V24.7402C42.5042 24.8308 42.4651 24.8698 42.3746 24.8698H39.4494C39.3589 24.8698 39.3198 24.8308 39.3198 24.7402V6.33736ZM42.5022 14.6728C42.5022 14.7633 42.5413 14.8024 42.6318 14.8024H46.9538C48.3773 14.8024 49.6588 13.5208 49.6588 11.9677C49.6588 10.4145 48.3773 9.12063 46.9538 9.12063H42.605C42.5413 9.12063 42.5022 9.15971 42.5022 9.23788V14.6728Z" fill="white"/>
<path d="M54.707 6.33736C54.707 6.24685 54.7461 6.20776 54.8366 6.20776H57.7495C57.84 6.20776 57.8791 6.24685 57.8914 6.33736V24.7423C57.8914 24.8328 57.84 24.8719 57.7495 24.8719H54.8366C54.7461 24.8719 54.707 24.8328 54.707 24.7423V6.33736Z" fill="white"/>
<path d="M66.807 11.1917C70.6888 11.1917 73.2787 14.0387 73.2787 18.1673C73.2396 18.698 73.2149 18.9428 73.1491 19.2555C73.11 19.346 73.0709 19.3851 73.0071 19.3851H63.7913C63.7008 19.3851 63.6617 19.4242 63.6493 19.5147C63.6493 21.0041 64.9433 22.2198 66.807 22.2198C67.9857 22.2198 68.9176 21.9483 69.3825 21.0287C69.4216 20.9382 69.4854 20.8991 69.5903 20.8991H72.6965C72.8138 20.8991 72.8652 20.9382 72.8261 21.0287C72.5278 22.3227 71.8305 23.3327 70.7299 24.0445C69.6294 24.7686 68.3231 25.1306 66.8091 25.1306C62.9273 25.1306 60.3374 22.3083 60.3374 18.1673C60.3374 14.0263 62.9252 11.1917 66.8091 11.1917H66.807ZM63.7666 16.7294H69.7857C69.8495 16.7294 69.8886 16.6903 69.8886 16.6265C69.8886 15.5651 69.0081 14.1148 66.8091 14.1148C64.61 14.1148 63.6514 15.5774 63.6514 16.6265C63.6514 16.6924 63.6905 16.7294 63.7687 16.7294H63.7666Z" fill="white"/>
<path d="M75.7101 11.5928C75.7101 11.5023 75.7492 11.4632 75.8397 11.4632H78.3637C78.5057 11.4632 78.5838 11.5023 78.5962 11.5928L78.8945 12.4074C78.9336 12.5103 79.0755 12.5761 79.1783 12.4341C79.67 11.8006 81.1984 11.1917 82.336 11.1917C86.5161 11.1917 87.9272 14.1683 87.9272 17.507V24.7418C87.9272 24.8323 87.8881 24.8714 87.7976 24.8714H84.8848C84.7943 24.8714 84.7552 24.8323 84.7428 24.7418V17.507C84.7428 15.9148 83.9138 14.1169 81.8053 14.1169C79.6967 14.1169 78.8924 15.6432 78.8924 17.2354V24.7418C78.8924 24.8323 78.841 24.8714 78.7505 24.8714H75.8376C75.7471 24.8714 75.708 24.8323 75.708 24.7418V11.5928H75.7101Z" fill="white"/>
<path d="M89.1636 11.5934C89.1636 11.5029 89.2027 11.4638 89.2932 11.4638H91.4675C91.5581 11.4638 91.5971 11.4123 91.5971 11.3218V7.75069C91.5971 7.66018 91.6362 7.62109 91.7267 7.62109H94.6519C94.7424 7.62109 94.7815 7.66018 94.7815 7.75069V11.3218C94.7815 11.4123 94.8206 11.4514 94.9111 11.4638H97.6162C97.7067 11.4638 97.7458 11.5029 97.7458 11.5934V14.1174C97.7458 14.208 97.7067 14.247 97.6162 14.247H94.9111C94.8206 14.247 94.7815 14.2861 94.7815 14.3766V21.1075C94.7815 21.6382 95.2094 21.9612 95.7401 21.9612H97.6162C97.7067 21.9612 97.7458 22.0003 97.7458 22.0908V24.7445C97.7458 24.835 97.7067 24.8741 97.6162 24.8741H95.5447C92.7491 24.8741 91.5971 23.7879 91.5971 21.1342V14.3787C91.5971 14.2882 91.5581 14.2491 91.4675 14.2491H89.2932C89.2027 14.2491 89.1636 14.21 89.1636 14.1195V11.5954V11.5934Z" fill="white"/>
<path d="M99.4822 11.5932C99.4431 11.5027 99.4945 11.4636 99.6118 11.4636H102.718C102.782 11.4636 102.835 11.5027 102.872 11.5932L106.081 21.8561C106.145 21.9981 106.275 21.9981 106.341 21.8561L109.55 11.5932C109.589 11.5027 109.64 11.4636 109.704 11.4636H112.783C112.901 11.4636 112.952 11.5027 112.913 11.5932L107.826 26.7747C107.05 29.0396 105.793 30.1257 103.528 30.1257H99.6323C99.5418 30.1257 99.5027 30.0743 99.5027 29.9838V27.4988C99.5027 27.4083 99.5418 27.3692 99.6323 27.3692H102.868C103.71 27.3692 104.084 27.0709 104.189 26.5669C104.216 26.4497 104.228 26.3468 104.228 26.2295C104.228 26.0753 104.201 25.9066 104.164 25.7256C104.1 25.4273 104.01 25.092 103.905 24.7423L99.478 11.5932H99.4822Z" fill="white"/>
<path d="M122.77 5.95044C128.349 5.95044 131.169 9.94946 131.169 15.5407C131.169 21.1319 128.347 25.1309 122.77 25.1309C117.193 25.1309 114.371 21.1957 114.371 15.5407C114.371 9.88569 117.179 5.95044 122.77 5.95044ZM118.977 20.4448C119.845 21.6215 121.1 22.2181 122.768 22.2181C124.437 22.2181 125.693 21.6235 126.559 20.4448C127.426 19.2661 127.853 17.6225 127.853 15.5386C127.853 13.4548 127.426 11.8111 126.559 10.6324C125.691 9.45575 124.424 8.85919 122.768 8.85919C121.112 8.85919 119.843 9.45369 118.977 10.6324C118.109 11.8111 117.683 13.4548 117.683 15.5386C117.683 17.6225 118.111 19.2661 118.977 20.4448Z" fill="white"/>
<path d="M133.782 6.33736C133.782 6.24685 133.821 6.20776 133.912 6.20776H137.859C137.911 6.20776 137.962 6.24685 138.028 6.33736L145.29 20.2887C145.353 20.4574 145.549 20.4306 145.549 20.2887V6.33736C145.549 6.24685 145.6 6.20776 145.691 6.20776H148.604C148.694 6.20776 148.733 6.24685 148.733 6.33736V24.7423C148.733 24.8328 148.694 24.8719 148.604 24.8719H144.656C144.566 24.8719 144.502 24.8328 144.463 24.7423L137.228 10.8033C137.164 10.6347 136.969 10.6491 136.969 10.8033V24.7423C136.969 24.8328 136.93 24.8719 136.839 24.8719H133.889C133.825 24.8719 133.786 24.8328 133.786 24.7423V6.33736H133.782Z" fill="white"/>
<path d="M152.07 6.33736C152.07 6.24685 152.109 6.20776 152.199 6.20776H165.167C165.258 6.20776 165.297 6.24685 165.297 6.33736V8.99103C165.297 9.08154 165.258 9.12063 165.167 9.12063H155.384C155.293 9.12063 155.254 9.17206 155.254 9.26257V13.8191C155.254 13.9096 155.293 13.9487 155.384 13.9487H163.834C163.925 13.9487 163.964 13.9877 163.976 14.0783V16.7319C163.976 16.8224 163.925 16.8615 163.834 16.8739H155.384C155.293 16.8739 155.254 16.913 155.254 17.0035V21.8171C155.254 21.9076 155.293 21.9467 155.384 21.959H165.167C165.258 21.959 165.297 21.9981 165.297 22.0886V24.7423C165.297 24.8328 165.258 24.8719 165.167 24.8719H152.199C152.109 24.8719 152.07 24.8328 152.07 24.7423V6.33736Z" fill="white"/>
</svg>
