<?xml version="1.0" encoding="UTF-8" standalone="no"?><!DOCTYPE svg PUBLIC "-//W3C//DTD SVG 1.1//EN" "http://www.w3.org/Graphics/SVG/1.1/DTD/svg11.dtd"><svg width="100%" height="100%" viewBox="0 0 7175 1140" version="1.1" xmlns="http://www.w3.org/2000/svg" xmlns:xlink="http://www.w3.org/1999/xlink" xml:space="preserve" xmlns:serif="http://www.serif.com/" style="fill-rule:evenodd;clip-rule:evenodd;stroke-linejoin:round;stroke-miterlimit:2;"><g><path d="M5812.54,0.346l-0,447.122l101.235,0l-0,-146.791l43.447,2.109c91.955,4.64 152.696,-26.574 174.631,-89.003c11.389,-32.057 10.545,-103.344 -1.688,-129.496c-19.825,-43.447 -58.632,-70.443 -115.155,-79.301c-15.185,-2.531 -66.646,-4.64 -114.733,-4.64l-87.737,-0Zm192.769,95.33c22.356,16.872 28.683,29.948 28.683,58.632c-0,45.556 -24.044,66.646 -75.505,67.068c-47.243,0.422 -44.712,4.64 -44.712,-71.708l-0,-65.803l40.072,1.687c31.636,1.266 42.182,3.375 51.462,10.124Z" style="fill:#fff;fill-rule:nonzero;"/><path d="M6165.18,66.57c7.593,36.698 28.683,137.512 46.821,223.562l32.902,157.336l107.14,0l32.058,-100.391c55.258,-172.522 62.851,-194.878 65.381,-194.878c1.266,-0 23.2,66.224 49.353,146.791l46.821,146.369l108.406,0l45.134,-210.907c24.465,-115.998 45.978,-215.968 47.243,-222.717l2.531,-11.389l-100.392,-0l-2.109,13.498c-1.265,7.592 -12.232,75.504 -24.465,151.009c-12.232,75.505 -23.2,138.355 -24.887,140.464c-1.265,1.687 -23.621,-65.803 -49.352,-149.744l-46.821,-153.118l-96.174,-2.531l-37.541,129.919c-20.669,71.286 -40.916,142.151 -45.556,157.336l-8.436,27.418l-24.466,-143.417c-13.498,-78.879 -25.73,-149.744 -26.996,-157.336l-2.531,-13.498l-108.406,-0l14.342,66.224Z" style="fill:#fff;fill-rule:nonzero;"/><path d="M6812.24,220.111c-45.134,121.06 -83.097,221.452 -83.519,223.561c-0.844,2.531 19.825,3.374 50.196,2.953l51.883,-1.266l17.716,-46.399l17.295,-46.4l163.241,0l35.433,92.799l55.257,1.266c30.371,0.421 55.258,0.421 55.258,-0c0,-0.844 -37.541,-100.814 -83.519,-222.718l-83.519,-221.452l-56.523,-1.266l-56.945,-0.843l-82.254,219.765Zm162.82,-36.276l25.731,86.471l-51.883,0c-28.683,0 -52.305,-1.265 -52.305,-2.952c-0,-7.593 48.509,-169.991 50.618,-169.991c1.265,-0 13.919,38.807 27.839,86.472Z" style="fill:#fff;fill-rule:nonzero;"/><path d="M657.978,21.436l-0,835.192l172.944,-0l-0,-835.192l-172.944,0Z" style="fill:#fff;fill-rule:nonzero;"/><path d="M3863.76,21.436l0,835.192l172.944,-0l-0,-369.087l24.465,-15.608c39.651,-25.73 63.272,-34.588 91.534,-34.588c31.636,-0.422 49.774,9.701 61.163,33.323c8.014,16.451 8.436,26.574 8.436,201.627l-0,184.333l172.944,-0l-0,-210.064c-0,-228.201 -1.266,-242.543 -24.044,-284.724c-15.185,-27.418 -46.821,-55.258 -76.348,-66.646c-19.825,-8.015 -32.48,-9.702 -74.661,-9.702c-59.898,-0.422 -88.581,6.327 -141.308,32.479c-19.825,9.702 -37.119,18.138 -38.807,18.982c-2.109,0.844 -3.374,-69.599 -3.374,-156.915l-0,-158.602l-172.944,0Z" style="fill:#fff;fill-rule:nonzero;"/><path d="M3467.26,78.803c-85.628,11.811 -150.165,48.509 -183.067,104.188c-34.167,57.367 -36.698,150.588 -6.327,210.907c27.84,55.258 67.068,86.472 176.318,140.464c47.243,23.2 87.316,45.978 97.861,55.257c40.072,36.276 43.869,86.472 8.858,115.999c-19.825,16.451 -40.916,22.356 -83.097,21.935c-43.869,-0 -88.159,-9.28 -146.791,-29.949c-22.778,-8.015 -42.182,-13.92 -43.025,-13.498c-0.422,0.843 -11.811,32.479 -24.887,70.443l-23.2,68.333l15.607,6.749c50.618,21.091 153.54,39.651 222.296,39.651c176.74,-0 278.819,-73.396 287.677,-206.689c7.592,-114.733 -45.134,-195.299 -163.664,-250.557c-17.294,-8.015 -49.774,-23.2 -72.552,-33.745c-48.93,-22.778 -72.13,-39.651 -83.097,-62.007c-15.186,-29.527 -9.28,-59.476 16.872,-80.988c33.324,-28.262 107.141,-26.152 201.205,5.062c30.371,9.701 35.011,10.545 36.698,5.061c1.266,-3.796 10.124,-32.901 19.404,-64.959c9.701,-32.058 16.45,-60.741 15.607,-63.694c-2.531,-5.905 -48.931,-20.669 -95.752,-29.948c-31.636,-6.328 -145.104,-11.389 -172.944,-8.015Z" style="fill:#fff;fill-rule:nonzero;"/><path d="M2341.01,99.472c-40.494,9.702 -78.879,18.982 -85.207,20.247l-11.81,2.953l-0,172.943l-80.145,0l-0,126.544l79.301,0l2.109,148.479c2.109,158.18 3.375,169.147 24.465,213.016c29.949,62.006 103.766,93.642 204.58,88.159c38.807,-2.109 101.657,-12.233 106.719,-17.294c1.687,-2.11 -19.826,-129.497 -22.778,-132.028c-0.422,-0.422 -9.28,0.843 -19.404,2.953c-10.123,2.53 -31.636,4.639 -48.086,4.639c-36.698,0 -53.993,-9.279 -65.382,-35.01c-7.592,-16.029 -8.436,-28.683 -8.436,-145.526l0,-127.388l139.199,0l-0,-126.544l-139.199,0l-0.843,-106.719l-1.266,-106.718l-73.817,17.294Z" style="fill:#fff;fill-rule:nonzero;"/><path d="M202.419,281.274c-69.177,8.436 -91.533,11.81 -126.544,18.559c-21.934,4.64 -47.243,10.546 -55.679,12.655l-16.029,4.64l-0,822.115l172.943,-0l0,-141.308c0,-77.614 0.844,-141.307 1.688,-141.307c0.843,-0 9.701,2.952 19.825,7.17c28.261,10.546 109.671,9.28 153.118,-2.53c55.68,-14.764 99.548,-43.447 131.184,-86.05c42.603,-56.524 58.632,-113.89 58.211,-207.533c-0.422,-50.196 -2.11,-70.021 -9.28,-96.173c-32.902,-123.592 -118.952,-184.755 -266.165,-190.238c-26.574,-0.844 -55.257,-0.844 -63.272,-0Zm83.519,143.416c56.101,18.138 81.832,66.647 81.41,155.65c0,71.708 -21.512,119.373 -65.381,142.573c-13.92,7.592 -24.043,9.28 -53.148,8.858c-19.826,-0 -43.869,-2.109 -53.993,-5.062l-17.716,-5.484l0.844,-146.369l1.265,-146.369l18.982,-5.062c27.418,-7.171 63.272,-6.327 87.737,1.265Z" style="fill:#fff;fill-rule:nonzero;"/><path d="M5338.42,285.492c-42.603,5.483 -139.62,25.309 -146.791,29.949c-2.109,0.843 -3.375,186.863 -3.375,412.955l0,410.847l172.944,-0l-0,-282.194l18.138,6.749c25.731,10.124 117.686,9.702 154.806,-0.421c94.064,-25.731 159.023,-95.33 183.91,-196.566c10.968,-43.868 10.968,-145.104 0.422,-191.081c-22.778,-96.174 -86.893,-161.133 -184.332,-186.442c-38.807,-9.702 -137.512,-11.811 -195.722,-3.796Zm142.151,144.26c44.713,19.825 66.225,61.163 69.6,132.871c5.905,134.137 -53.993,191.082 -171.257,162.399l-17.716,-4.218l0.844,-146.37l1.265,-145.947l23.2,-5.062c29.527,-6.749 71.286,-3.796 94.064,6.327Z" style="fill:#fff;fill-rule:nonzero;"/><path d="M1160.78,287.601c-106.719,13.92 -181.802,82.675 -207.532,189.816c-23.622,99.548 -9.702,218.5 33.745,285.568c32.901,51.039 81.832,85.628 141.729,100.813c40.494,9.702 134.559,9.702 183.067,-0.421c36.698,-8.015 104.61,-29.949 111.359,-36.276c2.953,-2.953 -20.247,-111.359 -24.887,-117.265c-0.844,-0.843 -21.512,5.484 -45.978,13.92c-110.937,37.12 -192.347,27.418 -226.514,-26.574c-13.498,-21.513 -24.887,-54.836 -24.887,-73.396l0,-11.81l164.086,-0c113.046,-0 165.351,-1.266 167.038,-4.64c1.687,-2.531 4.218,-31.636 5.062,-64.538c2.953,-70.021 -3.375,-107.562 -25.309,-151.009c-40.494,-81.41 -132.871,-119.795 -250.979,-104.188Zm94.064,132.028c20.669,12.232 35.433,37.119 38.807,65.802l2.531,21.091l-195.3,0l2.531,-11.811c11.389,-46.821 36.276,-75.504 75.505,-85.628c20.669,-5.483 57.367,-0.422 75.926,10.546Z" style="fill:#fff;fill-rule:nonzero;"/><path d="M1874.91,285.914c-40.916,5.905 -94.065,24.887 -132.872,47.665c-11.811,6.749 -22.356,12.654 -23.2,12.654c-1.265,-0 -2.109,-11.389 -2.109,-25.309l0,-25.309l-164.507,0l0,561.013l172.944,-0l-0,-369.931l16.029,-10.967c8.858,-5.906 28.261,-16.873 43.446,-24.465c22.778,-11.811 31.636,-13.92 57.367,-14.342c34.589,-0 48.93,7.171 61.163,32.058c6.749,13.076 7.593,31.636 7.593,200.783l-0,186.864l172.943,-0l0,-205.846c0,-222.295 -1.687,-240.855 -22.778,-282.615c-5.905,-11.811 -16.45,-27.839 -23.199,-35.854c-31.215,-35.01 -100.392,-54.836 -162.82,-46.399Z" style="fill:#fff;fill-rule:nonzero;"/><path d="M4730.17,288.866c-38.385,7.171 -56.945,13.498 -86.472,28.262c-56.945,28.261 -101.657,81.41 -124.013,147.213c-10.546,31.636 -12.233,43.447 -13.92,101.235c-1.266,56.101 -0.422,70.443 7.171,102.923c27.839,115.577 101.235,182.645 221.452,201.205c35.854,5.905 104.61,2.531 139.62,-6.749c34.589,-8.858 88.581,-36.276 112.624,-56.945c61.585,-53.149 95.752,-150.588 90.69,-257.306c-2.952,-56.945 -10.123,-87.738 -31.214,-130.763c-29.105,-59.897 -88.159,-105.875 -159.445,-124.857c-35.011,-8.858 -118.952,-11.389 -156.493,-4.218Zm107.984,138.355c23.622,12.233 44.29,38.807 53.57,70.021c11.389,37.12 10.546,124.435 -1.687,163.242c-16.873,52.727 -48.087,78.036 -96.595,78.036c-75.927,-0.422 -116.421,-67.49 -110.094,-183.067c3.375,-66.647 23.622,-109.25 61.585,-129.075c22.356,-11.811 68.756,-11.389 93.221,0.843Z" style="fill:#fff;fill-rule:nonzero;"/><path d="M2591.15,309.113c3.375,7.593 55.68,130.341 116.421,272.914l110.937,258.993l-9.702,17.295c-45.134,81.41 -91.533,118.529 -167.038,132.871c-19.404,3.375 -35.011,7.593 -35.011,8.858c0,5.062 28.684,126.966 29.949,128.653c3.796,3.375 80.145,-10.545 110.094,-20.247c87.737,-27.839 154.383,-90.268 205.423,-191.503c9.702,-19.403 68.755,-165.351 131.606,-324.797c62.85,-159.867 115.155,-291.473 116.42,-293.582c0.844,-1.687 -38.807,-2.953 -88.159,-2.953l-90.268,0l-56.101,165.351c-31.214,91.112 -57.789,167.039 -59.054,168.726c-1.266,1.687 -31.214,-72.552 -65.803,-164.508l-63.694,-167.46l-95.752,-1.265l-95.751,-0.844l5.483,13.498Z" style="fill:#fff;fill-rule:nonzero;"/></g></svg>