<svg fill="none" xmlns="http://www.w3.org/2000/svg" viewBox="0 0 192 192"><path d="M73.9 124.2c-2-.2-4-.7-6-1.4a.4.4 0 0 0-.2.8c2 .7 4 1.2 6.1 1.4 2.6 0 5.3-.5 7.6-1.8-1.2-5.4-6.4-3.5-7.5 1ZM141 71a47.1 47.1 0 0 0-47-38.7 46.8 46.8 0 0 0-47 38.9c1.2-5.5 9.1-10.8 20.4-8.1C72 53.6 85 50.8 94 58.1c9.3-8.1 22-4.5 26.6 5 11.8-2.8 19.2 3 20.3 7.8Z" fill="#02C652"/><path fill-rule="evenodd" clip-rule="evenodd" d="m42.4 140.6 7.3-1.8-5-19.3-7.3 1.9 5 19.2Zm-1.5.4-1.6.5-5-19.3-7.3 1.9 5 19.2L41 141Z" fill="#E0DFE1"/><path fill-rule="evenodd" clip-rule="evenodd" d="m18 147 14-3.7-9-34.7-7 1.8 1.7-.4 9 34.7-3.3.9-9-34.8-5.4 1.4 9 34.7Z" fill="#E0DFE1"/><path fill-rule="evenodd" clip-rule="evenodd" d="M82.6 132.1c5.8-.5 11.6-1.8 17.2-3.6 3.4 5.9 4.1 12.6 2 20.2-5.1 1-10.4 1.2-15.7.7l-4.3-3.1c-9.1 7.1-18.9 13.3-29.1 18.7 2.4-1.8-2.6-10.1-5.7-9.1l7.9-5.1-1.9-7.3c8.9-2.7 17.5-6.3 25.7-10.6l.1.8a8.6 8.6 0 0 1 3.8-1.6Zm-3.3 16.2 2.6-2 4.2 3.1c-2.3-.2-4.5-.6-6.8-1.1Z" fill="#02C652"/><path d="M78.3 132.3c.2.2.3.6.4.9l1.2-1.8c-.5.4-1 .6-1.6.9ZM165.2 87.3c-1.2-2.8-9 4.3-13.7 5.1-1.1.2-2.2.6-3.1 1.2-1.6 1.3-3 3-4 4.7 3.4 1.3 6.5 3.3 9 6 2.2-3.4 5-6.5 7.5-9.7 2.5-3.4 4.6-6.5 4.3-7.3ZM172.8 143.7c-1-.5-2.1-.7-3.3-.7-1.8.2-3.5.7-5.2 1.5a22 22 0 0 1 4.4 10c3.6-1.7 7.4-2.7 11-4 3.9-1.6 7.3-3.2 7.5-4 .5-3-10-1-14.4-2.8ZM53.3 163.4l-2.4 1.6a1.7 1.7 0 0 0 1.8 0c.4-.5.6-1 .6-1.6ZM48.5 156c-.8.5-1.6 1-2.4 1.3.1-1.4 1.1-1.8 2.4-1.3Z" fill="#E0DFE1"/><path d="m95.2 129.9-2.4.5c.6 6.4.5 12.9-.1 19.3l2.4-.1c.7-6.6.7-13.2 0-19.7Z" fill="#18181B"/><path d="M46.9 72.8c0-6.6 8.8-12.5 20.5-9.7C72 53.6 85 50.8 94 58.1c9.3-8.1 22-4.5 26.6 5 11.8-2.8 20.6 3.1 20.6 9.7 0 9-12 12-19 11.4-7.3 4-21 4-28.2 0-7.2 4-21 4-28.3 0C59.8 85 47 81.8 47 72.8Z" fill="#E0DFE1"/><path d="M49.6 79 94 126.3l44.8-47.3" stroke="#19181B" stroke-width="1.5" stroke-linecap="round" stroke-linejoin="round"/><path d="M94 126.2v3.9" stroke="#19181B" stroke-width="1.5" stroke-linecap="round"/><path d="M94 58v68.2M120.6 63.1l-26.6 63-26.6-63M53 143.5l7.5-2.5a150 150 0 0 0 18.2-8" stroke="#19181B" stroke-width="1.5" stroke-linecap="round" stroke-linejoin="round"/><path d="M78.3 132.3a8 8 0 0 0 1.6-.9l-1.1 1.8" stroke="#19181B" stroke-width="1.5" stroke-linecap="round" stroke-linejoin="round"/><path d="M78.9 133.7c-.1-.5-.3-1-.6-1.4-1.8.7-4.5.8-4-5.7l.2-1.6" stroke="#19181B" stroke-width="1.5" stroke-linecap="round" stroke-linejoin="round"/><path d="M73.9 124.2c-2-.2-4-.7-6-1.4a.4.4 0 0 0-.5.3.4.4 0 0 0 .2.5c2 .7 4 1.2 6.2 1.4 2.6 0 5.2-.5 7.6-1.8-1.2-5.4-6.4-3.5-7.5 1ZM123.3 139.1s12.1-8.8 16.8-12.4c1.9-1.4 3.4-3.1 4.7-5.1l9.8-16a24.6 24.6 0 0 0-12.2-8L130 116l-16 8.1c-9.6-.5-14.3 4.4-14.3 4.4" stroke="#19181B" stroke-width="1.5" stroke-linecap="round" stroke-linejoin="round"/><path d="M144.4 98.3c1-1.8 2.4-3.4 4-4.7 1-.6 2-1 3.1-1.2 4.7-.8 12.5-7.9 13.7-5.1.3.8-1.8 4-4.3 7.3-2.4 3.2-5.3 6.3-7.5 9.7M101.9 148.7c10.7 7.5 22 14 33.7 19.7a7.5 7.5 0 0 0 5.9.2c9.2-3.5 18.7-7.3 27.4-12-.3-5.1-2.4-10-6-13.7-8.3 3.6-15 6.5-22.4 8.5 0 0-15.5-9.2-17.2-12.3-3.6-6.6-10.3-9.3-16.3-7.7" stroke="#19181B" stroke-width="1.5" stroke-linecap="round" stroke-linejoin="round"/><path d="M168.7 154.5c3.6-1.7 7.4-2.7 11-4 3.9-1.6 7.3-3.2 7.5-4 .5-3-10-1-14.4-2.8-3-1.3-5.5-.5-8.5.8M157 145.5c4 4.8 6.2 9.5 6.2 14M139 102.6c4.6 2 8.8 4.7 12.4 8M44.8 159.5c-2.2 1.6-4.7 3-7.3 3.9-1.5.5-1.2 1.5.6 1.2 1.7-.3 3.3-.8 4.9-1.4" stroke="#19181B" stroke-width="1.5" stroke-linecap="round" stroke-linejoin="round"/><path d="M41.6 163.7a38 38 0 0 1-4.2 2.3c-1.5.6-1 1.6.8 1.2 2-.6 4-1.4 6-2.3M42 165.9c-1 .8-2.2 1.6-2.7 1.8-1.4.9-.8 1.8.9 1.1 1.7-.7 3.4-1.6 5-2.6M53.3 163.4a1.8 1.8 0 0 1-.8 1.7 2 2 0 0 1-1.6 0l2.4-1.7Z" stroke="#19181B" stroke-width="1.5" stroke-linecap="round" stroke-linejoin="round"/><path d="m43.7 167-1.7 1.6c-1.3 1-.7 1.6 1 .8a78 78 0 0 0 7.9-4.4M48.5 156a1.9 1.9 0 0 0-1.7 0 1.7 1.7 0 0 0-.7 1.3c.8-.3 1.6-.8 2.4-1.3ZM43.7 160.2c-5.6-.7-5.5-2-1-2.2 1.2 0 2.3-.3 3.4-.7" stroke="#19181B" stroke-width="1.5" stroke-linecap="round" stroke-linejoin="round"/><path d="m57.8 162.2 3 11.4-35.4 9-9-35.2 35.2-9.1 3.3 12.5M16.3 147.4l-11.5-6.8M51.6 138.3l7-11.7" stroke="#19181B" stroke-width="1.5" stroke-linecap="round" stroke-linejoin="round"/><path d="M32 143.3 18 147l-9-34.7 14-3.6 9 34.7Z" stroke="#19181B" stroke-width="1.5" stroke-linecap="round" stroke-linejoin="round"/><path d="m26.7 144.7-3.3.9-9-34.8 3.3-.8 9 34.7ZM49.7 138.8 32 143.3l-5-19.2 17.7-4.6 5 19.3Z" stroke="#19181B" stroke-width="1.5" stroke-linecap="round" stroke-linejoin="round"/><path d="m42.4 140.6-3.1.8-5-19.2 3.1-.8 5 19.2ZM81.9 146.3l-2.6 2M99.8 128.5c-5.6 1.9-11.4 3-17.2 3.6-1.7.1-4 1.7-5.5 3A348.4 348.4 0 0 1 47 155.8c1.6-.5 3.8 1.7 4.7 3.1 1.2 1.7 2.4 5 1 6 9.3-4.8 18.2-10.4 26.6-16.7 8.3 1.8 14 1.8 22.6.4 2-7.6 1.3-14.3-2.1-20.2Z" stroke="#19181B" stroke-width="1.5" stroke-linecap="round" stroke-linejoin="round"/><path d="M92.8 130.5c.6 6.4.5 12.8-.1 19.2l2.4-.1c.7-6.6.7-13.2 0-19.7l-2.3.6ZM47 71.2a46.8 46.8 0 0 1 47-38.9A47.1 47.1 0 0 1 141 71c-1.2-4.8-8.6-10.6-20.4-7.8a16.8 16.8 0 0 0-26.6-5c-9-7.3-22-4.5-26.6 5-11.3-2.7-19.2 2.6-20.4 8Zm0 0a6.9 6.9 0 0 0 0 0Z" stroke="#19181B" stroke-width="1.5" stroke-linecap="round" stroke-linejoin="round"/><path d="M120.6 63.1c-.7-14-9.5-27.8-26.6-30.8-17 3-25.9 16.7-26.6 30.8M94 32.3v25.8" stroke="#19181B" stroke-width="1.5" stroke-linecap="round" stroke-linejoin="round"/><path d="M46.9 72.8c0-6.6 8.8-12.5 20.5-9.7C72 53.6 85 50.8 94 58.1c9.3-8.1 22-4.5 26.6 5 11.8-2.8 20.6 3.1 20.6 9.7 0 9-12 12-19 11.4-7.3 4-21 4-28.2 0-7.2 4-21 4-28.3 0C59.8 85 47 81.8 47 72.8ZM165.2 50.8l-2.6.8M159.4 49.7l-.7-2.6M161.5 57.4l-.8-2.7M157.6 52.9l-2.7.7M159.4 49.7a2.6 2.6 0 0 0 3.2 1.9 2.6 2.6 0 0 0-1.9 3.1 2.6 2.6 0 0 0-3.1-1.8 2.6 2.6 0 0 0 1.8-3.2ZM71.3 11.8l-1.8.5M67.4 11l-.5-1.7M68.8 16.2l-.5-1.8M66.2 13.2l-1.8.5M67.4 11a1.7 1.7 0 0 0 2.1 1.3 1.7 1.7 0 0 0-1.2 2.1 1.7 1.7 0 0 0-2.1-1.2 1.7 1.7 0 0 0 1.2-2.1ZM150 132l1.5 5.8M153.6 134.2l-5.8 1.5M79 124.3l.5 1c.2.6.5.7 1-.2 1-1.6 3 .4.9 2.7-.5.6.6 3.6.9 4.3" stroke="#19181B" stroke-width="1.5" stroke-linecap="round" stroke-linejoin="round"/></svg>