<?xml version="1.0" encoding="UTF-8" standalone="no"?>
<!DOCTYPE svg PUBLIC "-//W3C//DTD SVG 1.1//EN" "http://www.w3.org/Graphics/SVG/1.1/DTD/svg11.dtd">
<svg width="100%" height="100%" viewBox="0 0 898 187" version="1.1" xmlns="http://www.w3.org/2000/svg" xmlns:xlink="http://www.w3.org/1999/xlink" xml:space="preserve" xmlns:serif="http://www.serif.com/" style="fill-rule:evenodd;clip-rule:evenodd;stroke-linejoin:round;stroke-miterlimit:1.5;">
    <g transform="matrix(1,0,0,1,-158.827,-635.335)">
        <g transform="matrix(0.667272,-0.108992,0.103725,0.635028,-860.587,359.828)">
            <path d="M1586.03,718.574C1573.78,709.491 1519.87,722.515 1522.47,743.947C1523.02,748.473 1538.71,747.506 1552.1,745.334C1573.72,741.825 1594.7,727.756 1617.11,723.959C1626.67,722.339 1669.71,718.487 1684.18,734.289C1692.3,743.154 1700.35,804.245 1703.85,819.989C1705.01,825.235 1711.34,847.257 1711.34,851.604" style="fill:none;stroke:rgb(96,96,96);stroke-width:9.66px;"/>
        </g>
        <g transform="matrix(0.667272,-0.108992,0.103725,0.635028,-860.587,359.828)">
            <path d="M1718.88,834.13C1726.99,834.13 1800.17,839.01 1802.24,868.641C1803.16,881.763 1789.43,936.984 1607.33,955.891C1481.6,968.944 1395.31,918.59 1393.45,900.572C1392.06,887.072 1400.18,880.865 1404.83,879.184" style="fill:none;stroke:rgb(96,96,96);stroke-width:9.66px;stroke-linejoin:bevel;"/>
        </g>
        <g transform="matrix(0.674485,-0.0469088,0.0446421,0.641893,-815.818,276.297)">
            <path d="M1795.52,855.412C1799.41,859.153 1801.88,863.528 1802.24,868.641C1803.16,881.763 1789.43,936.984 1607.33,955.891C1481.6,968.944 1395.31,918.59 1393.45,900.572" style="fill:none;stroke:rgb(96,96,96);stroke-width:9.66px;stroke-linejoin:bevel;"/>
        </g>
        <g transform="matrix(1.53084,0,0,1.53084,-459.184,147.696)">
            <path d="M580.582,379.88C580.615,379.913 580.648,379.946 580.681,379.979" style="fill:none;"/>
        </g>
        <g transform="matrix(0.667272,-0.108992,0.103725,0.635028,-860.587,359.828)">
            <path d="M1484.56,824.666C1480.46,834.31 1470.07,864.012 1474.82,863.518C1475.28,863.47 1503.87,893.266 1599,888.131C1697.18,882.832 1719.33,852.574 1719.17,851.604C1718.05,844.965 1712.87,833.719 1706.39,821.59C1704.71,818.452 1655.63,842.64 1599,844C1530.47,845.646 1487.83,824.666 1484.56,824.666Z" style="fill:rgb(96,96,96);"/>
        </g>
        <g transform="matrix(1.6166,0,0,0.732268,-1238.96,243.879)">
            <path d="M1070.68,759.819L1070.68,730.815C1070.71,730.815 1070.86,730.854 1071.14,730.932C1071.43,731.01 1071.62,731.049 1071.73,731.049C1071.83,731.049 1072.03,731.068 1072.33,731.107C1072.62,731.146 1072.86,731.185 1073.02,731.224C1073.19,731.263 1073.42,731.302 1073.72,731.341C1074.02,731.38 1074.27,731.419 1074.49,731.458C1074.71,731.497 1074.96,731.517 1075.23,731.517L1076.02,731.517C1078.04,731.517 1079.95,730.152 1081.75,727.423C1083.56,724.695 1085.17,720.796 1086.59,715.728C1088.01,710.66 1089.14,704.169 1089.98,696.256C1090.82,688.342 1091.24,679.551 1091.24,669.883C1091.24,653.821 1089.95,641.775 1087.37,633.744C1084.79,625.714 1080.99,621.698 1075.98,621.698C1074.2,621.698 1071.93,621.874 1069.17,622.225C1066.41,622.575 1064.34,622.751 1062.98,622.751L1057.87,622.751L1057.87,759.819L1070.68,759.819ZM1078.54,664.737L1078.54,682.046C1078.54,689.843 1077.98,695.807 1076.86,699.94C1075.73,704.072 1074.15,706.138 1072.11,706.138L1070.68,706.138L1070.68,645.323L1072.54,645.323C1074.47,645.323 1075.96,647.116 1076.99,650.703C1078.02,654.289 1078.54,658.967 1078.54,664.737Z" style="fill:rgb(96,96,96);fill-rule:nonzero;"/>
            <path d="M1113.54,749.411L1114.78,759.819L1125.38,759.819L1124.3,750.697L1124.3,703.097C1124.3,694.521 1124.08,687.445 1123.64,681.87C1123.2,676.296 1122.46,671.696 1121.41,668.07C1120.37,664.444 1119.01,661.872 1117.33,660.351C1115.65,658.831 1113.52,658.071 1110.94,658.071C1108.03,658.071 1105.16,659.377 1102.35,661.988C1099.53,664.6 1097.25,667.622 1095.5,671.052L1097.97,686.958C1098.95,685.398 1100.31,684.054 1102.04,682.923C1103.77,681.792 1105.43,681.227 1107.03,681.227C1108.89,681.227 1110.24,682.202 1111.08,684.151C1111.92,686.1 1112.34,689.453 1112.34,694.209L1112.34,696.314C1111.46,696.314 1110.54,696.431 1109.59,696.665C1108.63,696.899 1107.55,697.367 1106.34,698.068C1105.12,698.77 1103.97,699.647 1102.87,700.7C1101.77,701.752 1100.68,703.195 1099.6,705.027C1098.52,706.859 1097.59,708.945 1096.81,711.284C1096.04,713.623 1095.4,716.488 1094.91,719.88C1094.42,723.272 1094.18,726.995 1094.18,731.049C1094.18,751.867 1097.66,762.275 1104.63,762.275C1105.66,762.275 1106.67,761.827 1107.65,760.93C1108.63,760.034 1109.46,758.962 1110.15,757.714C1110.83,756.467 1111.44,755.219 1111.97,753.972C1112.5,752.724 1112.89,751.633 1113.15,750.697L1113.54,749.411ZM1110.48,741.692C1108.28,741.692 1107.19,736.819 1107.19,727.073C1107.19,721.615 1107.65,717.58 1108.58,714.968C1109.51,712.356 1110.76,711.05 1112.34,711.05L1112.34,739.119C1112.34,739.119 1112.26,739.333 1112.1,739.762C1111.95,740.191 1111.72,740.62 1111.43,741.048C1111.13,741.477 1110.81,741.692 1110.48,741.692Z" style="fill:rgb(96,96,96);fill-rule:nonzero;"/>
            <path d="M1143.92,759.819L1143.92,691.636C1143.98,691.48 1144.07,691.227 1144.22,690.876C1144.36,690.525 1144.46,690.271 1144.53,690.116C1144.59,689.96 1144.69,689.706 1144.84,689.355C1144.98,689.005 1145.09,688.751 1145.16,688.595C1145.24,688.439 1145.35,688.225 1145.47,687.952C1145.6,687.679 1145.72,687.484 1145.82,687.367C1145.93,687.25 1146.05,687.094 1146.19,686.899C1146.33,686.704 1146.46,686.568 1146.58,686.49C1146.69,686.412 1146.82,686.334 1146.96,686.256C1147.11,686.178 1147.26,686.139 1147.41,686.139C1149.55,686.139 1150.58,689.804 1150.51,697.133L1150.51,759.819L1163.28,759.819L1163.28,700.524C1163.28,699.979 1163.3,699.238 1163.32,698.302L1163.32,696.197C1163.32,682.475 1162.59,672.69 1161.13,666.842C1159.67,660.994 1157.18,658.071 1153.64,658.071C1152.64,658.071 1151.61,658.675 1150.57,659.883C1149.52,661.092 1148.62,662.534 1147.87,664.211C1147.13,665.887 1146.45,667.583 1145.84,669.298C1145.24,671.013 1144.78,672.495 1144.47,673.742L1144,675.496L1144,660.41L1137.42,660.41L1129.1,667.31L1129.1,679.824L1131.42,684.151L1131.42,759.819L1143.92,759.819Z" style="fill:rgb(96,96,96);fill-rule:nonzero;"/>
            <path d="M1187.09,749.411L1188.33,759.819L1198.94,759.819L1197.85,750.697L1197.85,703.097C1197.85,694.521 1197.63,687.445 1197.19,681.87C1196.76,676.296 1196.01,671.696 1194.97,668.07C1193.92,664.444 1192.56,661.872 1190.88,660.351C1189.21,658.831 1187.08,658.071 1184.5,658.071C1181.58,658.071 1178.72,659.377 1175.9,661.988C1173.09,664.6 1170.81,667.622 1169.05,671.052L1171.53,686.958C1172.51,685.398 1173.86,684.054 1175.59,682.923C1177.32,681.792 1178.99,681.227 1180.59,681.227C1182.44,681.227 1183.79,682.202 1184.63,684.151C1185.47,686.1 1185.89,689.453 1185.89,694.209L1185.89,696.314C1185.01,696.314 1184.1,696.431 1183.14,696.665C1182.19,696.899 1181.1,697.367 1179.89,698.068C1178.68,698.77 1177.52,699.647 1176.42,700.7C1175.33,701.752 1174.24,703.195 1173.15,705.027C1172.07,706.859 1171.14,708.945 1170.37,711.284C1169.59,713.623 1168.96,716.488 1168.47,719.88C1167.98,723.272 1167.73,726.995 1167.73,731.049C1167.73,751.867 1171.22,762.275 1178.19,762.275C1179.22,762.275 1180.23,761.827 1181.21,760.93C1182.19,760.034 1183.02,758.962 1183.7,757.714C1184.39,756.467 1184.99,755.219 1185.52,753.972C1186.05,752.724 1186.44,751.633 1186.7,750.697L1187.09,749.411ZM1184.03,741.692C1181.84,741.692 1180.74,736.819 1180.74,727.073C1180.74,721.615 1181.21,717.58 1182.13,714.968C1183.06,712.356 1184.32,711.05 1185.89,711.05L1185.89,739.119C1185.89,739.119 1185.81,739.333 1185.66,739.762C1185.5,740.191 1185.28,740.62 1184.98,741.048C1184.68,741.477 1184.37,741.692 1184.03,741.692Z" style="fill:rgb(96,96,96);fill-rule:nonzero;"/>
            <path d="M1217.48,759.819L1217.48,691.636C1217.53,691.48 1217.63,691.227 1217.77,690.876C1217.91,690.525 1218.02,690.271 1218.08,690.116C1218.14,689.96 1218.25,689.706 1218.39,689.355C1218.53,689.005 1218.64,688.751 1218.72,688.595C1218.8,688.439 1218.9,688.225 1219.03,687.952C1219.16,687.679 1219.27,687.484 1219.38,687.367C1219.48,687.25 1219.6,687.094 1219.75,686.899C1219.89,686.704 1220.02,686.568 1220.13,686.49C1220.25,686.412 1220.38,686.334 1220.52,686.256C1220.66,686.178 1220.81,686.139 1220.96,686.139C1223.11,686.139 1224.14,689.804 1224.06,697.133L1224.06,759.819L1236.84,759.819L1236.84,703.916C1236.84,699.55 1236.8,695.495 1236.72,691.753C1238.01,688.01 1239.03,686.139 1239.78,686.139C1240.89,686.139 1241.71,687.114 1242.26,689.063C1242.8,691.012 1243.07,693.702 1243.07,697.133L1243.07,759.819L1255.65,759.819L1255.65,700.524C1255.65,689.453 1255.34,680.876 1254.72,674.795C1254.1,668.713 1253.12,664.405 1251.76,661.872C1250.41,659.338 1248.52,658.071 1246.09,658.071C1243.89,658.071 1241.89,660.078 1240.07,664.094C1238.25,668.109 1236.9,672.417 1236.02,677.017C1235.46,670.312 1234.49,665.478 1233.12,662.515C1231.75,659.552 1229.78,658.071 1227.2,658.071C1226.19,658.071 1225.18,658.675 1224.16,659.883C1223.14,661.092 1222.27,662.437 1221.56,663.918C1220.86,665.4 1220.16,667.115 1219.49,669.064C1218.82,671.013 1218.36,672.436 1218.12,673.333C1217.87,674.23 1217.69,674.951 1217.56,675.496L1217.56,660.41L1210.98,660.41L1202.65,667.31L1202.65,679.824L1204.98,684.151L1204.98,759.819L1217.48,759.819Z" style="fill:rgb(96,96,96);fill-rule:nonzero;"/>
            <path d="M1279.5,749.411L1280.74,759.819L1291.35,759.819L1290.26,750.697L1290.26,703.097C1290.26,694.521 1290.04,687.445 1289.6,681.87C1289.16,676.296 1288.42,671.696 1287.38,668.07C1286.33,664.444 1284.97,661.872 1283.29,660.351C1281.62,658.831 1279.49,658.071 1276.9,658.071C1273.99,658.071 1271.12,659.377 1268.31,661.988C1265.5,664.6 1263.21,667.622 1261.46,671.052L1263.94,686.958C1264.92,685.398 1266.27,684.054 1268,682.923C1269.73,681.792 1271.39,681.227 1273,681.227C1274.85,681.227 1276.2,682.202 1277.04,684.151C1277.88,686.1 1278.3,689.453 1278.3,694.209L1278.3,696.314C1277.42,696.314 1276.51,696.431 1275.55,696.665C1274.6,696.899 1273.51,697.367 1272.3,698.068C1271.09,698.77 1269.93,699.647 1268.83,700.7C1267.74,701.752 1266.65,703.195 1265.56,705.027C1264.48,706.859 1263.55,708.945 1262.78,711.284C1262,713.623 1261.37,716.488 1260.88,719.88C1260.39,723.272 1260.14,726.995 1260.14,731.049C1260.14,751.867 1263.63,762.275 1270.6,762.275C1271.63,762.275 1272.63,761.827 1273.61,760.93C1274.6,760.034 1275.43,758.962 1276.11,757.714C1276.8,756.467 1277.4,755.219 1277.93,753.972C1278.46,752.724 1278.85,751.633 1279.11,750.697L1279.5,749.411ZM1276.44,741.692C1274.25,741.692 1273.15,736.819 1273.15,727.073C1273.15,721.615 1273.61,717.58 1274.54,714.968C1275.47,712.356 1276.72,711.05 1278.3,711.05L1278.3,739.119C1278.3,739.119 1278.22,739.333 1278.07,739.762C1277.91,740.191 1277.68,740.62 1277.39,741.048C1277.09,741.477 1276.78,741.692 1276.44,741.692Z" style="fill:rgb(96,96,96);fill-rule:nonzero;"/>
            <path d="M1309.38,759.819L1309.38,691.636C1309.41,691.558 1309.55,691.207 1309.79,690.583C1310.04,689.96 1310.19,689.57 1310.26,689.414C1310.32,689.258 1310.46,688.946 1310.68,688.478C1310.9,688.01 1311.07,687.699 1311.18,687.543C1311.3,687.387 1311.46,687.153 1311.67,686.841C1311.88,686.529 1312.08,686.334 1312.27,686.256C1312.46,686.178 1312.66,686.139 1312.87,686.139C1315.01,686.139 1316.04,689.804 1315.97,697.133L1315.97,759.819L1328.74,759.819L1328.74,700.524C1328.74,699.979 1328.75,699.238 1328.78,698.302L1328.78,696.197C1328.78,682.475 1328.05,672.69 1326.59,666.842C1325.13,660.994 1322.64,658.071 1319.1,658.071C1318.1,658.071 1317.07,658.675 1316.02,659.883C1314.98,661.092 1314.08,662.534 1313.33,664.211C1312.59,665.887 1311.91,667.583 1311.3,669.298C1310.69,671.013 1310.24,672.495 1309.93,673.742L1309.46,675.496L1309.29,623.428L1306.78,623.428L1294.35,629.276L1294.35,640.152L1296.67,644.362L1296.84,759.819L1309.38,759.819Z" style="fill:rgb(96,96,96);fill-rule:nonzero;"/>
            <path d="M1352.55,749.411L1353.79,759.819L1364.4,759.819L1363.31,750.697L1363.31,703.097C1363.31,694.521 1363.09,687.445 1362.65,681.87C1362.21,676.296 1361.47,671.696 1360.43,668.07C1359.38,664.444 1358.02,661.872 1356.34,660.351C1354.67,658.831 1352.54,658.071 1349.96,658.071C1347.04,658.071 1344.17,659.377 1341.36,661.988C1338.55,664.6 1336.27,667.622 1334.51,671.052L1336.99,686.958C1337.97,685.398 1339.32,684.054 1341.05,682.923C1342.78,681.792 1344.45,681.227 1346.05,681.227C1347.9,681.227 1349.25,682.202 1350.09,684.151C1350.93,686.1 1351.35,689.453 1351.35,694.209L1351.35,696.314C1350.47,696.314 1349.56,696.431 1348.6,696.665C1347.65,696.899 1346.56,697.367 1345.35,698.068C1344.14,698.77 1342.98,699.647 1341.88,700.7C1340.79,701.752 1339.7,703.195 1338.61,705.027C1337.53,706.859 1336.6,708.945 1335.83,711.284C1335.05,713.623 1334.42,716.488 1333.93,719.88C1333.44,723.272 1333.19,726.995 1333.19,731.049C1333.19,751.867 1336.68,762.275 1343.65,762.275C1344.68,762.275 1345.68,761.827 1346.67,760.93C1347.65,760.034 1348.48,758.962 1349.16,757.714C1349.85,756.467 1350.45,755.219 1350.98,753.972C1351.51,752.724 1351.9,751.633 1352.16,750.697L1352.55,749.411ZM1349.49,741.692C1347.3,741.692 1346.2,736.819 1346.2,727.073C1346.2,721.615 1346.67,717.58 1347.6,714.968C1348.52,712.356 1349.78,711.05 1351.35,711.05L1351.35,739.119C1351.35,739.119 1351.27,739.333 1351.12,739.762C1350.96,740.191 1350.74,740.62 1350.44,741.048C1350.14,741.477 1349.83,741.692 1349.49,741.692Z" style="fill:rgb(96,96,96);fill-rule:nonzero;"/>
            <path d="M1379.49,762.275C1381.25,762.275 1382.84,761.691 1384.28,760.521C1385.71,759.351 1386.73,758.201 1387.35,757.071C1387.97,755.94 1388.48,754.79 1388.86,753.621L1388.86,737.715C1388.58,738.417 1388.22,738.963 1387.78,739.353C1387.34,739.742 1386.85,739.937 1386.31,739.937C1385.07,739.937 1384.15,738.924 1383.56,736.897C1382.97,734.869 1382.67,730.737 1382.67,724.5L1382.37,671.262L1388.84,671.262L1388.84,650.678L1382.49,650.678L1382.49,623.428L1375.67,623.428L1371.73,650.678L1367.16,655.005L1367.16,671.262L1369.83,671.262L1370.13,720.757C1370.13,735.805 1370.82,746.487 1372.2,752.802C1373.58,759.118 1376.01,762.275 1379.49,762.275Z" style="fill:rgb(96,96,96);fill-rule:nonzero;"/>
            <path d="M1404.89,762.275C1414.88,762.275 1419.87,750.268 1419.87,726.254C1419.87,717.989 1419.19,711.089 1417.82,705.553C1416.45,700.018 1414.26,695.729 1411.24,692.689C1410.7,692.221 1410.05,691.694 1409.3,691.11C1408.56,690.525 1407.97,690.057 1407.56,689.706C1407.15,689.355 1406.73,688.888 1406.3,688.303C1405.88,687.718 1405.57,687.016 1405.39,686.198C1405.21,685.379 1405.12,684.346 1405.12,683.098C1405.12,678.732 1406.35,676.549 1408.8,676.549C1411.79,676.549 1414.14,679.083 1415.85,684.151L1417.55,667.427C1417.55,667.427 1417.32,666.764 1416.85,665.439C1414.76,660.527 1411.51,658.071 1407.1,658.071C1404.52,658.071 1402.18,659.201 1400.09,661.462C1398,663.723 1396.28,667.368 1394.94,672.397C1393.6,677.426 1392.93,683.449 1392.93,690.466C1392.93,707.619 1395.93,718.925 1401.95,724.383C1404.27,726.488 1405.95,728.34 1406.98,729.938C1408.01,731.536 1408.53,733.349 1408.53,735.376C1408.53,737.481 1408.24,739.119 1407.66,740.288C1407.08,741.458 1406.01,742.043 1404.46,742.043C1402.32,742.043 1400.23,741.107 1398.17,739.236C1396.12,737.364 1394.66,735.142 1393.78,732.569L1392.77,751.399C1393.47,753.738 1395.06,756.135 1397.54,758.591C1400.01,761.047 1402.46,762.275 1404.89,762.275Z" style="fill:rgb(96,96,96);fill-rule:nonzero;"/>
        </g>
    </g>
</svg>
