<svg xmlns="http://www.w3.org/2000/svg" width="184" height="142" fill="none"><path fill="#02C652" d="M96.45 52.13a15.26 15.26 0 0 1-6.96 2.17c.57 1.63 1 3.3 1.27 5.01L95 61.17l2.58-3.74c-.24-1.8-.6-3.56-1.12-5.3ZM123.61 20C113 33.26 104.26 38.26 98.42 40.25c1.57 4.16 2.8 7.26 3.36 11 .02.03 20.36-7.9 29.77-24.39a18.88 18.88 0 0 0-7.94-6.84ZM93.72 41.4c-.99.17-2 .05-2.92-.34-1.33 1.55-3.61 2.08-6.3 2.17-.4.56-.91 1.03-1.5 1.38 1.3 2.07 2.48 4.2 3.54 6.4 4.22-.25 7.4-1.01 9.62-2.98a33.4 33.4 0 0 0-2.44-6.63ZM48.48 64.26c10.62-.4 24.24-2.11 34.53-5.73a65.92 65.92 0 0 0-5.38-11.45c-7.89 2.97-14.14 2.96-30.22 4.06 3.78-.2 4.6 12.63 1.07 13.12ZM133.24 16.76l2.83 2.55a1.36 1.36 0 0 0 1.92-.1l8.68-9.65a1.37 1.37 0 0 0-.11-1.92l-6.5-5.86a1.36 1.36 0 0 0-1.91.11l-8.69 9.65a1.36 1.36 0 0 0 .11 1.92l.67.6c1.02-1.5 3.27-4.65 4-4.83.51.72-.04 2.67-.54 4.42-.41 1.46-.78 2.78-.46 3.11Z"/><path fill="#18181B" d="M132.22 124.98c-3.31.91-6.7 1.54-10.12 1.88 3.72 5.2 3.05 6.36 4.36 8.85 6.04 2.48 19.37 4.72 25.85 4.85-4.82-5.99-14.23-9.12-20.09-15.58ZM42.63 98.48c-4.05.14-8.1-.18-12.08-.97-3.8 8.2-6.5 18.44-7.86 25.06 9.45-4.43 9.69-14.13 19.32-15.1a29.3 29.3 0 0 1 .62-9ZM49.3 52.5c-1.2.15-2.4.27-3.6.34.87-2.1 2.4-2.28 3.6-.35ZM50.12 62.54c-.96 2.4-2.68 2.27-3.9-.09 1.59 0 3 .04 3.9.1ZM145.81 77.34a3.38 3.38 0 1 0-6.13 2.82 3.38 3.38 0 0 0 6.13-2.82ZM95.43 77.8c-.95 2.51-1.92 4.92-2.97 7.25a87.59 87.59 0 0 0 2.1 5.86c-.66-5.71.89-13.1.87-13.12ZM88.15 12.15a11 11 0 0 0-10.98 10.98c-.02 1.65.27 3.28.85 4.82a12.56 12.56 0 1 0 1.2 9.4c1.58.88 3.72.99 5.08 1.96-.22-.45-1.11-2.07-1.64-2.14-3.55-.22-3.43-3.44-1.37-2.86.99.27 1.23.05 1.06-.44-1.22-2.64-.24-9.14 5-3.68a15.73 15.73 0 0 1 2.86 3.72 10.97 10.97 0 0 0-2.06-21.76ZM88.61 38.54c-.64.18-1.3.31-1.95.38l3.08 1.5c-.6-.46-1-1.13-1.13-1.88ZM178.37 48.17a2.52 2.52 0 1 0 4.62-2.03 2.52 2.52 0 0 0-4.62 2.03ZM164.34 54.35a2.51 2.51 0 0 0 4.3.55 2.53 2.53 0 1 0-4.3-.55Z"/><path stroke="#18181B" stroke-linecap="round" stroke-linejoin="round" stroke-width="1.5" d="m49.05 115.95 4.25 9.27a7.64 7.64 0 0 0 10.12 3.76l40.6-18.61M122.54 101.89l34.93-16a7.64 7.64 0 0 0 3.75-10.12l-24.56-53.65M129.14 12.48a7.6 7.6 0 0 0-5.09.45L99.1 24.35M39.67 51.56l18.62-8.52M31.94 55.1l-1.95.9a7.64 7.64 0 0 0-3.76 10.12l14.85 32.4"/><path fill="#E4E4E7" d="m110.48 81.66 10.36-4.75a1.68 1.68 0 0 0 .82-2.22l-1-2.23a1.69 1.69 0 0 0-2.23-.82l-10.6 4.85"/><path stroke="#18181B" stroke-linecap="round" stroke-linejoin="round" stroke-width="1.5" d="m110.48 81.66 10.36-4.75a1.68 1.68 0 0 0 .82-2.22l-1-2.23a1.69 1.69 0 0 0-2.23-.82l-10.6 4.85M93.92 89.25l-4.58 2.1M88.6 38.56a3.4 3.4 0 0 0 2.22 2.5c.92.38 1.93.5 2.91.34 11.93-1.85 22.33-11.98 29.88-21.4a18.89 18.89 0 0 1 7.94 6.85c-9.42 16.48-29.75 24.42-29.77 24.38"/><path stroke="#18181B" stroke-linecap="round" stroke-linejoin="round" stroke-width="1.5" d="M86.64 38.92s8.79-.4.88-8.57c-5.44-5.61-6.4.7-5.22 3.42.33.76-.29.73-1.02.52-2.07-.58-2.2 2.65 1.36 2.86.29.16.54.37.73.62 2.43 3.54 2.36 5.62-1.64 7.52-10.3 4.89-16.05 4.56-34.32 5.86M86.66 38.92l3.06 1.5M48.46 64.26c10.62-.4 24.24-2.11 34.53-5.73M49.3 52.5c-4.27.55-8.6.6-12.88.16a35.92 35.92 0 0 1-8.19-2.32c-3.86-1.59-4.81-.87-1.18 1.9a53.17 53.17 0 0 0 13.08 6.3"/><path stroke="#18181B" stroke-linecap="round" stroke-linejoin="round" stroke-width="1.5" d="M50.12 62.54a175.7 175.7 0 0 0-15.12.08c-4.92.47-3.26-.62-1.73-1.55 1.12-.67 6.35-2 4.44-3.36M31.9 51.62a61.97 61.97 0 0 1-2.95-2.48c-2.18-1.92-1.5-2.4-1.08-2.21 1.68.74 4.27 2.24 5.86 2.9 2.55 1.06 7.4 3.17 9.81 3.12"/><path stroke="#18181B" stroke-linecap="round" stroke-linejoin="round" stroke-width="1.5" d="M33.56 49.78c-.3-.39-.58-.7-.73-.88-1.83-2.25-1.1-2.6-.71-2.35 1.54 1.02 3.85 2.91 5.3 3.81 1.76 1.03 3.6 1.9 5.52 2.6M45.69 52.84c1.41-3.39 4.27-1.45 4.95 3.86.8 6.24-2.19 10.05-4.42 5.75M133.24 16.76c-.67-.9.92-4.36 1.08-5.42.27-1.77.5-3.75-2.3.35a99.24 99.24 0 0 1-7.24 8.96"/><path stroke="#18181B" stroke-linecap="round" stroke-linejoin="round" stroke-width="1.5" d="m133.24 16.76 2.83 2.55a1.36 1.36 0 0 0 1.92-.1l8.68-9.65a1.37 1.37 0 0 0-.11-1.92l-6.5-5.86a1.37 1.37 0 0 0-1.91.11l-8.69 9.65a1.36 1.36 0 0 0 .11 1.92l.67.6"/><path stroke="#18181B" stroke-linecap="round" stroke-linejoin="round" stroke-width="1.5" d="M131.13 26.23c2.84-3.05 16.5-10.44 14.7-10.7-2.12-.32-5.94 1.78-6.35 2.01"/><path stroke="#18181B" stroke-linecap="round" stroke-linejoin="round" stroke-width="1.5" d="M142.57 16.11c.43-.28 2.2-1.42 3.66-2.21 1.46-.8-1.71-.82-3.61.16M135.52 18.82c-.26-.15-1.7-.83-4.56.02M150.2 75.33a3.38 3.38 0 0 1-2.77 4.76 3.37 3.37 0 1 1 2.78-4.76Z"/><path stroke="#18181B" stroke-linecap="round" stroke-linejoin="round" stroke-width="1.5" d="M145.81 77.34a3.37 3.37 0 1 1-6.12 2.8 3.37 3.37 0 0 1 6.12-2.8Z"/><path stroke="#18181B" stroke-linecap="round" stroke-linejoin="round" stroke-width="1.5" d="M141.41 79.36a3.37 3.37 0 1 1-6.13 2.8 3.37 3.37 0 0 1 6.13-2.8Z"/><path fill="#E4E4E7" stroke="#18181B" stroke-linecap="round" stroke-linejoin="round" stroke-width="1.5" d="M55.27 70.52a4.85 4.85 0 0 1 6.42 2.39l2.86 6.27a4.85 4.85 0 0 1-2.39 6.42l-8.97 4.1a4.85 4.85 0 0 1-6.42-2.38l-2.88-6.28a4.85 4.85 0 0 1 2.39-6.42l8.99-4.1ZM144.19 66.23A1.68 1.68 0 0 0 145 64l-1-2.22a1.68 1.68 0 0 0-2.23-.82l-16.96 7.75a1.69 1.69 0 0 0-.82 2.22l1 2.23a1.68 1.68 0 0 0 2.22.82l16.97-7.75Z"/><path stroke="#18181B" stroke-linecap="round" stroke-linejoin="round" stroke-width="1.5" d="M178.37 48.17a2.52 2.52 0 1 0 4.62-2.03 2.52 2.52 0 0 0-4.62 2.03ZM164.34 54.35a2.51 2.51 0 0 0 4.3.55 2.53 2.53 0 1 0-4.3-.55ZM178.37 48.17l-9.41 4.14"/><path stroke="#18181B" stroke-linecap="round" stroke-linejoin="round" stroke-width="1.5" d="m182.2 18.4-5.1 2.25 3.24 24"/><path stroke="#18181B" stroke-linecap="round" stroke-linejoin="round" stroke-width="1.5" d="m179.8 40.62-18.72 6.04-7.48-7.33 24.55-10.84M92.47 85.09c1.06-2.34 2.02-4.78 2.96-7.3.02.02-1.53 7.4-.86 13.12M77.61 47.08c4.65 7.53 7.04 16.74 7.84 18.2 4.64 2.6 13.34.42 16.16-2.66 1.28-10.07.1-13.68-3.19-22.38"/><path stroke="#18181B" stroke-linecap="round" stroke-linejoin="round" stroke-width="1.5" d="M85.45 65.28c-3.84 3.98-8.15-.33-13.64 28.8-12.46-.07-16.98.97-28.65 2.34-2.07 6.62-1.48 13.73.96 21.16l31.37-10.31c2.2-.73 4.16-2.06 5.64-3.85a79.2 79.2 0 0 0 11.34-18.34c3.93 12.44 14.52 31.28 21.42 42.18 10.56 0 19.33-1.8 26.3-5.47-18.62-14.41-34.94-49.67-38.58-59.17M83 44.61c1.3 2.07 2.5 4.2 3.57 6.4 4.21-.25 7.4-1.01 9.6-2.98-.57-2.3-1.39-4.51-2.44-6.63M97.57 57.44 95 61.18l-4.24-1.86a28.7 28.7 0 0 0-1.27-5.02c2.46-.15 4.85-.9 6.96-2.17.51 1.73.89 3.51 1.12 5.3Z"/><path stroke="#18181B" stroke-linecap="round" stroke-linejoin="round" stroke-width="1.5" d="M132.22 124.98c5.86 6.46 15.27 9.6 20.09 15.58-6.48-.13-19.81-2.37-25.85-4.85-1.31-2.49-.64-3.65-4.36-8.85 3.42-.33 6.8-.96 10.12-1.88ZM42.63 98.48c-4.05.14-8.1-.18-12.08-.97-3.8 8.2-6.5 18.44-7.86 25.06 9.45-4.43 9.69-14.13 19.32-15.1-.26-3.01-.05-6.05.62-9ZM84.52 43.25c2.68-.1 4.96-.62 6.3-2.17M90.2 33.89A10.98 10.98 0 1 0 77.15 23.1c-.02 1.65.27 3.29.86 4.82a12.55 12.55 0 1 0 1.2 9.43c1.6.87 3.73.98 5.1 1.95M30.59 17.97a2.6 2.6 0 1 1-4.75 2.15 2.6 2.6 0 0 1 4.75-2.15ZM39.43 21.23a2.6 2.6 0 1 1-4.74 2.15 2.6 2.6 0 0 1 4.74-2.15ZM29.64 28.5l5.96-15.77M91.46 124.23l4.1 8.92M97.97 126.64l-8.92 4.12M128.54 44.94a3.78 3.78 0 0 1 1.62 3.47M130.49 42a8.73 8.73 0 0 1 3.2 6.81M132.6 38.72a16.58 16.58 0 0 1 4.95 10.6M111.83 1.55l-3.13 1.42a1.53 1.53 0 0 0-.47 2.56 1.53 1.53 0 0 0 1.74.23l1.75-.8A1.53 1.53 0 0 1 113 7.74l-3.15 1.44M109.1 1.55l3.48 7.62M11.27 72.63a1.8 1.8 0 0 0-3.26 1.48l.8 1.79"/><path stroke="#18181B" stroke-linecap="round" stroke-linejoin="round" stroke-width="1.5" d="M21.38 80.38a2.2 2.2 0 1 0-1.83-4c-7.33 1.74-9.85 1.49-10.74-.48.9 1.97-.59 4.03-6.71 8.4a2.2 2.2 0 0 0 1.82 4.02l17.46-7.94Z"/></svg>
