<svg fill="none" xmlns="http://www.w3.org/2000/svg" viewBox="0 0 104 32"><path d="M34.5 3.4c.2 1.2-.3 2.4-1 3.3-.7.8-1.9 1.5-3 1.4-.2-1.2.4-2.4 1-3.1.8-.9 2-1.5 3-1.6ZM31.8 9c.8-.4 1.7-.7 2.7-.7.7 0 2.5.3 3.7 2-.3.3-2.2 1.5-2.2 3.9 0 2.9 2.4 4 2.7 4v.1c0 .2-.4 1.5-1.3 2.8-.9 1.3-1.8 2.5-3.2 2.5-.6 0-1-.1-1.5-.3-.5-.2-1-.5-1.8-.5s-1.3.3-1.8.5l-1.5.4c-1.3 0-2.3-1.4-3.2-2.6-1.7-2.5-3-7-1.3-10.2a5 5 0 0 1 4.2-2.5c.8 0 1.5.3 2.1.5l1.2.4c.4 0 .8-.2 1.2-.4Z" fill="#71717A" fill-opacity=".5"/><path fill-rule="evenodd" clip-rule="evenodd" d="M49 4.9c3.6 0 6.2 2.4 6.2 6 0 3.7-2.6 6.2-6.3 6.2h-4v6.4H42V4.9h7Zm-4 9.8h3.2c2.6 0 4-1.4 4-3.7 0-2.4-1.4-3.7-4-3.7H45v7.4ZM56 19.6c0-2.3 1.7-3.8 5-4l3.7-.2v-1c0-1.6-1-2.5-2.7-2.5-1.6 0-2.7.8-2.9 2h-2.6c.1-2.4 2.2-4.2 5.6-4.2 3.3 0 5.4 1.7 5.4 4.4v9.4h-2.7v-2.2a4.9 4.9 0 0 1-4.4 2.4c-2.6 0-4.5-1.6-4.5-4Zm8.7-1.2v-1l-3.4.1c-1.6.2-2.6.9-2.6 2 0 1.3 1 2 2.5 2 2 0 3.5-1.3 3.5-3Z" fill="#71717A" fill-opacity=".5"/><path d="M70 26.2v2.3h1.1c2.9 0 4.2-1 5.4-4.3l5-14.3h-2.9l-3.4 11-3.5-11h-3l4.9 13.6-.1.3-.2.6c-.4 1.4-1.1 1.9-2.4 1.9H70Z" fill="#71717A" fill-opacity=".5"/></svg>