<svg fill="none" xmlns="http://www.w3.org/2000/svg" viewBox="0 0 192 192"><path d="M19 95.8a76.8 76.8 0 1 0 153.6 0 76.8 76.8 0 0 0-153.6 0Z" fill="#F4F4F5" stroke="#71717A" stroke-width="1.5" stroke-linecap="round" stroke-dasharray="6 6"/><path d="M120.2 63.2c-1.5-.8-3-1.2-4.7-1.2h-39c-1.6 0-3.2.4-4.6 1.2L49 75.6a2 2 0 0 0-.7 2.8L56 92.2a2 2 0 0 0 2.5.9l10.6-4.3v39.5a2 2 0 0 0 2 2h49.6a2 2 0 0 0 2-2V88.8l10.6 4.3a2 2 0 0 0 2.5-1l7.9-13.7a2 2 0 0 0-.2-2.2 2 2 0 0 0-.6-.6l-22.8-12.4Z" fill="#D4D4D8"/><path d="M71.9 70.5c1.4-.8 3-1.2 4.7-1.2h38.9c1.6 0 3.2.4 4.7 1.2l21.4 11.7 2.2-3.8a2 2 0 0 0-.2-2.2 2 2 0 0 0-.6-.5l-22.8-12.5c-1.5-.8-3-1.2-4.7-1.2h-39c-1.6 0-3.2.4-4.6 1.2L49 75.6a2 2 0 0 0-.7 2.8l2.1 3.8L72 70.5Z" fill="#E4E4E7"/><path d="M120.2 63.2c-1.5-.8-3-1.2-4.7-1.2h-39c-1.6 0-3.2.4-4.6 1.2L49 75.6a2 2 0 0 0-.7 2.8L56 92.2a2 2 0 0 0 2.5.9l10.6-4.3v39.5a2 2 0 0 0 2 2h49.6a2 2 0 0 0 2-2V88.8l10.6 4.3a2 2 0 0 0 2.5-1l7.9-13.7a2 2 0 0 0-.2-2.2 2 2 0 0 0-.6-.6l-22.8-12.4Z" stroke="#71717A" stroke-width="1.5" stroke-linecap="round" stroke-linejoin="round"/><path d="M108.2 62a12.2 12.2 0 1 1-24.4 0h24.4Z" fill="#71717A" stroke="#71717A" stroke-width="1.5" stroke-linecap="round" stroke-linejoin="round"/><path d="M115.5 98.1a4 4 0 0 1-2.7 3.8l-3.3 1.1a4 4 0 0 1-2.5 0l-3.3-1a4 4 0 0 1-2.8-3.9v-7.3a2 2 0 0 1 2-2h10.6a2 2 0 0 1 2 2v7.3Z" fill="#E4E4E7" stroke="#71717A" stroke-width="1.5" stroke-linecap="round" stroke-linejoin="round"/><circle cx="172.5" cy="96.5" r="17.5" fill="#fff" stroke="#18181B" stroke-width="1.5" stroke-linecap="round" stroke-linejoin="round"/><path d="M169.5 105a2.5 2.5 0 0 1-2.4-1.7 2.5 2.5 0 0 1 .9-2.7l5.4-4.1-5.4-4a2.5 2.5 0 0 1-.5-3.5 2.5 2.5 0 0 1 3.4-.5l8.1 6a2.5 2.5 0 0 1 0 4l-8 6c-.5.3-1 .5-1.5.5Z" fill="#02C652" stroke="#18181B" stroke-width="1.5" stroke-linecap="round" stroke-linejoin="round"/><circle cx="19.5" cy="96.5" r="17.5" fill="#fff" stroke="#18181B" stroke-width="1.5" stroke-linecap="round" stroke-linejoin="round"/><path d="M22.5 88a2.5 2.5 0 0 1 2.4 3.2c-.2.5-.5 1-.9 1.2l-5.4 4.1 5.4 4a2.5 2.5 0 1 1-3 4l-8-6a2.5 2.5 0 0 1 0-4l8-6c.5-.3 1-.5 1.5-.5Z" fill="#02C652" stroke="#18181B" stroke-width="1.5" stroke-linecap="round" stroke-linejoin="round"/></svg>