<svg fill="none" xmlns="http://www.w3.org/2000/svg" viewBox="0 0 192 192"><path d="M151.6 33.1H42.2L33 146.3a5.6 5.6 0 0 0 1.5 4.2 5.5 5.5 0 0 0 4 1.7h116.8a5.6 5.6 0 0 0 4-1.7c.6-.6 1-1.3 1.2-2l.2-.7.1-1.5L151.6 33ZM47.7 22.8l5.3-6.3-7.5-8v17l2.2-2.7ZM140.8 16.5l7.5 9v-17l-7.5 8Z" fill="#fff"/><path d="M162.8 147v-.9l-9.3-114v-.4l-.2-.2-3-3.6V5.6h-.1l-.1-.2-.1-.1-.1-.1h-.2V5h-.2l-.2-.1H44.2l-.1.1h-.2v.2h-.2v.2l-.1.2V28l-3.1 3.6-.2.3v.2L31 146a7.4 7.4 0 0 0 2 5.8 7.5 7.5 0 0 0 5.5 2.4h22c-.4.8-.6 1.7-.6 2.5 0 5.5 7.4 9.8 16.9 9.8h9.1c3.1 0 6 1 7.8 2.9 1.3 1.3 2 3 2 4.8 0 7.2 13.4 12.8 30.7 12.8 17.2 0 30.7-5.6 30.7-12.8 0-1.3-.4-2.5-1.1-3.5a2 2 0 0 1-.2-2.1c.6-1 2.1-2.1 4.3-2.1 9.4 0 16.9-4.3 16.9-9.8 0-4.9-6-8.9-14.2-9.6ZM148.3 8.5v17l-7.5-9 7.5-8Zm-102.8 0 7.5 8-5.3 6.3-2.2 2.7v-17Zm-7 143.7a5.5 5.5 0 0 1-5.5-6l9.2-113h109.4l9.2 113a5.7 5.7 0 0 1-1.5 4.3 5.5 5.5 0 0 1-4 1.7H38.5Zm121.6 12.3c-2.7 0-5 1.2-6 3.1a4 4 0 0 0 .2 4.2c.5.7.8 1.6.8 2.4 0 5.2-11.5 10.8-28.7 10.8s-28.8-5.6-28.8-10.8c0-2.3-.8-4.5-2.5-6.2a12.8 12.8 0 0 0-9.2-3.5h-9.1c-8 0-14.9-3.6-14.9-7.8 0-.8.3-1.7.8-2.5h92.6a7.4 7.4 0 0 0 5.5-2.4 7.2 7.2 0 0 0 1.6-2.8c7.1.6 12.6 4 12.6 7.7 0 4.2-6.9 7.8-15 7.8h.1Z" fill="#18181B"/><path d="M69.2 102.6a5 5 0 1 0 9.8 0 5 5 0 0 0-9.8 0ZM115 102.6a5 5 0 1 0 9.8 0 5 5 0 0 0-9.8 0Z" fill="#18181B"/><path d="M135.6 130c.3-.8.5-1.6.5-2.4 0-2.8-4-11.5-6.4-16.2a68.7 68.7 0 0 0-6.3 16.1 6.3 6.3 0 0 0 1.8 4.7 6.4 6.4 0 0 0 10.4-2.1Z" fill="#02C652"/><path d="M115.5 128.2A19.2 19.2 0 0 0 85.3 118a19.3 19.3 0 0 0-6.9 10.3 4.6 4.6 0 0 0 2.5 5.4c.6.3 1.3.4 2 .4h.3c4.5-1 9.2-1.6 13.7-1.8A86.7 86.7 0 0 1 111 134a4.6 4.6 0 0 0 4.5-5.8Z" fill="#18181B"/><path d="M175 156.7c0-3.8-5.5-7-12.5-7.7v.2a7.5 7.5 0 0 1-4.2 4.4c-1 .5-2 .7-3 .7H62.7c-.5.8-.8 1.6-.8 2.4 0 4.2 6.8 7.8 15 7.8h9c3.7 0 7 1.3 9.2 3.5 1.7 1.7 2.6 4 2.5 6.2 0 5.2 11.6 10.8 28.8 10.8 17.2 0 28.7-5.6 28.7-10.7 0-.9-.3-1.7-.8-2.5a4 4 0 0 1-.2-4.2c1-1.9 3.4-3.1 6-3.1 8 0 14.9-3.6 14.9-7.8Z" fill="#02C652"/><path d="M97 86.9a28.3 28.3 0 0 0 28.4-28.5v-9.8c0-.6-.2-1.2-.7-1.6-.8-.9-2.3-.9-3.2 0-.4.4-.6 1-.6 1.6v9.8a23.7 23.7 0 0 1-24 23.7 23.7 23.7 0 0 1-23.8-23.7v-9.8c0-.6-.3-1.2-.7-1.6-.9-.9-2.4-.9-3.2 0-.4.4-.7 1-.7 1.6v9.8A28.3 28.3 0 0 0 97 87Z" fill="#E4E4E7"/><path d="M129.4 54.8a8.7 8.7 0 0 0 0-12.4 8.7 8.7 0 0 0-12.5 0 8.7 8.7 0 0 0 0 12.4c.6.6 1.3 1 2 1.5v-7.7a4.2 4.2 0 0 1 4.2-4.3c1.2 0 2.3.5 3 1.3.9.8 1.3 1.9 1.3 3v7.7c.7-.4 1.4-.9 2-1.5ZM70.8 39.8a8.8 8.8 0 0 0-8.8 8.8 8.8 8.8 0 0 0 4.5 7.7v-7.7a4.2 4.2 0 0 1 4.3-4.3 4 4 0 0 1 2.2.7c.3.1.6.3.8.6.8.8 1.2 1.8 1.2 3v7.7a8.7 8.7 0 0 0 2-14 8.8 8.8 0 0 0-6.2-2.5Z" fill="#fff"/><path d="M134 48.6a10.7 10.7 0 0 0-10.8-10.8 10.7 10.7 0 0 0-10.9 10.8 10.7 10.7 0 0 0 6.6 9.9 21.8 21.8 0 0 1-22 21.5 21.8 21.8 0 0 1-21.8-21.5 10.6 10.6 0 0 0 6.5-10c0-2.8-1.1-5.5-3.2-7.6a10.8 10.8 0 0 0-15.3 0 10.8 10.8 0 0 0 3.4 17.6A30.2 30.2 0 0 0 97 88.8a30.3 30.3 0 0 0 30.4-30.3 10.8 10.8 0 0 0 6.6-10Zm-72 0a8.8 8.8 0 0 1 8.8-8.8 8.8 8.8 0 0 1 8.8 8.8 8.8 8.8 0 0 1-4.6 7.7v-7.7a4.2 4.2 0 0 0-4.2-4.3 4.3 4.3 0 0 0-4.3 4.3v7.7a8.8 8.8 0 0 1-4.5-7.7Zm63.4 9.8A28.3 28.3 0 0 1 97 86.8a28.3 28.3 0 0 1-28.5-28.4v-9.8c0-.6.3-1.2.7-1.6.8-.9 2.3-.9 3.2 0 .4.4.6 1 .6 1.6v9.8A23.7 23.7 0 0 0 97 82a23.8 23.8 0 0 0 23.9-23.6v-9.8c0-.6.2-1.2.6-1.6.9-.9 2.4-.9 3.2 0 .5.4.7 1 .7 1.6v9.8Zm2-2.1v-7.7a4.2 4.2 0 0 0-4.3-4.3 4.3 4.3 0 0 0-4.2 4.3v7.7c-.8-.4-1.4-1-2-1.5a8.8 8.8 0 0 1 6.2-15 8.8 8.8 0 0 1 8.9 8.8 8.8 8.8 0 0 1-4.6 7.7ZM129.7 136a8.4 8.4 0 0 1-8.4-8.5c0-4.1 6.8-17.3 7.5-18.8.4-.7 1.5-.7 1.8 0 .8 1.5 7.5 14.6 7.5 18.8a8.4 8.4 0 0 1-8.4 8.6Zm0-24.6a68.7 68.7 0 0 0-6.4 16.1 6.3 6.3 0 0 0 1.9 4.7 6.4 6.4 0 0 0 10.4-2.1c.3-.8.5-1.7.5-2.5 0-2.8-4-11.5-6.4-16.2Z" fill="#18181B"/></svg>