<svg fill="none" xmlns="http://www.w3.org/2000/svg" viewBox="0 0 104 32"><path fill-rule="evenodd" clip-rule="evenodd" d="M50 24.2h-2.4V6h6.2c1.6 0 3 .5 4 1.6a5 5 0 0 1 1.7 3.8 5 5 0 0 1-1.7 4c-1 1-2.4 1.5-4 1.5h-3.9v7.4Zm0-16v6.3h3.8c1 0 1.8-.3 2.4-.9a3 3 0 0 0 0-4.5 3 3 0 0 0-2.4-1H50ZM65.7 11.3c1.7 0 3 .4 4 1.4a5 5 0 0 1 1.6 3.8v7.7H69v-1.7a4.5 4.5 0 0 1-4 2.1 5 5 0 0 1-3.4-1.2 4 4 0 0 1-1.4-3c0-1.4.5-2.4 1.5-3.2 1-.7 2.3-1.1 3.9-1.1 1.4 0 2.5.2 3.4.8v-.6c0-.8-.3-1.5-1-2-.6-.6-1.3-1-2.2-1-1.3 0-2.4.6-3.1 1.7l-2-1.3a5.7 5.7 0 0 1 5-2.4Zm-3 9c0 .7.2 1.2.7 1.6.5.4 1.1.6 1.8.6 1 0 2-.4 2.7-1 .8-.8 1.1-1.7 1.1-2.7-.7-.6-1.7-.8-3-.8a4 4 0 0 0-2.4.6c-.7.5-1 1-1 1.8Z" fill="#71717A" fill-opacity=".5"/><path d="m76.2 29.7 7.9-18h-2.6l-3.6 9-3.8-9h-2.5l5.1 11.7-2.9 6.3h2.4ZM40.4 13.1l.2 2.2c0 3.2-1.2 5.9-3.2 7.7l-3.3-2.6c1.1-.8 1.8-2 2-3.3h-5.6v-4h9.9Z" fill="#71717A" fill-opacity=".5"/><path d="M21.1 19.8c1.7 3.4 5.3 5.8 9.4 5.8 2.8 0 5.2-1 7-2.6L34 20.4c-1 .6-2.2 1-3.6 1a6.3 6.3 0 0 1-5.9-4.3l-3.5 2.7Z" fill="#71717A" fill-opacity=".5"/><path d="m21.1 10.4 3.5 2.7a6.3 6.3 0 0 0 0 4l-3.5 2.7a10.5 10.5 0 0 1 0-9.4ZM30.5 8.7c1.5 0 3 .6 4 1.6l3-3a10.5 10.5 0 0 0-16.4 3l3.5 2.8a6.3 6.3 0 0 1 5.9-4.4Z" fill="#71717A" fill-opacity=".5"/></svg>