<svg fill="none" xmlns="http://www.w3.org/2000/svg" viewBox="0 0 104 32"><path fill-rule="evenodd" clip-rule="evenodd" d="M22.9 6.9H17c-.3 0-.7.3-.9.6l-2.4 15.3c0 .3.2.5.5.5H17c.3 0 .7-.4.9-.7l.7-4.2c0-.3.3-.7.8-.7h2c3.9 0 6.1-1.9 6.7-5.7.3-1.5 0-2.9-.7-3.8-1-.8-2.4-1.3-4.5-1.3Zm.7 5.7c-.4 2-2 2-3.5 2h-.9l.7-4c0-.1.2-.3.6-.3h.3c1 0 2 0 2.6.7.2.2.3.7.2 1.6ZM40.7 12.4h-2.8c-.2 0-.5.2-.5.3l-.2.9-.1-.3c-.7-1-2-1.3-3.3-1.3a6.6 6.6 0 0 0-6.4 5.7c-.4 1.8.1 3.3 1 4.4.9 1 2 1.4 3.6 1.4 2.6 0 4-1.6 4-1.6l-.2.9c0 .3.2.5.6.5H39c.3 0 .6-.4.8-.7l1.6-9.7c-.2-.2-.5-.5-.7-.5Zm-4 5.5c-.3 1.6-1.5 2.8-3.3 2.8-.8 0-1.5-.4-1.9-.7-.3-.5-.5-1.2-.5-2a3.2 3.2 0 0 1 3.1-2.8c.9 0 1.4.3 2 .6.4.6.6 1.4.6 2.1Z" fill="#71717A" fill-opacity=".5"/><path d="M52.8 12.4h3c.3 0 .6.5 0 1l-9.4 13.7c-.2.2-.4.3-.7.3h-2.8c-.3 0-.5-.5-.3-.8l3-4.2-3.2-9.1c0-.4.2-.7.5-.7h2.8c.5 0 .7.1.9.5l1.7 5.5 3.8-5.9c.2-.1.3-.3.7-.3Z" fill="#71717A" fill-opacity=".5"/><path fill-rule="evenodd" clip-rule="evenodd" d="M65.2 6.9h-5.8c-.4 0-.7.3-1 .6l-2.3 15.3c0 .3.1.5.5.5h3.1c.3 0 .5-.2.5-.5l.7-4.4c0-.3.4-.7.9-.7h1.9c4 0 6.2-1.9 6.7-5.7.4-1.5 0-2.9-.7-3.8A7 7 0 0 0 65.2 7Zm.7 5.7c-.3 2-1.9 2-3.4 2h-1l.6-4c0-.1.2-.3.5-.3h.4c1 0 2 0 2.6.7.3.2.3.7.3 1.6ZM82.9 12.4H80c-.2 0-.5.2-.5.3l-.2.9-.2-.3c-.7-1-1.9-1.3-3.3-1.3a6.6 6.6 0 0 0-6.3 5.7c-.4 1.8.1 3.3 1 4.4.9 1 2 1.4 3.6 1.4 2.6 0 4-1.6 4-1.6l-.2.9c0 .3.2.5.5.5h2.6c.4 0 .7-.4.9-.7l1.6-9.7-.2-.1c-.1-.2-.3-.4-.5-.4Zm-4 5.5c-.4 1.6-1.6 2.8-3.3 2.8-.9 0-1.6-.4-1.9-.7-.3-.5-.5-1.2-.5-2a3.2 3.2 0 0 1 3-2.8c1 0 1.5.3 2 .6.7.6.9 1.4.7 2.1Z" fill="#71717A" fill-opacity=".5"/><path d="m83.7 23 2.4-15.6c.2-.4.4-.5.6-.4h2.7c.4 0 .5.2.5.5l-2.4 15.3c-.1.3-.5.7-.8.7h-2.5c-.3 0-.5-.2-.5-.6Z" fill="#71717A" fill-opacity=".5"/></svg>