<?xml version="1.0" encoding="iso-8859-1"?>
<!-- Uploaded to: SVG Repo, www.svgrepo.com, Generator: SVG Repo Mixer Tools -->
<!DOCTYPE svg PUBLIC "-//W3C//DTD SVG 1.1//EN" "http://www.w3.org/Graphics/SVG/1.1/DTD/svg11.dtd">
<svg fill="#000000" version="1.1" id="Capa_1" xmlns="http://www.w3.org/2000/svg" xmlns:xlink="http://www.w3.org/1999/xlink" 
	 width="800px" height="800px" viewBox="0 0 48.956 48.955"
	 xml:space="preserve">
<g>
	<path d="M24.698,19.041l4.338,4.336l-1.065,1.066l-4.338-4.336L24.698,19.041z M32.826,14.269c-0.927-0.928-2.427-0.928-3.354,0
		l-3.604,3.603l4.338,4.337l3.604-3.604c0.928-0.928,0.928-2.429,0-3.354L32.826,14.269z M0.696,43.043
		c-0.928,0.926-0.928,2.43,0,3.354l0.98,0.98c0.927,0.928,2.429,0.928,3.354,0l21.655-21.655l-4.337-4.339L0.696,43.043z
		 M42.708,13.878l-0.803,2.113l-2.112,0.802l2.112,0.804l0.803,2.112l0.803-2.112l2.112-0.804l-2.112-0.802L42.708,13.878z
		 M35.958,4.718l-1.455-3.835l-1.453,3.835l-3.836,1.455l3.836,1.455l1.453,3.836l1.455-3.836l3.835-1.455L35.958,4.718z
		 M46.689,6.856l-0.857-2.267l-0.857,2.267l-2.266,0.857l2.266,0.86l0.857,2.265l0.857-2.265l2.267-0.86L46.689,6.856z"/>
</g>
</svg>