<?xml version="1.0" encoding="iso-8859-1"?>
<!-- Uploaded to: SVG Repo, www.svgrepo.com, Generator: SVG Repo Mixer Tools -->
<svg fill="#000000" height="800px" width="800px" version="1.1" id="Layer_1" xmlns="http://www.w3.org/2000/svg" xmlns:xlink="http://www.w3.org/1999/xlink" 
	 viewBox="0 0 511.862 511.862" xml:space="preserve">
<g transform="translate(0 -1)">
	<g>
		<g>
			<path d="M127.412,316.657c-16.299,1.143-31.727,8.815-41.259,20.531c-7.62,9.361-10.829,20.352-9.276,31.795
				c1.451,10.675-2.082,21.154-9.685,28.757c-24.576,24.576-44.988,29.841-57.967,29.841c-0.247,0-0.512-0.034-0.691-0.009
				c-3.661,0-6.929,2.347-8.098,5.845c-1.169,3.516,0.068,7.398,3.063,9.583c3.422,2.492,61.798,44.416,119.159,44.416
				c23.262,0,46.353-6.895,65.553-26.095c32.606-32.606,34.782-84.506,4.949-118.161
				C175.685,323.45,154.087,314.831,127.412,316.657z"/>
			<path d="M496.237,42.658l-2.517-2.517c-18.185-18.202-47.667-18.278-67.14-0.137l-11.025,10.402l26.402,26.402
				c3.328,3.337,3.328,8.73,0,12.066c-1.673,1.664-3.849,2.5-6.033,2.5c-2.185,0-4.369-0.836-6.033-2.5l-26.76-26.761L390.705,73.83
				l27.11,27.11c3.328,3.336,3.328,8.738,0,12.066c-1.673,1.664-3.857,2.5-6.033,2.5c-2.185,0-4.369-0.836-6.033-2.5l-27.469-27.469
				L150.082,300.68c21.632,3.379,40.397,13.739,55.851,31.172c18.159,20.471,26.428,46.549,25.131,72.363L496.408,119.27
				C517.075,97.067,517.007,63.42,496.237,42.658z"/>
		</g>
	</g>
</g>
</svg>