<?xml version="1.0" encoding="UTF-8"?>
<!DOCTYPE svg PUBLIC "-//W3C//DTD SVG 1.1//EN" "http://www.w3.org/Graphics/SVG/1.1/DTD/svg11.dtd">
<svg xmlns="http://www.w3.org/2000/svg" version="1.1" width="4167px" height="910px" style="shape-rendering:geometricPrecision; text-rendering:geometricPrecision; image-rendering:optimizeQuality; fill-rule:evenodd; clip-rule:evenodd" xmlns:xlink="http://www.w3.org/1999/xlink">
<g><path style="opacity:0.994" fill="#fefffe" d="M 135.5,-0.5 C 145.833,-0.5 156.167,-0.5 166.5,-0.5C 233.422,9.57947 277.255,46.9128 298,111.5C 313.006,182.275 291.173,238.442 232.5,280C 186.978,306.818 139.645,310.485 90.5,291C 38.6999,266.562 8.36655,226.062 -0.5,169.5C -0.5,157.5 -0.5,145.5 -0.5,133.5C 10.5664,67.2586 48.233,24.092 112.5,4C 120.263,2.26571 127.929,0.765707 135.5,-0.5 Z"/></g>
<g><path style="opacity:0.995" fill="#fefffe" d="M 702.5,-0.5 C 738.833,-0.5 775.167,-0.5 811.5,-0.5C 865.452,8.28373 897.619,39.6171 908,93.5C 908.667,132.167 908.667,170.833 908,209.5C 897.923,262.91 866.09,294.077 812.5,303C 769.833,303.333 727.167,303.667 684.5,304C 641.544,311.623 615.71,336.79 607,379.5C 605.891,404.479 605.391,429.479 605.5,454.5C 605.391,479.521 605.891,504.521 607,529.5C 617.503,575.67 646.336,600.836 693.5,605C 765.166,605.5 836.833,605.667 908.5,605.5C 908.5,706.833 908.5,808.167 908.5,909.5C 807.167,909.5 705.833,909.5 604.5,909.5C 604.667,834.499 604.5,759.499 604,684.5C 598.19,648.686 578.356,624.186 544.5,611C 538.944,609.194 533.278,607.861 527.5,607C 478.5,606.333 429.5,606.333 380.5,607C 338.122,615.045 312.622,640.211 304,682.5C 303.979,748.864 303.313,815.197 302,881.5C 296.856,897.48 286.023,906.813 269.5,909.5C 190.5,909.5 111.5,909.5 32.5,909.5C 16.0214,906.693 5.02144,897.359 -0.5,881.5C -0.5,798.5 -0.5,715.5 -0.5,632.5C 3.98363,619.184 12.9836,610.351 26.5,606C 92.8516,605.961 159.185,605.294 225.5,604C 267.327,595.506 292.494,570.339 301,528.5C 301.333,475.5 301.667,422.5 302,369.5C 306.786,333.379 326.952,311.213 362.5,303C 415.167,302.667 467.833,302.333 520.5,302C 564.26,296.878 591.76,273.044 603,230.5C 604.301,187.199 604.968,143.866 605,100.5C 609.952,55.0704 633.452,23.5704 675.5,6C 684.445,3.01257 693.445,0.845905 702.5,-0.5 Z"/></g>
<g><path style="opacity:0.988" fill="#fefffe" d="M 2108.5,100.5 C 2136.5,100.5 2164.5,100.5 2192.5,100.5C 2192.5,336.167 2192.5,571.833 2192.5,807.5C 2164.5,807.5 2136.5,807.5 2108.5,807.5C 2108.5,571.833 2108.5,336.167 2108.5,100.5 Z"/></g>
<g><path style="opacity:0.987" fill="#fefffe" d="M 2905.5,100.5 C 2933.5,100.5 2961.5,100.5 2989.5,100.5C 2989.33,225.834 2989.5,351.167 2990,476.5C 2991.12,478.624 2992.62,480.457 2994.5,482C 3016.83,482.667 3039.17,482.667 3061.5,482C 3119.83,422.333 3178.17,362.667 3236.5,303C 3268.83,302.333 3301.17,302.333 3333.5,303C 3270,367.833 3206.5,432.667 3143,497.5C 3140.78,502.069 3141.11,506.402 3144,510.5C 3219.36,609.025 3294.53,707.691 3369.5,806.5C 3337.51,807.667 3305.51,807.833 3273.5,807C 3210.17,724 3146.83,641 3083.5,558C 3054.5,557.333 3025.5,557.333 2996.5,558C 2993.43,558.739 2991.26,560.572 2990,563.5C 2989.5,644.833 2989.33,726.166 2989.5,807.5C 2961.5,807.5 2933.5,807.5 2905.5,807.5C 2905.5,571.833 2905.5,336.167 2905.5,100.5 Z"/></g>
<g><path style="opacity:0.981" fill="#fefffe" d="M 4105.5,100.5 C 4131.92,98.7838 4150.75,109.784 4162,133.5C 4170.89,164.533 4161.06,187.366 4132.5,202C 4105.69,210.329 4084.19,203.162 4068,180.5C 4056.97,159.325 4058.3,138.992 4072,119.5C 4081.11,109.368 4092.27,103.035 4105.5,100.5 Z"/></g>
<g><path style="opacity:0.987" fill="#fefffe" d="M 1666.5,293.5 C 1751.68,288.823 1823.52,317.156 1882,378.5C 1885.01,341.305 1904.17,316.805 1939.5,305C 1946.71,303.066 1954.04,302.233 1961.5,302.5C 1961.5,470.833 1961.5,639.167 1961.5,807.5C 1933.5,807.5 1905.5,807.5 1877.5,807.5C 1877.67,783.831 1877.5,760.164 1877,736.5C 1808.77,803.791 1727.27,828.624 1632.5,811C 1556.11,792.91 1498.28,750.076 1459,682.5C 1424.78,618.123 1417.45,550.79 1437,480.5C 1461.02,405.972 1508.18,351.472 1578.5,317C 1606.69,304.453 1636.03,296.62 1666.5,293.5 Z M 1678.5,365.5 C 1754.22,365.264 1812.05,396.93 1852,460.5C 1886.27,524.334 1885.94,588.001 1851,651.5C 1813.24,710.896 1758.91,741.896 1688,744.5C 1608.04,740.468 1550.37,702.802 1515,631.5C 1487.55,562.648 1495.55,498.315 1539,438.5C 1575.1,394.531 1621.6,370.198 1678.5,365.5 Z"/></g>
<g><path style="opacity:0.987" fill="#fefffe" d="M 2520.5,293.5 C 2630.06,289.514 2713.22,333.848 2770,426.5C 2814.67,512.167 2814.67,597.833 2770,683.5C 2725.61,758.318 2660.11,802.151 2573.5,815C 2478.46,823.784 2399.96,792.284 2338,720.5C 2283.69,649.977 2267.36,571.31 2289,484.5C 2317.4,392.429 2377.57,331.929 2469.5,303C 2486.4,298.519 2503.4,295.353 2520.5,293.5 Z M 2532.5,365.5 C 2616.99,366.137 2677.82,404.137 2715,479.5C 2743.2,552.301 2732.86,618.968 2684,679.5C 2635.83,731.227 2576.66,751.727 2506.5,741C 2441.97,727.133 2395.8,690.299 2368,630.5C 2339.69,557.683 2350.02,491.016 2399,430.5C 2434.81,391.012 2479.31,369.346 2532.5,365.5 Z"/></g>
<g><path style="opacity:0.99" fill="#fefffe" d="M 3637.5,293.5 C 3709.45,289.098 3773.12,309.598 3828.5,355C 3837,362.167 3844.83,370 3852,378.5C 3857.86,331.476 3884.36,306.143 3931.5,302.5C 3931.5,470.833 3931.5,639.167 3931.5,807.5C 3903.83,807.5 3876.17,807.5 3848.5,807.5C 3848.67,783.831 3848.5,760.164 3848,736.5C 3778.05,804.806 3694.89,829.306 3598.5,810C 3513.54,787.709 3453.04,736.542 3417,656.5C 3384.85,572.912 3391.52,492.579 3437,415.5C 3484.74,343.862 3551.57,303.195 3637.5,293.5 Z M 3649.5,365.5 C 3723.72,365.184 3780.89,395.851 3821,457.5C 3855.62,519.463 3856.96,582.13 3825,645.5C 3782.57,715.805 3720.07,748.305 3637.5,743C 3563.2,731.683 3511.36,691.517 3482,622.5C 3457.78,550.924 3469.78,486.258 3518,428.5C 3553.77,390.697 3597.61,369.697 3649.5,365.5 Z"/></g>
<g><path style="opacity:0.988" fill="#fefffe" d="M 4071.5,302.5 C 4099.5,302.5 4127.5,302.5 4155.5,302.5C 4155.5,470.833 4155.5,639.167 4155.5,807.5C 4127.5,807.5 4099.5,807.5 4071.5,807.5C 4071.5,639.167 4071.5,470.833 4071.5,302.5 Z"/></g>
</svg>
