<?xml version="1.0" encoding="iso-8859-1"?>
<!DOCTYPE svg PUBLIC "-//W3C//DTD SVG 1.1//EN" "http://www.w3.org/Graphics/SVG/1.1/DTD/svg11.dtd">
<svg height="800px" width="800px" version="1.1" id="Capa_1" xmlns="http://www.w3.org/2000/svg" xmlns:xlink="http://www.w3.org/1999/xlink"
	 viewBox="0 0 297.503 297.503" xml:space="preserve">
<g id="XMLID_36_">
	<g>
		<polygon style="fill:#ACBFC7;" points="262.348,43.193 221.027,84.522 212.977,76.473 254.307,35.153 		"/>
		<polygon style="fill:#ACBFC7;" points="223.527,115.302 193.288,145.533 151.967,104.213 182.197,73.982 		"/>
		<path style="fill:#0099EF;" d="M137.827,118.353l41.32,41.33l-76.36,76.35c-5.15,5.16-13.53,5.15-18.68,0l-22.64-22.64
			c-5.15-5.15-5.15-13.53,0-18.68l11.92-11.92l10.74,10.75c1.37,1.36,3.16,2.05,4.95,2.05c1.8,0,3.59-0.69,4.95-2.05
			c2.74-2.74,2.74-7.17,0-9.9l-10.74-10.75l12.29-12.29l10.74,10.75c1.37,1.36,3.16,2.05,4.95,2.05s3.58-0.69,4.95-2.05
			c2.73-2.74,2.73-7.17,0-9.9l-10.74-10.75l12.28-12.28l10.75,10.74c1.36,1.37,3.16,2.05,4.95,2.05c1.79,0,3.58-0.68,4.95-2.05
			c2.73-2.73,2.73-7.16,0-9.9l-10.75-10.74L137.827,118.353z"/>
		<path d="M294.318,46.882c3.91,3.9,3.91,10.24,0,14.14c-1.95,1.95-4.51,2.93-7.07,2.93s-5.12-0.98-7.07-2.93l-3.68-3.68
			l-41.33,41.32l9.57,9.57c1.88,1.88,2.93,4.42,2.93,7.07s-1.05,5.2-2.93,7.07l-127.8,127.81c-6.48,6.47-14.98,9.71-23.49,9.71
			c-8.5,0-17-3.24-23.48-9.71l-4.25-4.25l-48.4,48.39c-1.95,1.95-4.51,2.93-7.07,2.93s-5.12-0.98-7.07-2.93
			c-3.9-3.9-3.9-10.24,0-14.14l48.4-48.4l-4.25-4.25c-12.95-12.95-12.95-34.01,0-46.96l127.8-127.81c1.88-1.87,4.42-2.93,7.07-2.93
			c2.65,0,5.2,1.06,7.07,2.93l9.57,9.57l41.33-41.32l-3.69-3.69c-3.9-3.9-3.9-10.24,0-14.14c3.91-3.91,10.24-3.91,14.14,0
			L294.318,46.882z M221.027,84.522l41.32-41.33l-8.04-8.04l-41.33,41.32L221.027,84.522z M193.288,145.533l30.24-30.23
			l-41.33-41.32l-30.23,30.23L193.288,145.533z M179.148,159.682l-41.32-41.33l-10.17,10.17l10.75,10.74c2.73,2.74,2.73,7.17,0,9.9
			c-1.37,1.37-3.16,2.05-4.95,2.05c-1.79,0-3.59-0.68-4.95-2.05l-10.75-10.74l-12.28,12.28l10.74,10.75c2.73,2.73,2.73,7.16,0,9.9
			c-1.37,1.36-3.16,2.05-4.95,2.05s-3.58-0.69-4.95-2.05l-10.74-10.75l-12.29,12.29l10.74,10.75c2.74,2.73,2.74,7.16,0,9.9
			c-1.36,1.36-3.15,2.05-4.95,2.05c-1.79,0-3.58-0.69-4.95-2.05l-10.74-10.75l-11.92,11.92c-5.15,5.15-5.15,13.53,0,18.68
			l22.64,22.64c5.15,5.15,13.53,5.16,18.68,0L179.148,159.682z"/>
	</g>
	<g>
	</g>
</g>
</svg>